/* XPM */
static char *dHJlZV9z[] = {
/* columns rows colors chars-per-pixel */
"80 80 247 2 ",
"   c #021B02",
".  c #05130A",
"X  c #071D0A",
"o  c #091D0A",
"O  c #041407",
"+  c #0B1C12",
"@  c #0B140C",
"#  c #042505",
"$  c #042C04",
"%  c #07240B",
"&  c #0C240D",
"*  c #072D0A",
"=  c #0C2C0C",
"-  c #033404",
";  c #043B04",
":  c #063309",
">  c #0B330B",
",  c #073D09",
"<  c #0B3B0C",
"1  c #093A07",
"2  c #153E0E",
"3  c #0C2515",
"4  c #0E2B14",
"5  c #0F2618",
"6  c #0E2919",
"7  c #102415",
"8  c #112C14",
"9  c #102619",
"0  c #132A1B",
"q  c #182F1D",
"w  c #0E3311",
"e  c #0E3B10",
"r  c #123413",
"t  c #133B14",
"y  c #153319",
"u  c #19351B",
"i  c #173C19",
"p  c #1A3D1A",
"a  c #183A14",
"s  c #132F0B",
"d  c #1A2E22",
"f  c #1C3222",
"g  c #223524",
"h  c #213D22",
"j  c #044304",
"k  c #044B04",
"l  c #064408",
"z  c #0B430B",
"x  c #064E08",
"c  c #0B4B0B",
"v  c #0B4806",
"b  c #144A0D",
"n  c #154A07",
"m  c #045304",
"M  c #035C04",
"N  c #085D07",
"B  c #0B540B",
"V  c #0B5C0B",
"C  c #075607",
"Z  c #12540C",
"A  c #1B5C0D",
"S  c #165808",
"D  c #0E4311",
"F  c #0F4A12",
"G  c #134314",
"H  c #134C13",
"J  c #1D411D",
"K  c #1B421B",
"L  c #1C4B1C",
"P  c #1A4914",
"I  c #0F5910",
"U  c #135313",
"Y  c #125B12",
"T  c #1A531B",
"R  c #1C5D1C",
"E  c #195411",
"W  c #22510E",
"Q  c #235C0B",
"!  c #265B0A",
"~  c #244C16",
"^  c #245A15",
"/  c #305B16",
"(  c #036303",
")  c #036C03",
"_  c #0B630B",
"`  c #0B6B0B",
"'  c #086707",
"]  c #116B09",
"[  c #1B6909",
"{  c #186608",
"}  c #037304",
"|  c #0A7206",
" . c #037C03",
".. c #0D720C",
"X. c #0B7D0A",
"o. c #1D7305",
"O. c #147A03",
"+. c #1D7B05",
"@. c #13710B",
"#. c #1C710B",
"$. c #157607",
"%. c #0F6210",
"&. c #136313",
"*. c #136B13",
"=. c #1B651B",
"-. c #1C6C1C",
";. c #1C6813",
":. c #137213",
">. c #1C721C",
",. c #1B7A16",
"<. c #226206",
"1. c #256C04",
"2. c #296C02",
"3. c #23640B",
"4. c #29650C",
"5. c #2B6D0B",
"6. c #266808",
"7. c #326E0E",
"8. c #247304",
"9. c #2B7404",
"0. c #247E03",
"q. c #2D7B03",
"w. c #23720A",
"e. c #2B740B",
"r. c #2D7B0C",
"t. c #247C0B",
"y. c #317C05",
"u. c #337C0B",
"i. c #317109",
"p. c #226314",
"a. c #2C6315",
"s. c #24611B",
"d. c #276B14",
"f. c #336C15",
"g. c #336716",
"h. c #297613",
"j. c #347517",
"k. c #1F5D20",
"l. c #234423",
"z. c #244A24",
"x. c #2A472A",
"c. c #235924",
"v. c #1F6420",
"b. c #256425",
"n. c #236823",
"m. c #3C7820",
"M. c #038303",
"N. c #0A8206",
"B. c #028C02",
"V. c #0B8B0A",
"C. c #0B820B",
"Z. c #138403",
"A. c #1A830A",
"S. c #168A0B",
"D. c #198905",
"F. c #019301",
"G. c #029B02",
"H. c #0E920C",
"J. c #0D9604",
"K. c #169405",
"L. c #168610",
"P. c #238304",
"I. c #2C8203",
"U. c #2D8A03",
"Y. c #2C830B",
"T. c #26850C",
"R. c #328403",
"E. c #358B02",
"W. c #398F03",
"Q. c #33840D",
"!. c #3A840D",
"~. c #328B0B",
"^. c #3A8C0B",
"/. c #259403",
"(. c #2B9502",
"). c #2C9C04",
"_. c #299B08",
"`. c #359302",
"'. c #399402",
"]. c #359A02",
"[. c #3C9B03",
"{. c #33940B",
"}. c #3C930A",
"|. c #359B0C",
" X c #3C9B0B",
".X c #2A8112",
"XX c #3C8514",
"oX c #388A13",
"OX c #3C9811",
"+X c #239710",
"@X c #05A206",
"#X c #1CA204",
"$X c #2BA303",
"%X c #27A505",
"&X c #34A203",
"*X c #3DA204",
"=X c #36AC02",
"-X c #3BAB04",
";X c #3CA409",
":X c #3BAC0C",
">X c #36A90C",
",X c #34B502",
"<X c #3DB505",
"1X c #2EA312",
"2X c #2E8C23",
"3X c #419D06",
"4X c #41940C",
"5X c #429B0B",
"6X c #418B12",
"7X c #438E1D",
"8X c #418516",
"9X c #459B14",
"0X c #46911A",
"qX c #489716",
"wX c #42A404",
"eX c #44AC03",
"rX c #44A40B",
"tX c #49A60D",
"yX c #44AA0A",
"uX c #49AB0B",
"iX c #48AD06",
"pX c #44B303",
"aX c #49B503",
"sX c #44BB02",
"dX c #4ABC02",
"fX c #4BB30A",
"gX c #4EBA09",
"hX c #46B708",
"jX c #52BA0D",
"kX c #43A311",
"lX c #4AA511",
"zX c #4DA717",
"xX c #48B510",
"cX c #54B814",
"vX c #45C101",
"bX c #4CC401",
"nX c #4ECA00",
"mX c #51C505",
"MX c #51CC01",
"NX c #53C30B",
"BX c #58CF0D",
"VX c #4CD201",
"CX c #53D301",
"ZX c #58D109",
"AX c #54C612",
"SX c None",
"DX c black",
/* pixels */
"SXSXSXSXSXSXSXSXSXSXSXSXSXSXSXSXSXSXSXSXSXSXSXSXSXSXSXSXSXSXSXSXSXSXSXSXSXSXSXSXSXSXSXSXSXSXSXSXSXSXSXSXSXSXSXSXSXSXSXSXSXSXSXSXSXSXSXSXSXSXSXSXSXSXSXSXSXSXSXSX",
"SXSXSXSXSXSXSXSXSXSXSXSXSXSXSXSXSXSXSXSXSXSXSXSXSXSXSXSXSXSXSXSXSXSXSXSXSXSXSXSXSXSXSXSXSXSXSXSXSXSXSXSXSXSXSXSXSXSXSXSXSXSXSXSXSXSXSXSXSXSXSXSXSXSXSXSXSXSXSXSX",
"SXSXSXSXSXSXSXSXSXSXSXSXSXSXSXSXSXSXSXSXSXSXSXSXSXSXSXSXSXSXSXSXSXSXSXSXSXSXSXSXSXSXSXSXSXSXSXSXSXSXSXSXSXSXSXSXSXSXSXSXSXSXSXSXSXSXSXSXSXSXSXSXSXSXSXSXSXSXSXSX",
"SXSXSXSXSXSXSXSXSXSXSXSXSXSXSXSXSXSXSXSXSXSXSXSXSXSXSXSXt SXSXSXSXSXSXSXSXSXSXSXSXSXSXSXSXSXSXSXSXSXSXSXSXSXSXSXSXSXSXSXSXSXSXSXSXSXSXSXSXSXSXSXSXSXSXSXSXSXSXSX",
"SXSXSXSXSXSXSXSXSXSXSXSXSXSXSXSXSXSXSXSXSXSXSXSXSXSXSXt G t e SXSXSXSXSXSXSXSXSXSXSXSXSXSXSXSXSXSXSXSXSXSXSXSXSXSXSXSXSXSXSXSXSXSXSXSXSXSXSXSXSXSXSXSXSXSXSXSXSX",
"SXSXSXSXSXSXSXSXSXSXSXSXSXSXSXSXSXSXSXSXSXSXSXSXSXSXSXt t t i SXSXSXSXSXSXSXSXSXSXSXSXSXSXSXSXSXSXSXSXSXSXSXSXSXSXSXSXSXSXSXSXSXSXSXSXSXSXSXSXSXSXSXSXSXSXSXSXSX",
"SXSXSXSXSXSXSXSXSXSXSXSXSXSXSXSXSXSXSXSXSXSXSXSXSXSXSXK t K K t SXSXSXSX< t t SXSXSXSXSXSXSXSXSXSXSXSXSXSXSXSXSXSXSXSXSXSXSXSXSXSXSXSXSXSXSXSXSXSXSXSXSXSXSXSXSX",
"SXSXSXSXSXSXSXSXSXSXSXSXSXSXSXSXSXSXSXSXSXSXSXSXSXSXSXJ p r i i SXSXSXp t t t SXSXSXSXSXSXSXSXSXSXSXSXSXSXSXSXSXSXSXSXSXSXSXSXSXSXSXSXSXSXSXSXSXSXSXSXSXSXSXSXSX",
"SXSXSXSXSXSXSXSXSXSXSXSXSXSXSXSXSXSXSXSXSXSXSXSXDXDXDXp p a J x.SXSXl.p r - = SXSXSXSXSXSXSXSXSXSXSXSXSXSXSXSXSXSXSXSXSXSXSXSXSXSXSXSXSXSXSXSXSXSXSXSXSXSXSXSXSX",
"SXSXSXSXSXSXSXSXSXSXSXSXSXSXSXSXSXSXSXSXSXSXSX4 7 DXDXSXi r s r 8 p p p c M j SX3 3 SXSXSXSXSXSXSXSXSXSXSXSXSXSXSXSXSXSXSXSXSXSXSXSXSXSXSXSXSXSXSXSXSXSXSXSXSXSX",
"SXSXSXSXSXSXSXSXSXSXSXSXSXSXSXSXSXSXSXSXSXt t t t y SXSX8 8 % % = a p i m ) ( - 3 3 SXSXSXSXSXt t t SXSXSXSXSXSXSXSXSXSXSXSXSXSXSXSXSXSXSXSXSXSXSXSXSXSXSXSXSXSX",
"SXSXSXSXSXSXSXSXSXSXSXSXSXSXSXSXSXSXSXSXSXt G t i p p r = & & o & 8 y t M M M B 4 3 # $ SXSXSXt t t SXSXSXSXSXSXSXSXSXSXSXSXSXSXSXSXSXSXSXSXSXSXSXSXSXSXSXSXSXSX",
"SXSXSXSXSXSXSXSXSXSXSXSXSXSXSXSXSXSXSXSXSXSXt i K J p r s & O   # & s r Y %.V V D , M ( SXSXi t e 2 SXSXSXSXSXSXSXSXSXSXSXSXSXSXSXSXSXSXSXSXSXSXSXSXSXSXSXSXSXSX",
"SXSXSXSXSXSXSXSXSXSXSXSXSXSX3 6 5 5 0 SXSXSX8 0 u h u 8 7 o - m M m : r L =.&.Y G I _ ' m SXp t i i SXSXSXSX3 4 SXSXSXSXSXSXSXSXSXSXSXSXSXSXSXSXSXSXSXSXSXSXSXSX",
"SXSXSXSXSXSXSXSXSXSXSXSXSXSX3 3 3 5 0 0 SXSX9 9 0 u u 8 8 o % m M V _ H t T V B c =.&.&.G 8 J J z.u 5 SXz k = > 6 SXSXSXSXSXSXSXSXSXSXSXSXSXSXSXSXSXSXSXSXSXSXSX",
"SXSXSXSXSXSXSXSXSXSXSXSXSXSXSX3 9 9 3 9 9 SX3 4 u l.J s & & & , M M V &.c : z v S T b.T J y y i J 8 0 K B ( j 4 q SXSXSXSXSXSXSXSXSXSXSXSXSXSXSXSXSXSXSXSXSXSXSX",
"SXSXSXSXSXSXSXSXSXSXSXSXSXSXSX3 0 9 3 3 + o w t i p r : j e u SXH U I I B v 1 8.R.^ l.z.h 0 & s y 8 p K M ( M 4 d SXSXSXSXX SXSXSXSXSXSXSXSXSXSXSXSXSXSXSXSXSXSX",
"SXSXSXSXSXSXSXSXSXSXSXSXSXSXSXSXSX5 d 3 . j x < t w v ( ( H x.f f ~ L E v j n E.'.R.2 y G z ; = 3 r u H _ M V 3 SXSXm m m * 4 t SXSXSXSXSXSXSXSXSXSXSXSXSXSXSXSX",
"SXSXSXSXSXSXSXSXSXSXSXSXSXSXSXSXSXSXy 3 # ( ) B r z ' M ' U x.0 q h i e , ; [ '.R.W.Q H ;.T.U.q.s 7 8 G V V B & SX( M ) ) - = t t SXSXSXM M # SXSXSXSXSXSXSXSXSX",
"SXSXSXSXSXSXSXSXSXSXSXSXSXSXSXSXSXt t t j _ _ V % c V M ( U p 4 < I V C j - S '.E.'.4.c.~.].].E.b : o > Y V U & &.&.M } ) V : = t t SX( ( ) j SXSXSXSXSXSXSXSXSX",
"SXSXSXSXSXSXSXSXSXSXSXSXDXDXDXDX8 t t w < V Y -.> Y &.&.V P < m %.V o.U.8.n Z `.[.rX5.W [.[.'.I.b V < = c B z : &.Y _ ` ( &.B 8 K c ` *.M ( j SXSXSXSXSXSXSXSXSX",
"SXSXSXSXSXSXSXSXSXSXSXSXDXDXDX3 0 t 4 ; x C U b.t V *.>.H r m ( ( V 0.&X[.W.A I.'.3X4.u.[.[.[.3.v C x : l x z v B Y F B &.V Y > i =.' M _ _ ; SXSXSXSXSXSXSXSXSX",
"SXSXSXSXSXSXSXSXSXSXSXt r * > 3 3 : x ( ( C z H z c ( M.` _ ) } ) ` $.'.[.3X0X7.W.R.e.'.`.[.5.H =.C M m ; ; k M ' m < , N V _ < G *.N M ` v = SXSXSXSXSXSXSXSXSX",
"SXSXSXSXSXSXSXSXSXSXSXt w k ( l k ( ..' ' Y < : - , ( F.F. ._ ) ( }  .K.'.[.9Xu.q.q.q.E.E.e.2 t T ) B. .; j )  .M.B.C.` ( V B < , j C _ F t t G SXSXSXSXSXSXSXSX",
"SXSXSXSXSXSXSXSXSXSXSXt = M ) ' M ) ..` ' B < * : - ' B.F.B._ V M B.F.B.V 3.Q.9.Q <.9.9.4.a.[ W ^ Z.G.G.M $ ) G.F.G.C...( x j - - ; v < t t t t SXSXSXSXSXSXSXSX",
"SXSXSXSXSXSXSXSXSXSXSXi > V &.&.U V *.*.` j $ - ; - ( F.B.G.B i  .B.N.V.z D ] { A A <.6.'.dX9X4X[.[.(.Z._ r  .F.B.F.X.V B l - $ - ; , < P c c l - SXSXSXSXSXSXSX",
"SXSXSXSXSXSXSXSXSXSXSXK p H &.=.c.c %.>.Y l k M ( M m M.F.G.I B @XL.|.$Xd.j.r.8.3.Q ! 9.aXbXdX^.[.'.'. X^.Q.L.F.B. .F H z - # # # ; k B I V N M ( k   SXSXSXSXSX",
"SXSXSXSXSXSXt t t i SXJ K J z T T B V ' ( | N. .) ' Y O.J.F.| M.H.|.nXvXuXqXXX5.g./ 2.9.pXMXCXwX].'.aXbXbXsXK.@XF.Y T b.T ;   # # $ , c Y &.V N ( M SXSXSXSXSXSX",
"SXSXSXSXSXSXSXG p p e D a r 4 l k k m } B.F.F.@XF.*. XpX<X%X . .A.hXnXdXwX Xi.}.aXaXrXu.(.nXnXfX[.gXMXbXvXpXS.V.` ` X.:.V - % - j j , < L T B B M SXSXSXSXSXSXSX",
"SXSXSXSXSXSXSXp u l M %.k.~ > j k m k } F.B.F.F.F.,.pXsXbXVX/. .T.vXMXsXE.r.7.eXMXdXmXmX XsXnX:X|.MXdXvXnX-X| }  .G.G.F.M.m G T C k C Y G s r i t SXSXSXSXSXSXSX",
"SXSXSXSXSXSXSXSX* M ( %.=.T z k k m k m M.B.G.F./.t.{.nXnXvXsXO.t.bXVX%Xr.yXbXmXMXbXMXCXgXeXsX*X*XpXbXvXeX'.$.B.F.G.G.M.B.M.>.d.*.' &.&.&.v = r t e SXSXSXSXSXSX",
"SXSXSXSXSXSXSXSXSXSXM V U z ; - j k j j m  .B.K.&X'.r.*XbXvXvX&X~.dX<X1XnXCXbXbXwXe.<XmXbXeXwX*X*X-X].'.'.`.I.| G.G.G.F.} U =.:.:.%.*.V M M j * r 6 5 3 SXSXSXSX",
"SXSXSXSXSXSXSXSXSXSX& < z j l 1 ; m x k x Y %.+.`.E.E.A |.vXeXeX;XeX XpXnXMXbXeX^.r.OXcXfX5X4X'.wX[.E. X3X3XR.H ` ` ' N c c ' | | _ H V M ( M m x j X 3 SXSXSXSX",
"SXSXSXSXSXSXi J p 8 : N *.` V l v C I V V ) ` T.E.W.'.w.] U.[.wX{.Y. X*X[.eX'.W.aXbXCXBXgXwX3X^.3XaXvXnXbXbXtX^ r F V { [ ;.M } ( &.r z ( } ) M ( m X SXSXSXSXSX",
"SXSXSXSXSXG J J h t M ' ..:._ %.B I [ o.+.| ` $. X4XeXfXdXdXpX3XQ.~.].rXaXbXpXpXMXmXbX,X&X[.eXwXeXuXpXbXMXnXnXeXd.w.`.'.E.W.<.x B B : Y *.M M N M k O SXSXSXSXSX",
"SXSXSXSXSXG H K u x ( M ` *._ *.*.@.U.'.E.`.t...~.gXnXMXMXnXdXwXXX{.&XxXBXCXbXMXnXbX_.J.K.>XjXiXaXmX5XR.eXpX[.).:X].[.'.E.`.Q < l ; - k B M V ` M # SXSXSXSXSXSX",
"SXSXSXSXSXt i t = m ( M B b B @.` ' 0.E.E.'.[.~.OXvXbXnXdXlXaXaXrX:X$XK._.pXpXnXnXMXr._ O.mXZXeXvXCXMX^.y.y.[ U.*X'.E.'.'.q.G - - - - ; C V V c SXSXSXSXSXSXSXSX",
"SXSXSXSXSXSXSXt e b U T p y > V _ ' m Q E.'.[.[.E.~.[.R.XXcXMXhXzXAXsX,X/.] $.bXnXgX;.{ ;XCXCXuXnXCXCXaXi.2.9.q.R.].[.[.E.W = $ : $ - j < e e w 3 SXSXSXSXSXSXSX",
"SXSXSXSXSXSXSXe K K p ~ r 8 < M ) ( ; - n 2.E.`.R.9.! Q 5XnXCX<X7XNXmXMXMX<XO.=XmXwXh.<XCXCXfX0XMXMXMXbXu.E.eXwXu.U.T.{ H e : = > * ; ; < < t y 0 5 SXSXSXSXSXSX",
"SXSXSXSXSXSXSX4 i p p y > z B ' ) m - - - - b Q 9.2.W f.dXdXnX-X4XbXjXgXnXMX<X`.eX;X-XVXCXjX7X^.bXMXCXmXeXdXbXtXp.} ' < 4 8 t 2 : : 1 x B Y B e 8 3 3 SXSXSXSXSX",
"SXSXSXSXSXSXSX6 t G t > V _ V M ( k - ; v S { 9.q.2.W g.dXmXbXlX6XgXnX5XXXyXdX*X}. XaXkX9XzXfX_.,XMXmXwXmXnXMX4Xy.0.E s 3 u c.F ; z 1 v Y &.V M j % 3 SXSXSXSXSX",
"SXSXSXSXSXSXSXSXw t 4 k M m m V *.V l 8.`.[.'.R.9.2.<.f.iXiX XoX7X5XMXbXNXgXaX^.Q.^.iXpXZXCXCXAX<XvXaXiXbXnXtX!.'.[.E.5.P s.b.U ; x c > P &.V M ( k o SXSXSXSXSX",
"SXSXSXSXSXSXSXSXu y = M ( M _ M v ( P.[.[.E.E.'.q.<.9.9.y.E.`.U.d.wXMXbXMXgXfX5Xj.yXiXgXCXVXMXNXyXpXeXdXdXtXr.+.&X&X'.W.u.;.&.Y > I &.H 8 z.R N ( x # SXSXSXSXSX",
"SXSXSXSXSXSX4 p ~ p u l m m v e = ] `.`.'.'.[.rXe.[ E.W.9.`.[.*X^.XXrXyXXX7XAXyXp.xXZX|.|.kX9X7X8X}.3X3X4X3XaX/.%X].'.W.'.8.V , > %.%.%.> g ~ K P > SXSXSXSXSXSX",
"SXSXSXSX6 3 w P K p l.q a > s y = 1.'.`.[.[.U.#.| _.].'.t.T.yX[.eXuXj.s.h.nXCX9X#.:XCXsXK.+X2X7X4X4X}.3XwXbXZXnXvXeX^.u.y.6.z   = V M M j 7 p p p SXSXSXSXSXSXSX",
"SXSXSXSX3 6 w G i p 0 p < M < y y b 1.I.q.6.Z  .F.$X&X[.E.S.&X^.gXMXhXd.{.CXjXlX=XA.yXuXkXVXBXgX5X^.'.*XpXvXbXmXbXdXeXp.Z B C $ & c M ( k SXSXSXSXSXSXSXSXSXSXSX",
"SXSXSXSXSX3 5 w SXSXSXp l ' M z K i a B ' M C  .F.$XwXaXsX,X,X~.fXCXZX}.Q.0XqXgX=X+.d.m.lXMXmX;XeX[.eX-X{.eXmXMXmXaX5Xs.( ) ) j o # m ( ; + SXSXSXSXSXSXSXSXSXSX",
"SXSXSXSXSXDXDXDXSXSXp > k M M _ V _ Y B M x , k M.).XXuXbXdXnXhXOXgXAX3X XuXAXyX`.].E.a.oXOXh.:XsX XeXsX].y.'.4X!.h.R I ' ) ( m o & * k l E J SXSXSXSXSXSXSXSXSX",
"SXSXSXSXSXSXSXSXSX8 i 8 j _ M ` } ' ) | _ < $ = c Z.^.XXyXdXVXVXpX*XeX3XwXjXzXQ.pXdXhXu.,.2X>XnXCX~.=XnXaXP.).9.U _ _ %._ _ V B X r v M ( m 8 t SXSXSXSXSXSXSXSX",
"SXSXSXSXSXSXSXSXx D D t > &.*.&._ ` ..| ) C k , : v 0.4.~ j. XyXpX;X~.}.4XwXdXmXCXmXMXvX%X1XvXbXbX#./.nXvX$XJ.N.M.F.X.c z _ &.U & T _ M ( k = t SXSXSXSXSXSXSXSX",
"SXSXSXSXSXSXSXM ( M V U > G &.V l &.:.N.F.G.G.B. .) ) N B A Y.|.yX Xr.!.3XiXaXmXMXbXbX;XH.#XvXvX[._ Z.sXvX-XN.B.G.F.B.} H Y I < w -.&.N M $ = t SXSXSXSXSXSXSXSX",
"SXSXSXSXSXSXSX; ( M _ *.&.- k x , Y V.B.B.F.B.B.M. .) O.*XsXnXnXdX*X*X'.wXaXiX6X8X6Xf.&...(.bXaXXXO. .).sX;XV.F.F.B.F.B.V x x : c &.&.V : . SXSXSXSXSXSXSXSXSXSX",
"SXSXSXSXSXSXSXSX; N _ %.I B ; , - C B.F.B.G.B.F.B.} ] =XbXbXbXgX3XrXeXwX5XdXmXaXW.! a ! R.[.9XXXW.[ } N.h.a._ B.G.F.B.} k j ; - c x z = SXSXSXSXSXSXSXSXSXSXSXSX",
"SXSXSXSXSXSXSXSXSXSX; c x v ; # # : c  .B.G.B.V.N.V p.|.*X;X{.~.W.hXdXdX6XuXMXMXbXR.Q y.qXkX}.`.e.] B.F.' z 4 F _ _ B , - - # $ ; , c Y ( SXSXSXSXSXSXSXSXSXSXSX",
"SXSXSXSXSXSXSXSXSXSX8 = : , ; * # = : U Y Y Z V B *.C.:.:...M.Z.{.nXbXZX'.f.tXMXbXaX2.9.Y..XD.] B B.G.F.M.B 5 z.T V m k j ; $ - , H =.&.( ( ; SXSXSXSXSXSXSXSXSX",
"SXSXSXSXSXSXSXSXSXSXU B v j - - * * - U n.&.V )  .G.G.B.| M.B.B.-XnXbXnXK.8.f.8X5X3Xq.I.`.].$XP.] M.F.F.M.B 5 x.R *.' m k ; $ * < L c.&.M k   DXSXSXSXSXSXSXSXSX",
"SXSXSXSXSXSXSXSX` ` _ _ x ; ; ; ; ; z c < = * j M.G.F.F.&.H.J.H.sXdXbXdX].E.9.! / f.y.I.[.*X3X'.'.Z.B.F.M.c e Y &._ V B k ; $ : SXSX0 w : X DXDXSXSXSXSXSXSXSXSX",
"SXSXSXSXSXSXSXm _ _ M M %.C : k v l B B I < o - F.G.G.M.B V.G.X.|.vXbXeX[.E.R.<.Q E.`.8.~.rXW.R.'.E.@.F. .k N _ Y V C c x c < U c SXSXSXDX3 DXDXSXSXSXSXSXSXSXSX",
"SXSXSXSXSXSXSXM ( M ` ' -.SX1 V V l z -.I _ B B M.B.F.` 4 ( B. .h.:XtX^.R.W.5X~ ^ [.`.R.A t.R.'.'.'.3.' ( k ( M _ B $ F _ B D b.&.V SXSXDXDXDXDXSXSXSXSXSXSXSXSX",
"SXSXSXSXSXSX$ ( ) ( _ m SXr P %.V B = Y N M N _ B.F. .T J v B.B.X.j.!.E.3XW.7.g / [.'.wXw.U E w.5.3.2 > * - k k ; & e d.&.Y w v.%.] x SXDXDXDXDXSXSXSXSXSXSXSXSX",
"SXSXSXSXSXSXSX$ ; j SXSXt r z _ &.V 4 > C M ( ( } _ U c.H , m M.B.U.E.'.3Xy.P L E W.[.'.R.E H U v.R = 3 & o   O . = C _ %.I > I ` | x SXSXSXSXSXSXSXSXSXSXSXSXSX",
"SXSXSXSXSXSXSXSXSXSXSXSXt > z %.V _ K u r k m m m B =.Y z , : l ' I.'.E.9.n Y ' V r.[.E.E.b l c T K > r i B B ; = w V M N B = G ( ) ; SXSXSXSXSXSXSXSXSXSXSXSXSX",
"SXSXSXSXSXSXSXSXSXSXSXr G r : ( ) M G p u 3 3 3 - j z < l v z < , n n A Z m ) ) ) @.~.'.9.a , 1 < > G H &.&.' ) z w N M _ v & t z k   SXSXSXSXSXSXSXSXSXSXSXSXSX",
"SXSXSXSXSXSXSXSXSXSXSXSXSXSXSXk ( v t G i 0 d 0 + + & U V B < v x 1 o : B ' } } ) ' *.e.b > $ = = > c R =._ ' m # y x ( k   SXSXSXSXSXSXSXSXSXSXSXSXSXSXSXSXSXSX",
"SXSXSXSXSXSXSXSXSXSXSXSXSXSXSXSXSXSXt t 6 d 6 5 + 3 x V &.Y 4 B I I = 8 w z x m N N V B k , - = > > < L L < r = = p G - O o SXSXSXSXSXSXSXSXSXSXSXSXSXSXSXSXSXSX",
"SXSXSXSXSXSXSXSXSXSXSXSXSXSXSXSXSXSXSX3 6 6 0 d 5 , M M %.H t Y V _ z 8 u r > y r = = & # ; - - $ ; c b F F D i r p p 3 9 0 9 5 5 SXSXSXSXSXSXSXSXSXSXSXSXSXSXSX",
"SXSXSXSXSXSXSXSXSXSXSXSXSXSXSXSXSXSXSXSX3 6 d g d l M M m t t I V V H p t y i x.K t & : v j - - , j l V %.&._ _ H t K 4 5 0 5 5 5 3 SXSXSXSXSXSXSXSXSXSXSXSXSXSX",
"SXSXSXSXSXSXSXSXSXSXSXSXSXSXSXSXSXSXSXSX6 0 6 0 7 k ( k : t y x ( M B l.~ q 8 r i t b V M j ; $ v B z Y -.V M N M < t y d 9 0 5 3 SXSXSXSXSXSXSXSXSXSXSXSXSXSXSX",
"SXSXSXSXSXSXSXSXSXSXSXSXSXSXSXSXSXSXSX3 6 0 q 0 SX- $ & e t t : M ( F K i i i p t Y _ M C &., * V V B t H M M ( ( v e SXSXSXSXSXSXSXSXSXSXSXSXSXSXSXSXSXSXSXSXSX",
"SXSXSXSXSXSXSXSXSXSXSXSXSXSXSXSXSXSXSXSXDX5 5 DXSXSXSXq a r r 3 * j > t t K p p c _ V M V Y & r &.V %.F + % , , - # 0 SXSXSXSXSXSXSXSXSXSXSXSXSXSXSXSXSXSXSXSXSX",
"SXSXSXSXSXSXSXSXSXSXSXSXSXSXSXSXSXSXSXSXDXDXDXDXSXSXd 0 0 0 SX0 3 X w t G t K p B M M _ V - o r U _ _ V 0 + SX. + + 9 0 SXSXSXSXSXSXSXSXSXSXSXSXSXSXSXSXSXSXSXSX",
"SXSXSXSXSXSXSXSXSXSXSXSXSXSXSXSXSXSXSXSXDXDXDXDXSXSX0 5 0 5 SX9 6 3 4 t G t p p B ) ( m - & SXSXH _ M V < 8 SXSX9 5 3 0 5 SXSXSXSXSXSXSXSXSXSXSXSXSXSXSXSXSXSXSX",
"SXSXSXSXSXSXSXSXSXSXSXSXSXSXSXSXSXSXSXSXSXSXSXSXSXSX3 5 3 SXSXSX3 5 4 w SXSXSXSXSX; ; = & i i SXSXx ( m = r SXSX0 0 3 0 5 SXSXSXSXSXSXSXSXSXSXSXSXSXSXSXSXSXSXSX",
"SXSXSXSXSXSXSXSXSXSXSXSXSXSXSXSXSXSXSXSXSXSXSXSXSXSXSX3 SXSXSXSXSXSX6 3 SXSXSXSXSXSX8 8 e K p SXSX& ; ; > t SXSXSX0 5 3 3 3 SXSXSXSXSXSXSXSXSXSXSXSXSXSXSXSXSXSX",
"SXSXSXSXSXSXSXSXSXSXSXSXSXSXSXSXSXSXSXSXSXSXSXSXSXSXSXSXSXSXSXSXSXSXSXSXSXSXSXSXSXSXp ~ u K p SXSX3 & X 4 SXSXSXSX5 5 5 6 SXSXSXSXSXSXSXSXSXSXSXSXSXSXSXSXSXSXSX",
"SXSXSXSXSXSXSXSXSXSXSXSXSXSXSXSXSXSXSXSXSXSXSXSXSXSXSXSXSXSXSXSXSXSXSXSXSXSXSXSXSXSXt t t i t SXSXSX3 SXSXSXSXSXSXSXSX3 3 SXSXSXSXSXSXSXSXSXSXSXSXSXSXSXSXSXSXSX",
"SXSXSXSXSXSXSXSXSXSXSXSXSXSXSXSXSXSXSXSXSXSXSXSXSXSXSXSXSXSXSXSXSXSXSXSXSXSXSXSXSXSXt t G t SXSXSXSXSXSXSXSXSXSXSXSXSXSXSXSXSXSXSXSXSXSXSXSXSXSXSXSXSXSXSXSXSXSX",
"SXSXSXSXSXSXSXSXSXSXSXSXSXSXSXSXSXSXSXSXSXSXSXSXSXSXSXSXSXSXSXSXSXSXSXSXSXSXSXSXSXSXSXt t SXSXSXSXSXSXSXSXSXSXSXSXSXSXSXSXSXSXSXSXSXSXSXSXSXSXSXSXSXSXSXSXSXSXSX",
"SXSXSXSXSXSXSXSXSXSXSXSXSXSXSXSXSXSXSXSXSXSXSXSXSXSXSXSXSXSXSXSXSXSXSXSXSXSXSXSXSXSXSXSXSXSXSXSXSXSXSXSXSXSXSXSXSXSXSXSXSXSXSXSXSXSXSXSXSXSXSXSXSXSXSXSXSXSXSXSX",
"SXSXSXSXSXSXSXSXSXSXSXSXSXSXSXSXSXSXSXSXSXSXSXSXSXSXSXSXSXSXSXSXSXSXSXSXSXSXSXSXSXSXSXSXSXSXSXSXSXSXSXSXSXSXSXSXSXSXSXSXSXSXSXSXSXSXSXSXSXSXSXSXSXSXSXSXSXSXSXSX"
};
