/* XPM */
static char *_627_3bc7df5f4e4d15ecda3fc0c0239b96895dfc3c81b17a487f21eb624cb480b10c[] = {
/* columns rows colors chars-per-pixel */
"80 80 76 1 ",
"  c #2E2C2C",
". c #312E2E",
"X c #353333",
"o c #393636",
"O c #3C3939",
"+ c #413E3E",
"@ c #43403F",
"# c #433F40",
"$ c #454242",
"% c #494545",
"& c #4D4949",
"* c #514E4E",
"= c #53504F",
"- c #565252",
"; c #595655",
": c #5B5857",
"> c #5D5A59",
", c #615D5D",
"< c #656161",
"1 c #696464",
"2 c #6B6867",
"3 c #6D6A6A",
"4 c #726E6D",
"5 c #73706F",
"6 c #767272",
"7 c #7A7575",
"8 c #7B7877",
"9 c #7E7A79",
"0 c #827D7C",
"q c #85807F",
"w c #868181",
"e c #8A8685",
"r c #8C8887",
"t c #8D8989",
"y c #928D8C",
"u c #94908F",
"i c #969291",
"p c #9A9595",
"a c #9C9897",
"s c #9D9999",
"d c #A29E9D",
"f c #A5A09F",
"g c #A7A2A1",
"h c #AAA5A4",
"j c #ADA8A7",
"k c #AEAAA9",
"l c #B1ADAC",
"z c #B4B0AF",
"x c #B6B2B1",
"c c #B9B5B4",
"v c #BCB8B7",
"b c #BEBAB9",
"n c #C1BDBC",
"m c #C4C0BF",
"M c #C6C2C1",
"N c #C9C5C4",
"B c #CDC8C6",
"V c #CECAC9",
"C c #D1CDCB",
"Z c #D5D0CE",
"A c #D7D3D1",
"S c #D9D5D3",
"D c #DCD8D6",
"F c #DFDAD8",
"G c #E2DDDB",
"H c #E5E0DE",
"J c #E5E3E2",
"K c #EBE5E3",
"L c #EFE9E7",
"P c #ECECEC",
"I c #F0E9E7",
"U c #F1EAE8",
"Y c #F6F0EE",
"T c #F5F5F5",
"R c #FDFDFD",
"E c None",
/* pixels */
"EEEEEEEEEEEEEEEEEEEEEEEEEEEEEEEEEEEEEEEEEEEEEEEEEEEEEEEEEEEEEEEEEEEEEEEEEEEEEEEE",
"EEEEEEEEEEEEEEEEEEEEEEEEEEEEEEEEEEEEEEEEEEEEEEEEEEEEEEEEEEEEEEEEEEEEEEEEEEEEEEEE",
"EEEEEEEEEEEEEEEEEEEEEEEEEEEEEEEEEEEEEEEEEEEEEEEEEEEEEEEEEEEEEEEEEEEEEEEEEEEEEEEE",
"EEEEEEEEEEEEEEEEEEEEEEoO$$EEEEEEEEEEEEEEEEEEEEEEEEEE+$$OOEEEEEEEEEEEEEEEEEEEEEEE",
"EEEEEEEEEEEEEEEEEEEEEOO-97*EEEEEEEEEEEEEEEEEEEEEEEEO,07%ooEEEEEEEEEEEEEEEEEEEEEE",
"EEEEEEEEEEEEEEEEEEEEEO-wlNd3oEEEEEEEEEEEEEEEEEEEEE+9lmd6&oEEEEEEEEEEEEEEEEEEEEEE",
"EEEEEEEEEEEEEEEEEEEEEO1pMKG0.EEEEEEEEEEEEEEEEEEEEEOjIHxr-XEEEEEEEEEEEEEEEEEEEEEE",
"EEEEEEEEEEEEEEEEEEEEEO1inKYj;EEEEEEEEEEEEEEEEEEEEE1CUGxr-XEEEEEEEEEEEEEEEEEEEEEE",
"EEEEEEEEEEEEEEEEEEEEEO1inKULb&EEEEEEEEEEEEEEEEEEE1DIUGlr-XEEEEEEEEEEEEEEEEEEEEEE",
"EEEEEEEEEEEEEEEEEEEEEO1inKUUGj;EEEEEEEEEEEEEEEE.6nKUUGlr-XEEEEEEEEEEEEEEEEEEEEEE",
"EEEEEEEEEEEEEEEEEEEEEo1pnKLLLGy;EEEEEEEEEEEEEEE1jKKUUGxt-XEEEEEEEEEEEEEEEEEEEEEE",
"EEEEEEEEEEEEEEEEEEEEEO>wxGLLULZr*EEEEEEEEEEEEE>gGIIIIAg7*EEEEEEEEEEEEEEEEEEEEEEE",
"EEEEEEEEEEEEEEEEEEEEEEO-yCKKLLLCy$EEEEEEEEEEE-jGIUUIHb7%EEEEEEEEEEEEEEEEEEEEEEEE",
"EEEEEEEEEEEEEEEEEEEEEEEO>zGULLUZd4$EEEEEEEEX*0lGUKKUAp&EEEEEEEEEEEEEEEEEEEEEEEEE",
"EEEEEEEEEEEEEEEEEEEEEEEE%yCKILUGMd1%EEEEEEo*6jCKUUUKb7OEEEEEEEEEEEEEEEEEEEEEEEEE",
"EEEEEEEEEEEEEEEEEEEEEEEE#0xDKIUUHnp2%EEEEE*7hNIUIKJCg1OEEEEEEEEEEEEEEEEEEEEEEEEE",
"EEEEEEEEEEEEEEEEEEEEEEEE$6dnGKIUHZnd3++++%0gMFKLUKAvi<OEEEEEEEEEEEEEEEEEEEEEEEEE",
"EEEEEEEEEEEEEEEEEEEEEEEEE%6lFIIIIGnxd66649hlBKULIKCp,$EEEEEEEEEEEEEEEEEEEEEEEEEE",
"EEEEEEEEEEEEEEEEEEEEEEEEEE*6lFKUIIGnkdw0tgxCGULUKCd1$EEEEEEEEEEEEEEEEEEEEEEEEEEE",
"EEEEEEEEEEEEEEEEEEEEEEEEEE.-yNGKIIKNxzpydccALUIKFc0$EEEEEEEEEEEEEEEEEEEEEEEEEEEE",
"EEEEEEEEEEEEEEEEEEEEEEEEEEo-0lNGIIAnxxxxxxxNGIKFnd6%EEEEEEEEEEEEEEEEEEEEEEEEEEEE",
"EEEEEEEEEEEEEEEEEEEEEEEEEEEO*0lAIKnxcxxcxcxcCUKNd6$EEEEEEEEEEEEEEEEEEEEEEEEEEEEE",
"EEEEEEEEEEEEEEEEEEEEEEEEEEEE%7rvGNnzxxzxxxxxbBDgw3OEEEEEEEEEEEEEEEEEEEEEEEEEEEEE",
"EEEEEEEEEEEEEEEEEEEEEEEEEEEE*yilnzlnMVBVBBnvzcMfp0+EEEEEEEEEEEEEEEEEEEEEEEEEEEEE",
"EEEEEEEEEEEEEEEEEEEEEEEEEEEE-jcxzxnBGIILUKFNbxxxvp+EEEEEEEEEEEEEEEEEEEEEEEEEEEEE",
"EEEEEEEEEEEEEEEEEEEEEEEEEEEE-lccznGIIIKILLKLZxxxcp+EEEEEEEEEEEEEEEEEEEEEEEEEEEEE",
"EEEEEEEEEEEEEEEEEEEEEEEEEEEE-lcnVVHILLIILLUUGNBbcp+EEEEEEEEEEEEEEEEEEEEEEEEEEEEE",
"EEEEEEEEEEEEEEEEEEEEEEEEEEEE-lcMGGIILLIILLLLKGAncp+EEEEEEEEEEEEEEEEEEEEEEEEEEEEE",
"EEEEEEEEEEEEEEEEEEEEEEEEEEEE-lcNGLLLLLLLLLLLUKDncpOEEEEEEEEEEEEEEEEEEEEEEEEEEEEE",
"EEEEEEEEEEEEEEEEEEEEEEEEEEEE-jcCIILLLILLLLLLLLKMci$EEEEEEEEEEEEEEEEEEEEEEEEEEEEE",
"EEEEEEEEEEEEEEEEEEEEEEEEEEEE&rjCUULLLLLILLLLLULNg7OEEEEEEEEEEEEEEEEEEEEEEEEEEEEE",
"EEEEEEEEEEEEEEEEEEEEEEEEEEEE@,lCAHLILLLLLLLLKGCVy-EEEEEEEEEEEEEEEEEEEEEEEEEEEEEE",
"EEEEEEEEEEEEEEEEEEEEEEEEEEEEE+dbvVHKILILLLLKFNcn0XEEEEEEEEEEEEEEEEEEEEEEEEEEEEEE",
"EEEEEEEEEEEEEEEEEEEEEEEEEEEEEO3sxvVHUILLLILFNxly;oEEEEEEEEEEEEEEEEEEEEEEEEEEEEEE",
"EEEEEEEEEEEEEEEEEEEEEEEEEEEEEE$9vcvSULLLLLUNcxx<OEEEEEEEEEEEEEEEEEEEEEEEEEEEEEEE",
"EEEEEEEEEEEEEEEEEEEEEEEEEEEEEEX1aalAUILLLIINhpi*.EEEEEEEEEEEEEEEEEEEEEEEEEEEEEEE",
"EEEEEEEEEEEEEEEEEEEEEEEEEEEEEEo-<3pVYIUIIUIbw11%EEEEEEEEEEEEEEEEEEEEEEEEEEEEEEEE",
"EEEEEEEEEEEEEEEEEEEEEEEEEEEEEEEEo#6nKJKJHKKg,oOEEEEEEEEEEEEEEEEEEEEEEEEEEEEEEEEE",
"EEEEEEEEEEEEEEEEEEEEEEEEEEEEEEEEE#ivnnnnnbnx7OEEEEEEEEEEEEEEEEEEEEEEEEEEEEEEEEEE",
"EEEEEEEEEEEEEEEEEEEEEEEEEEEEEEE *tnBNNNMNNNCl7O.EEEEEEEEEEEEEEEEEEEEEEEEEEEEEEEE",
"EEEEEEEEEEEEEEEEEEEEEEEEEEEEEE23eMZSSASASASDCc74,EEEEEEEEEEEEEEEEEEEEEEEEEEEEEEE",
"EEEEEEEEEEEEEEEEEEEEEEEEEEEEE;xDAAAAAAAAAAAAAAADi&EEEEEEEEEEEEEEEEEEEEEEEEEEEEEE",
"EEEEEEEEEEEEEEEEEEEEEEEEEEEE>bZAAAAAAAAAAAAAAAAACg$EEEEEEEEEEEEEEEEEEEEEEEEEEEEE",
"EEEEEEEEEEEEEEEEEEEEEEEEEEE5lANBSAAASAAAAAAAAAAMBBd;EEEEEEEEEEEEEEEEEEEEEEEEEEEE",
"EEEEEEEEEEEEEEEEEEEEEEEEEE.9GAnbCZAAAAAAAAAAAZNvNDC;EEEEEEEEEEEEEEEEEEEEEEEEEEEE",
"EEEEEEEEEEEEEEEEEEEEEEEEEE*ySCzlnZAAAAAAAAAAACxlbAB6%EEEEEEEEEEEEEEEEEEEEEEEEEEE",
"EEEEEEEEEEEEEEEEEEEEEEEEEOdZBxtpnAAAAAAAAAAAACctpbAV9XEEEEEEEEEEEEEEEEEEEEEEEEEE",
"EEEEEEEEEEEEEEEEEEEEEEEEEOhZzy;0nAAAAAAAAAAADCx11abA0.EEEEEEEEEEEEEEEEEEEEEEEEEE",
"EEEEEEEEEEEEEEEEEEEEEEEE*wnBj0$6bMZASFFFDDAACMx;-yxCk6EEEEEEEEEEEEEEEEEEEEEEEEEE",
"EEEEEEEEEEEEEEEEEEEEEEEE-BAna4$7vcCSBkkkjxADNxl:&9hNDhOEEEEEEEEEEEEEEEEEEEEEEEEE",
"EEEEEEEEEEEEEEEEEEEEEEEE-NMd6+X8cvCAg&&&%,bANcl:X*0jChOEEEEEEEEEEEEEEEEEEEEEEEEE",
"EEEEEEEEEEEEEEEEEEEEEEEE-Nmp7EX7nVDt6mCAVz1kDBx: E0jVh@EEEEEEEEEEEEEEEEEEEEEEEEE",
"EEEEEEEEEEEEEEEEEEEEEEEE*Nma0E.0ZCuwxRRRRPdwhAm>EEwhChoEEEEEEEEEEEEEEEEEEEEEEEEE",
"EEEEEEEEEEEEEEEEEEEEEEE-8Bma0E.eFN=sRRRRRRP35DC,EE0hBx1EEEEEEEEEEEEEEEEEEEEEEEEE",
"EEEEEEEEEEEEEEEEEEEEEE.7ZZns0E+yFB-sTRRRRRP36DZ3oEehNSm-EEEEEEEEEEEEEEEEEEEEEEEE",
"EEEEEEEEEEEEEEEEEEEEEE.7DAnxi&sAPS;sTRPPTRP39LJN9-hxNFB-EEEEEEEEEEEEEEEEEEEEEEEE",
"EEEEEEEEEEEEEEEEEEEEEEX,gdap9%bKJC=sTTTTTTP37JGPy&ypsga&EEEEEEEEEEEEEEEEEEEEEEEE",
"EEEEEEEEEEEEEEEEEEEEEEo-00003%bHAV0tMPTTTJx9iZAJy$00007%EEEEEEEEEEEEEEEEEEEEEEEE",
"EEEEEEEEEEEEEEEEEEEEEEX-77671%lFAAAw8JPJPV,hDAADr$67666$EEEEEEEEEEEEEEEEEEEEEEEE",
"EEEEEEEEEEEEEEEEEEEEEEEE$#$$O$lDAAANbbnnbbbVAAADro@$$$$EEEEEEEEEEEEEEEEEEEEEEEEE",
"EEEEEEEEEEEEEEEEEEEEEEEEEEEEXOlDAAAVml5,wvMCAAADeXEEEEEEEEEEEEEEEEEEEEEEEEEEEEEE",
"EEEEEEEEEEEEEEEEEEEEEEEEEEEEE$xFAAAMg9+.=tlBAAAFeXEEEEEEEEEEEEEEEEEEEEEEEEEEEEEE",
"EEEEEEEEEEEEEEEEEEEEEEEEEEEEE$dVAAANtOooX&hCSAZN0XEEEEEEEEEEEEEEEEEEEEEEEEEEEEEE",
"EEEEEEEEEEEEEEEEEEEEEEEEEEEEEE$uDAANt+EEE&hVSAC4+EEEEEEEEEEEEEEEEEEEEEEEEEEEEEEE",
"EEEEEEEEEEEEEEEEEEEEEEEEEEEEEE.eDAANrOEEE&hVDAV, EEEEEEEEEEEEEEEEEEEEEEEEEEEEEEE",
"EEEEEEEEEEEEEEEEEEEEEEEEEEEEEEXeDAAMrOEEE&hCAAZ, EEEEEEEEEEEEEEEEEEEEEEEEEEEEEEE",
"EEEEEEEEEEEEEEEEEEEEEEEEEEEEEEXeDAANrOEEE&hVADZ< EEEEEEEEEEEEEEEEEEEEEEEEEEEEEEE",
"EEEEEEEEEEEEEEEEEEEEEEEEEEEEEEXeDAANrOEEE&hVASV, EEEEEEEEEEEEEEEEEEEEEEEEEEEEEEE",
"EEEEEEEEEEEEEEEEEEEEEEEEEEEEEEXeDAANtOEEE&hBDAZ<.EEEEEEEEEEEEEEEEEEEEEEEEEEEEEEE",
"EEEEEEEEEEEEEEEEEEEEEEEEEEEEEEXeFANnrOEEE&hmBDV, EEEEEEEEEEEEEEEEEEEEEEEEEEEEEEE",
"EEEEEEEEEEEEEEEEEEEEEEEEEEEEEEXeDCbctOEEE&hcMDV< EEEEEEEEEEEEEEEEEEEEEEEEEEEEEEE",
"EEEEEEEEEEEEEEEEEEEEEEEEEEEEEEXeFCbctOEEE&hcmAC< EEEEEEEEEEEEEEEEEEEEEEEEEEEEEEE",
"EEEEEEEEEEEEEEEEEEEEEEEEEEEEEEXeGCnvyOEEE&jcmDC< EEEEEEEEEEEEEEEEEEEEEEEEEEEEEEE",
"EEEEEEEEEEEEEEEEEEEEEEEEEEEEEEX9Nmdp6OEEE$ypjNn>XEEEEEEEEEEEEEEEEEEEEEEEEEEEEEEE",
"EEEEEEEEEEEEEEEEEEEEEEEEEEEEEEX8xdw02oEEE$70yjz:.EEEEEEEEEEEEEEEEEEEEEEEEEEEEEEE",
"EEEEEEEEEEEEEEEEEEEEEEEEEEEEEEX7d0791OEEE$577wf:EEEEEEEEEEEEEEEEEEEEEEEEEEEEEEEE",
"EEEEEEEEEEEEEEEEEEEEEEEEEEEEEEE&&%$$$EEEEE$$$%&EEEEEEEEEEEEEEEEEEEEEEEEEEEEEEEEE",
"EEEEEEEEEEEEEEEEEEEEEEEEEEEEEEEEEEEEEEEEEEEEEEEEEEEEEEEEEEEEEEEEEEEEEEEEEEEEEEEE",
"EEEEEEEEEEEEEEEEEEEEEEEEEEEEEEEEEEEEEEEEEEEEEEEEEEEEEEEEEEEEEEEEEEEEEEEEEEEEEEEE",
"EEEEEEEEEEEEEEEEEEEEEEEEEEEEEEEEEEEEEEEEEEEEEEEEEEEEEEEEEEEEEEEEEEEEEEEEEEEEEEEE"
};
