/* XPM */
static char *_230_1b47a8522273416b696fb2e1eb61944f3d095e8cd60fce07b0ea274e770542f3[] = {
/* columns rows colors chars-per-pixel */
"80 80 186 2 ",
"   c #010101",
".  c #0A0805",
"X  c #0C0C0B",
"o  c #060709",
"O  c #110F0D",
"+  c #11110E",
"@  c #1B1509",
"#  c #1F190E",
"$  c #0F0F10",
"%  c #141413",
"&  c #191915",
"*  c #1B1B1A",
"=  c #201F19",
"-  c #241E15",
";  c #272116",
":  c #2C2415",
">  c #23231E",
",  c #2D281C",
"<  c #382C16",
"1  c #1F1F20",
"2  c #242423",
"3  c #2B2B25",
"4  c #272728",
"5  c #2C2C2B",
"6  c #33332C",
"7  c #38382F",
"8  c #2E2E31",
"9  c #333333",
"0  c #3B3B33",
"q  c #3B3B3B",
"w  c #353538",
"e  c #473D28",
"r  c #4A402E",
"t  c #5C4927",
"y  c #55462B",
"u  c #5D4C2D",
"i  c #414137",
"p  c #44443B",
"a  c #49493E",
"s  c #48433A",
"d  c #544D38",
"f  c #53503F",
"g  c #614E2B",
"h  c #675737",
"j  c #3F3F40",
"k  c #444443",
"l  c #4C4C42",
"z  c #474748",
"x  c #4C4C4C",
"c  c #525245",
"v  c #55554B",
"b  c #5A5A4C",
"n  c #4F4F50",
"m  c #535353",
"M  c #5C5C53",
"N  c #575758",
"B  c #5B5B5B",
"V  c #615E4D",
"C  c #605F5E",
"Z  c #646455",
"A  c #686857",
"S  c #64645C",
"D  c #6C6C5C",
"F  c #696551",
"G  c #776F58",
"H  c #70705F",
"J  c #636363",
"K  c #6C6C64",
"L  c #676768",
"P  c #6B6B6B",
"I  c #6E7267",
"U  c #737362",
"Y  c #7A7967",
"T  c #74746B",
"R  c #7C7C6B",
"E  c #7F7665",
"W  c #747473",
"Q  c #7B7B74",
"!  c #777778",
"~  c #7C7C7C",
"^  c #886E3F",
"/  c #8C703E",
"(  c #846E44",
")  c #8D7240",
"_  c #9C7D46",
"`  c #977D4D",
"'  c #977943",
"]  c #8E7952",
"[  c #917F5D",
"{  c #837F7D",
"}  c #7F8275",
"|  c #9E8048",
" . c #9F865A",
".. c #9D8355",
"X. c #A5854C",
"o. c #A8884E",
"O. c #AB8D54",
"+. c #A2895C",
"@. c #81816E",
"#. c #8F826F",
"$. c #978665",
"%. c #858573",
"&. c #8A8A75",
"*. c #82827D",
"=. c #8D8D7A",
"-. c #8A8578",
";. c #928A75",
":. c #918A78",
">. c #93937D",
",. c #A28D61",
"<. c #A4956D",
"1. c #BCA572",
"2. c #B8A779",
"3. c #7F7E80",
"4. c #838382",
"5. c #8B8B84",
"6. c #878788",
"7. c #838C89",
"8. c #8D8D8B",
"9. c #888784",
"0. c #918F87",
"q. c #908F89",
"w. c #889C8D",
"e. c #949383",
"r. c #9B9B84",
"t. c #93938B",
"y. c #9C9C8C",
"u. c #8F9891",
"i. c #959592",
"p. c #9C9C94",
"a. c #9C9C9A",
"s. c #A19E91",
"d. c #9DA391",
"f. c #97AB9B",
"g. c #A0A087",
"h. c #A4A48A",
"j. c #A9A98F",
"k. c #AAAB86",
"l. c #B0AA8A",
"z. c #A3A393",
"x. c #ADAD93",
"c. c #A4A499",
"v. c #ACAC9B",
"b. c #A7AB9A",
"n. c #B3AF96",
"m. c #B1AF9A",
"M. c #ABB19D",
"N. c #B1B196",
"B. c #B4B49A",
"V. c #B9B79B",
"C. c #BABA9D",
"Z. c #8DB2AA",
"A. c #82B6B3",
"S. c #8DB8B3",
"D. c #AFAFA2",
"F. c #A4AAA0",
"G. c #A8B8A6",
"H. c #B4B4A2",
"J. c #BDBDA1",
"K. c #B7B9A5",
"L. c #C5BA94",
"P. c #C0BD9A",
"I. c #9BC7B6",
"U. c #AFC3AF",
"Y. c #B5C2A7",
"T. c #BBC2A7",
"R. c #ABCEBB",
"E. c #A7C9B5",
"W. c #B2C6B0",
"Q. c #C3C3A5",
"!. c #C6C6A8",
"~. c #CBCBAB",
"^. c #D0D0AF",
"/. c #D3D3B2",
"(. c #D8D8B6",
"). c #98D7CA",
"_. c #91DDD4",
"`. c #9FDFD1",
"'. c #A9DDCB",
"]. c #A7D2C1",
"[. c #86E2DF",
"{. c #97E4D9",
"}. c #A1E1D2",
"|. c #86E3E0",
" X c #92EFE7",
".X c None",
/* pixels */
".X.X.X.X.X.X.X.X.X.X.X.X.X.X.X.X.X.X.X          .X.X.X.X.X.X.X.X.X.X.X.X.X.X.X.X.X.X.X.X.X            .X.X.X.X.X.X.X.X.X.X.X.X.X.X.X.X.X.X.X.X.X.X.X.X.X.X.X.X.X",
".X.X.X.X.X.X.X.X.X.X.X.X.X.X.X.X.X.X.X    X + + .X.X.X.X.X.X.X.X.X.X.X.X.X.X.X.X.X.X.X.X.X+ + O .     .X.X.X.X.X.X.X.X.X.X.X.X.X.X.X.X.X.X.X.X.X.X.X.X.X.X.X.X.X",
".X.X.X.X.X.X.X.X.X.X.X.X.X.X.X.X.X.X.X  O 6 a a 2 .X.X.X.X.X.X.X.X.X.X.X.X.X.X.X.X.X.X.X% i a 7 *     .X.X.X.X.X.X.X.X.X.X.X.X.X.X.X.X.X.X.X.X.X.X.X.X.X.X.X.X.X",
".X.X.X.X.X.X.X.X.X.X.X.X.X.X.X.X.X.X.X  * b &.Y 7   .X.X.X.X.X.X.X.X.X.X.X.X.X.X.X.X.X  > Z >.H 6     .X.X.X.X.X.X.X.X.X.X.X.X.X.X.X.X.X.X.X.X.X.X.X.X.X.X.X.X.X",
".X.X.X.X.X.X.X.X.X.X.X.X.X.X.X.X.X.X.X  > Y B.>.b 3 & .X.X.X.X.X.X.X.X.X.X.X.X.X.X.X% > p &.B.;.0 .   .X.X.X.X.X.X.X.X.X.X.X.X.X.X.X.X.X.X.X.X.X.X.X.X.X.X.X.X.X",
".X.X.X.X.X.X.X.X.X.X.X.X.X.X.X.X.X.X.X  > G C.B.&.A a *                           . 7 A %.x.J.&.0 .   .X.X.X.X.X.X.X.X.X.X.X.X.X.X.X.X.X.X.X.X.X.X.X.X.X.X.X.X.X",
".X.X.X.X.X.X.X.X.X.X.X.X.X.X.X.X.X.X.X  > H B.~.Q.k.A >           o               & f >.B.~.Q.%.0 .   .X.X.X.X.X.X.X.X.X.X.X.X.X.X.X.X.X.X.X.X.X.X.X.X.X.X.X.X.X",
".X.X.X.X.X.X.X.X.X.X.X.X.X.X.X.X.X.X.X  > H B./.(.J.U >   X 2 4 4 2 * & & * 2 5 6 i V @.>.V.Q.&.7     .X.X.X.X.X.X.X.X.X.X.X.X.X.X.X.X.X.X.X.X.X.X.X.X.X.X.X.X.X",
".X.X.X.X.X.X.X.X.X.X.X.X.X.X.X.X.X.X.X  > D B.^.(.C.H = X 4 x B B m k 9 9 k m K Q @.Z a v >.V.&.0     .X.X.X.X.X.X.X.X.X.X.X.X.X.X.X.X.X.X.X.X.X.X.X.X.X.X.X.X.X",
".X.X.X.X.X.X.X.X.X.X.X.X.X.X.X.X.X.X.X  > D B.~.!.h.A 6 2 x W 3.4.! C z x B ! t.v.j.H 6 7 H g.&.p % . .X.X.X.X.X.X.X.X.X.X.X.X.X.X.X.X.X.X.X.X.X.X.X.X.X.X.X.X.X",
".X.X.X.X.X.X.X.X.X.X.X.X.X.X.X.X.X.X.X  > H V.B.=.D b b M T 4.6.6.3.J x x J 3.i.b.z.&.Z c b A A Z c 0 * .X.X.X.X.X.X.X.X.X.X.X.X.X.X.X.X.X.X.X.X.X.X.X.X.X.X.X.X",
".X.X.X.X.X.X.X.X.X.X.X.X.X.X.X.X.X.X.X  > U N.r.c 6 c &.r.t.4.3.4.~ J x x J ~ 6.8.e.y.y.&.c 7 a @.>.A >   .X.X.X.X.X.X.X.X.X.X.X.X.X.X.X.X.X.X.X.X.X.X.X.X.X.X.X",
".X.X.X.X.X.X.X.X.X.X.X.X.X.X.X.X.X.X& > 7 D >.Y a 6 Z g.B.p.9.3.3.~ L N m S W ! ! 4.p.B.y.b 2 0 Y >.A 7 & X .X.X.X.X.X.X.X.X.X.X.X.X.X.X.X.X.X.X.X.X.X.X.X.X.X.X",
".X.X.X.X.X.X.X.X.X.X.X.X.X.X.X.X.X+ i Z H Z b b Z H %.y.p.t.4.3.3.~ W L J B B J W 3.t.p.e.P x x c b v x j 4 X           .X.X.X.X.X.X.X.X.X.X.X.X.X.X.X.X.X.X.X.X",
".X.X.X.X.X.X.X.X.X.X.X.X.X.X.X.X  + c >.>.b > i } x.z.t.9.4.~ 4.3.*.{ ~ W B x N P 3.9.4.9.3.W m 5 * q J C w X             .X.X.X.X.X.X.X.X.X.X.X.X.X.X.X.X.X.X.X",
".X.X.X.X.X.X.X.X.X.X.X.X.X.X.X.X  % b h.k.c X 3 Y v.z.9.~ ~ 3.9.8.t.8.9.W m k m Q 0.0.4.3.9.3.N 1 X 9 L P q X . & 4 4 4 4 * .X.X.X.X.X.X.X.X.X.X.X.X.X.X.X.X.X.X",
".X.X.X.X.X.X.X.X.X.X.X.X.X.X.X.X  + b h.h.c + > S q.t.4.~ ~ } 8.z.x.s.6.W m k M =.b.p.9.3.4.3.N 2 X 9 L P 0 X & w N B B x 4 o .X.X.X.X.X.X.X.X.X.X.X.X.X.X.X.X.X",
".X.X.X.X.X.X.X.X.X.X.X.X.X.X.X.X  % b h.h.V > 5 C 4.7.9.4.4.5.u.H.Y.D.t.~ C m I d.K.M.u.9.9.~ N 2 $ q P P q $ 2 m ! 4.~ J q & o .X.X.X.X.X.X.X.X.X.X.X.X.X.X.X.X",
".X.X.X.X.X.X.X.X.X.X.X.X.X.X.X.X  % v h.V.%.b Z R q.t.t.t.y.p.G.].'.R.b.t.&.} w.I.'.R.b.p.q.~ m * X p } *.p % 2 B 3.4.W J n q 4 & .X.X.X.X.X.X.X.X.X.X.X.X.X.X.X",
".X.X.X.X.X.X.X.X.X.X.X.X.X.X.X.X  + c h.Q.x.e.>.y.z.j.h.x.n.K.R.{. X{.W.V.N.x.E.{. X}.W.m.p.4.m 1 % c e.e.c % 1 N ~ W J C J L x 2 . .X.X.X.X.X.X.X.X.X.X.X.X.X.X",
".X.X.X.X.X.X.X.X.X.X.X.X.X.X.X.X  + a &.h.N.N.N.N.x.N.N.B.V.T.R._.|.).Y.L.L.P.W._.[.).U.v.y.*.C w 6 A j.h.b % 2 B ~ W B B W ! N 4     .X.X.X.X.X.X.X.X.X.X.X.X.X",
".X.X.X.X.X.X.X.X.X.X.X.X.X.X.X.X.X.X6 a A &.x.V.B.N.N.x.B.V.J.G.S.A.f.k.1.1.2.j.Z.A.Z.f.p.8.4.T K D >.V.h.c & 2 C 4.! B B W ~ B 2     .X.X.X.X.X.X.X.X.X.X.X.X.X",
".X.X.X.X.X.X.X.X.X.X.X.X.X.X.X.X.X.X.X+ 5 A g.B.N.N.N.x.N.N.N.z.u.5.;.,.O.O.O.,.=.7.7.9.6.4.*.5.e.h.B.Q.g.c % 5 L 8.~ C B P ! N 5 .   .X.X.X.X.X.X.X.X.X.X.X.X.X",
".X.X.X.X.X.X.X.X.X.X.X.X.X.X.X.X.X.X.X  & v e.x.x.N.x.N.x.N.x.h.y.e.;.$...X.o.+.{ { 3.~ } 9.q.p.x.B.!.!.h.f % 3 P 8.3.J N J P B j 4 * .X.X.X.X.X.X.X.X.X.X.X.X.X",
".X.X.X.X.X.X.X.X.X.X.X.X.X.X.X.X.X.X.X  % x *.z.b.x.N.x.x.x.N.N.B.b.r.;.[ +.o.,.;.*.3.~ 9.t.z.x.N.B.Q.~.h.c % 4 P 8.3.C m N C C B m w &   .X.X.X.X.X.X.X.X.X.X.X",
".X.X.X.X.X.X.X.X.X.X.X.X.X.X.X.X.X.X.XX > z P =.s.x.N.N.N.x.N.V.Q.C.b.t.-.[ ` ] E W ! 4.9.e.r.h.j.N.V.B.>.c * 9 P u.3.C n n m J W W z *   .X.X.X.X.X.X.X.X.X.X.X",
".X.X.X.X.X.X.X.X.X.X.X.X.X.X.X.X.X.X> 7 0 q k J >.N.B.N.N.B.V.Q.!.Q.J.b.9.] h e p x K =.0.Y A R g.B.g.} V p w m 3.i.3.C n n n J ! ! z &   .X.X.X.X.X.X.X.X.X.X.X",
".X.X.X.X.X.X.X.X.X.X.X.X.X.X.X.X  X 7 M M 0 > i R x.B.N.N.V.Q.Q.!.Q.!.J.y.V , O $ > M &.=.b 5 c >.N.@.i 5 q N W 6.i.3.B n n n J ! ! z &   .X.X.X.X.X.X.X.X.X.X.X",
".X.X.X.X.X.X.X.X.X.X.X.X.X.X.X.X  X 0 U Y l 4 0 D =.h.x.C.Q.Q.!.~.~.~.~.g.v X   . ; f } } c 6 a } =.F 3 2 z P 4.6.4.W B n x n J W W z &     .X.X.X.X.X.X.X.X.X.X",
".X.X.X.X.X.X.X.X.X.X.X.X.X.X.X.X  X 0 U %.I N x l v R x.Q.!.!.~.~.~.^.~.g.l X . < t u a f F D D V f a p z J ! ~ ! W C N n n n J ! W x &       .X.X.X.X.X.X.X.X.X",
".X.X.X.X.X.X.X.X.X.X.X.X.X.X.X.X  X 7 H =.t.6.J 8 2 b j.~./.!.Q.Q.Q.~.!.h.c & : h / u : 3 D >.@.p > 8 m P ! ~ W J N m m n n m J W W x &         .X.X.X.X.X.X.X.X",
".X.X.X.X.X.X.X.X.X.X.X.X.X.X.X.X  X 7 D 5.s.p.L 2 + c j././.!.N.>.;.h.Q.j.G e t / | g @ % a } K a 4 8 x B W ~ W C n n n m n n J ! W z &         .X.X.X.X.X.X.X.X",
".X.X.X.X.X.X.X.X.X.X.X.X.X.X.X.X  X 0 D =.p.p.L 2 $ c j.(.(.!.>.V a U N.C.<.( / X._ g @   * 6 k v n j 4 w B ! ! J x x m m n m J ! W x &         .X.X.X.X.X.X.X.X",
".X.X.X.X.X.X.X.X.X.X.X.X.X.X.X.X  X 7 D 5.p.i.L 9 > c r.Q.^.Q.;.a 3 b >.l.<.| / _ / u ; X . % 9 C W z * & z P W J m x n m x m J ! W x &     X X .X.X.X.X.X.X.X.X",
".X.X.X.X.X.X.X.X.X.X.X.X.X.X.X.X  X 7 U >.y.8.Q N x c S @.h.C.h.H c b Z A h g g t y r 0 9 8 9 x W ! x % % w J J B n n m m n m S ! T x & . * 4 4 * .X.X.X.X.X.X.X",
".X.X.X.X.X.X.X.X.X.X.X.X.X.X.X.X  X 0 H =.=.=.=.*.W n 6 r } B.Q.B.>.A 7 = # # # @ - 0 N L L L W 3.W z % X 5 m B m m m m m x m J R Y a & $ 9 m z 2   .X.X.X.X.X.X",
".X.X.X.X.X.X.X.X.X.X.X.X.X.X.X.X  X 6 M Y } @.>.u.8.Z 5 7 U B.~.^.C.} e > * > > = 5 c W 9.8.9.9.~ L j % X 4 z N B M v z k z m J R R l & % k J m 2     .X.X.X.X.X",
".X.X.X.X.X.X.X.X.X.X.X.X.X.X.X.X.X.X> 6 a A @.>.r.5.R Z A ;.x.Q.~.Q.g.} A A D D A U } e.d.z.y.9.T m 8 $ X 5 z S K K x 5 4 9 x S } R c & % k L m 4     .X.X.X.X.X",
".X.X.X.X.X.X.X.X.X.X.X.X.X.X.X.X.X.X.XX > c R &.=.&.0.>.y.s.x.n.P.T.T.C.B.N.B.B.B.N.x.j.h.z.y.=.J k 2 X $ 5 x J R Y l > & 5 x K R Y l & % j J m 2     .X.X.X.X.X",
".X.X.X.X.X.X.X.X.X.X.X.X.X.X.X.X.X.X.X  + a } >.5.>.y.z.j.j.j.x.V.P.!.~.^./.^.~.!.Q.C.N.h.r.&.T S x 4 $ % w M S Z v p 5 6 l B S S v 6 & 1 z J m 2     .X.X.X.X.X",
".X.X.X.X.X.X.X.X.X.X.X.X.X.X.X.X.X.X.X  % a @.e.0.i.s.a.s.s.x.x.x.B.J.~.^.^.^.!.J.B.B.x.y.@.A S L J q & & l I A i 5 7 c A U Y S i 2 * % 3 x L n 1     .X.X.X.X.X",
".X.X.X.X.X.X.X.X.X.X.X.X.X.X.X.X.X.X.X  * p T &.i.i.a.s.a.c.s.j.j.x.N.N.B.B.B.N.N.j.j.g.=.K v N W W z * * a D b 6 * i H %.%.Y b 5 % + * 8 m L m 3 X   .X.X.X.X.X",
".X.X.X.X.X.X.X.X.X.X.X.X.X.X.X.X.X.X.X.X% 6 a S 3.a.F.F.D.s.s.c.B.N.>.} A A H @.h.B.g.%.U B B L ! W x * $ 3 p p 0 e C @.%.D c i 9 5 2 2 9 m L B q 2 & X .X.X.X.X",
".X.X.X.X.X.X.X.X.X.X.X.X.X.X.X.X.X.X.X.X.X+ * q W a.D.K.H.F.F.D.J.l.} i = & 3 v >.V.e.D N B W ! 4.W x *     & 6 c H } %.Y a 3 4 z m j 5 5 x L K m j 4 X   .X.X.X",
".X.X.X.X.X.X.X.X.X.X.X.X.X.X.X.X.X.X.X.X.X    5 L a.H.T.T.H.c.b.j.>.A 6 % X & j Y >.%.S S T 5.8.9.W z &   . & 0 A %.%.U M 7 1 5 B L m 5 5 x P P J x 4 $   .X.X.X",
".X.X.X.X.X.X.X.X.X.X.X.X.X.X.X.X.X.X.X.X.X    5 P s.K.!.!.T.H.e.U b l a a p k z c V A } >.d.z.z.t.W z % X > a Z %.%.H a 7 9 q m P P x 9 9 m ! W J x 4 X   .X.X.X",
".X.X.X.X.X.X.X.X.X.X.X.X.X.X.X.X.X.X.X.X.X    5 L i.H.J.!.~.C.&.p = 7 A R Q W m 4 2 b r.J.Q.J.v.i.! k % % i H %.&.R c > * q C W W L x 5 5 N ! ! J x 8 %   .X.X.X",
".X.X.X.X.X.X.X.X.X.X.X.X.X.X.X.X.X.X.X.X.X.X. 4 n P 9.s.J.!.Q.%.6 X 6 H =.u.} N 1 + f g.~.~.T.B.z.} z * % 7 Z D Z v 0 1 4 x W W J N j 5 9 m J L B n j 5 2 * .X.X",
".X.X.X.X.X.X.X.X.X.X.X.X.X.X.X.X.X.X.X.X.X.X.X& 4 w N *.s.K.J.&.7 X 6 H =.e.4.m * + c h.!.Q.B.x.b.=.v * o > w 7 5 2 3 6 k C ! P x q 8 .X.Xx m m m m B B x 5 X   ",
".X.X.X.X.X.X.X.X.X.X.X.X.X.X.X.X.X.X.X.X.X.X.X.X  X w K t.H.J.&.7 + 7 D =.9.~ N 2 % c g.Q.T.x.j.x.>.M * o $ 2 > & * 5 k N W ! J q 2 & .X.X.Xk k z x J P J 9 X   ",
".X.X.X.X.X.X.X.X.X.X.X.X.X.X.X.X.X.X.X.X.X.X.X.X  . 8 J 8.M.V.&.7 + 7 H =.5.~ N * % c k.!.J.j.j.h.5.b * o & 8 0 i p l x N W ! C 9 $ . .X.X.Xq 9 5 9 x L B 9 X   ",
".X.X.X.X.X.X.X.X.X.X.X.X.X.X.X.X.X.X.X.X.X.X.X.X  X w J t.B.C.&.0 + 6 K &.8.~ m 1 % c g.Q.J.j.d.y.! x & o 2 j S Y @.T N N W ! B 5 o   .X.X.X.X.X$ & 9 x x 4 o   ",
".X.X.X.X.X.X.X.X.X.X.X.X.X.X.X.X.X.X.X.X.X.X.X.X  X 9 P y.H.C.=.7 + 3 Z @.*.} B 9 3 c %.k.x.k.r.} J q * & 4 x K &.>.%.T L ! Q B 4     .X.X.X.X.X  . 1 w w * .   ",
".X.X.X.X.X.X.X.X.X.X.X.X.X.X.X.X.X.X.X.X.X.X.X.X  X q R z.Q.Q.=.0 O > l J W ~ W M c a c F &.x.r.C w 5 4 4 9 .XP Q %.*.>.e.8.~ N 4     .X.X.X.X.X.X.X& * * X     ",
".X.X.X.X.X.X.X.X.X.X.X.X.X.X.X.X.X.X.X.X.X.X.X.X  + p %.x.Q.C.&.0 X & w m P ~ *.%.H a > 6 } N.>.p & * 8 q .X.X.Xm S *.z.B.s.*.N 2     .X.X.X.X.X.X.X.Xo .       ",
".X.X.X.X.X.X.X.X.X.X.X.X.X.X.X.X.X.X.X.X.X.X.X.X  X p &.h.h.&.Z 5 X & 9 x T e.y.e.} a % = H N.&.7 . % 9 k .X.X.Xw z R B.J.b.9.N 4     .X.X.X.X.X.X.X.X          ",
".X.X.X.X.X.X.X.X.X.X.X.X.X.X.X.X.X.X.X.X.X.X.X.X  + a &.>.D a 3 .X.X4 q m %.j.M.g.} s % ; H x.>.0 o & 9 k .X.X.X1 9 D x.Q.v.5.N 2     .X.X.X.X.X.X.X.X.X.X.X.X.X",
".X.X.X.X.X.X.X.X.X.X.X.X.X.X.X.X.X.X.X.X.X.X.X.X  + a =.=.c %   .X.X.Xj b *.x.n.g.Y p % , H x.=.0 X % 9 k .X.X.XX 2 Z h.C.p.Q x 2     .X.X.X.X.X.X.X.X.X.X.X.X.X",
".X.X.X.X.X.X.X.X.X.X.X.X.X.X.X.X.X.X.X.X.X.X.X.X  + c >.>.a X   .X.X.X.XN Y &.>.=.} p & > H N.=.0 X X 4 .X.X.X.X  * v >.j.Q m w * . .X.X.X.X.X.X.X.X.X.X.X.X.X.X",
".X.X.X.X.X.X.X.X.X.X.X.X.X.X.X.X.X.X.X.X.X.X.X.X  + v g.r.b +   .X.X.X.X.Xm M J R R a % 2 U N.&.0 o   .X.X.X.X.X  % l =.>.b 2 % .X.X.X.X.X.X.X.X.X.X.X.X.X.X.X.X",
".X.X.X.X.X.X.X.X.X.X.X.X.X.X.X.X.X.X.X.X.X.X.X.X  % b g.g.b +   .X.X.X.X.Xw k N U R a & , H j.=.e .   .X.X.X.X.X  + l &.&.a +   .X.X.X.X.X.X.X.X.X.X.X.X.X.X.X.X",
".X.X.X.X.X.X.X.X.X.X.X.X.X.X.X.X.X.X.X.X.X.X.X.X  + b h.g.b %   .X.X.X.X.X9 w v Y } c & > H N.&.q o   .X.X.X.X.X  X a &.&.p X   .X.X.X.X.X.X.X.X.X.X.X.X.X.X.X.X",
".X.X.X.X.X.X.X.X.X.X.X.X.X.X.X.X.X.X.X.X.X.X.X.X  % b g.h.b %   .X.X.X.X.Xq k M U Y a & > Y N.=.0     .X.X.X.X.X  X a &.&.a X   .X.X.X.X.X.X.X.X.X.X.X.X.X.X.X.X",
".X.X.X.X.X.X.X.X.X.X.X.X.X.X.X.X.X.X.X.X.X.X.X.X  + c g.g.v X   .X.X.X.X.XS K D A v 3 O > H x.=.i .   .X.X.X.X.X  + l &.&.a $   .X.X.X.X.X.X.X.X.X.X.X.X.X.X.X.X",
".X.X.X.X.X.X.X.X.X.X.X.X.X.X.X.X.X.X.X.X.X.X.X.X  X v g.g.v X   .X.X.Xk M %.r.Q c 3 .   > H N.=.r     .X.X.X.X.X  X l &.&.a +   .X.X.X.X.X.X.X.X.X.X.X.X.X.X.X.X",
".X.X.X.X.X.X.X.X.X.X.X.X.X.X.X.X.X.X.X.X.X.X.X.X. > Z k.h.Z > . .X.X.Xq M *.h.@.0 X   X 6 @.N.&.0 .   .X.X.X.X.X  + l &.&.l X   .X.X.X.X.X.X.X.X.X.X.X.X.X.X.X.X",
".X.X.X.X.X.X.X.X.X.X.X.X.X.X.X.X.X.X.X.X.X.X.X2 a Z =.B.B.%.V p 2 $ 2 q x T %.Z 3 . * p H h.B.&.0 .   .X.X.X.X.X  X l &.&.l +   .X.X.X.X.X.X.X.X.X.X.X.X.X.X.X.X",
".X.X.X.X.X.X.X.X.X.X.X.X.X.X.X.X.X.X.X.X.X.X. 6 U h.V.Q.T.V.h.U 6 $ & 9 k v v q % + i @.N.Q.J.&.0     .X.X.X.X.X  % l &.&.l +   .X.X.X.X.X.X.X.X.X.X.X.X.X.X.X.X",
".X.X.X.X.X.X.X.X.X.X.X.X.X.X.X.X.X.X.X.X.X.X. 7 H g.C.T.!.^.!.&.7 o % 8 q z q 5 X % a &.x.Q.C.&.0     .X.X.X.X.X  X i R R i X   .X.X.X.X.X.X.X.X.X.X.X.X.X.X.X.X",
".X.X.X.X.X.X.X.X.X.X.X.X.X.X.X.X.X.X.X.X.X.X.X3 a Z &.N.~.(.^.;.0 . o 2 .X.X.X.X.X.X7 c H g.V.&.0 .   .X.X.X.X.X  X 6 v b 5 X   .X.X.X.X.X.X.X.X.X.X.X.X.X.X.X.X",
".X.X.X.X.X.X.X.X.X.X.X.X.X.X.X.X.X.X.X.X.X.X.X.XX > V h.!.^.P.%.7 .   .X.X.X.X.X.X.X.XX 7 Y N.&.i     .X.X.X.X.X  o 1 q q > .   .X.X.X.X.X.X.X.X.X.X.X.X.X.X.X.X",
".X.X.X.X.X.X.X.X.X.X.X.X.X.X.X.X.X.X.X.X.X.X.X.X  . c g.P.x.&.A 6 . .X.X.X.X.X.X.X.X.X  * A h.&.0 .   .X.X.X.X.X.X. * 9 8 * . .X.X.X.X.X.X.X.X.X.X.X.X.X.X.X.X.X",
".X.X.X.X.X.X.X.X.X.X.X.X.X.X.X.X.X.X.X.X.X.X.X.X  X c g.x.} a 3 * .X.X.X.X.X.X.X.X.X.X  * Z r.R 7 o   .X.X.X.X.X.X.X.X.X.X.X.X.X.X.X.X.X.X.X.X.X.X.X.X.X.X.X.X.X",
".X.X.X.X.X.X.X.X.X.X.X.X.X.X.X.X.X.X.X.X.X.X.X.X. = V k.h.b &   .X.X.X.X.X.X.X.X.X.X.X+ 6 A >.Y 6     .X.X.X.X.X.X.X.X.X.X.X.X.X.X.X.X.X.X.X.X.X.X.X.X.X.X.X.X.X",
".X.X.X.X.X.X.X.X.X.X.X.X.X.X.X.X.X.X.X.X.X.X.X& 6 c &.B.h.c X   .X.X.X.X.X.X.X.X.X.X6 a A =.g.Y 5     .X.X.X.X.X.X.X.X.X.X.X.X.X.X.X.X.X.X.X.X.X.X.X.X.X.X.X.X.X",
".X.X.X.X.X.X.X.X.X.X.X.X.X.X.X.X.X.X.X.X.X.X  3 Z &.x.T.g.c $   .X.X.X.X.X.X.X.X  + a %.h.N.h.U 6     .X.X.X.X.X.X.X.X.X.X.X.X.X.X.X.X.X.X.X.X.X.X.X.X.X.X.X.X.X",
".X.X.X.X.X.X.X.X.X.X.X.X.X.X.X.X.X.X.X.X.X* 3 f @.j.B.h.&.a +   .X.X.X.X.X.X.X.X  % v g.Q.x.&.A i 3 * .X.X.X.X.X.X.X.X.X.X.X.X.X.X.X.X.X.X.X.X.X.X.X.X.X.X.X.X.X",
".X.X.X.X.X.X.X.X.X.X.X.X.X.X.X.X.X.X.X.X* a D &.x.N.>.A a 3 .X.X.X.X.X.X.X.X.X.X  + b k.B.%.c c Z D f > .X.X.X.X.X.X.X.X.X.X.X.X.X.X.X.X.X.X.X.X.X.X.X.X.X.X.X.X",
".X.X.X.X.X.X.X.X.X.X.X.X.X.X.X.X.X.X.X  > A k.Q.!.B.Y 6 + .X.X.X.X.X.X.X.X.X.X.X  + b g.h.V 2 0 @.g.D >   .X.X.X.X.X.X.X.X.X.X.X.X.X.X.X.X.X.X.X.X.X.X.X.X.X.X.X",
".X.X.X.X.X.X.X.X.X.X.X.X.X.X.X.X.X.X.X  > H C.(./.B.A =   .X.X.X.X.X.X.X.X.X.X.X  + b h.g.c + 7 >.B.Y >   .X.X.X.X.X.X.X.X.X.X.X.X.X.X.X.X.X.X.X.X.X.X.X.X.X.X.X"
};
