/* XPM */
static char *result[] = {
/* columns rows colors chars-per-pixel */
"80 80 50 1 ",
"  c #2F2412",
". c #332612",
"X c #392713",
"o c #372813",
"O c #3C2B14",
"+ c #412D14",
"@ c #492E17",
"# c #402E18",
"$ c #4B2C19",
"% c #59271E",
"& c #54291D",
"* c #5C291F",
"= c #453215",
"- c #4A3616",
"; c #4E3816",
": c #453219",
"> c #4C3519",
", c #4E3919",
"< c #513716",
"1 c #553A17",
"2 c #583B17",
"3 c #52361A",
"4 c #5C341E",
"5 c #553B1C",
"6 c #5A3D1B",
"7 c #5F2A20",
"8 c #5C3E20",
"9 c #622C21",
"0 c #692F24",
"q c #623420",
"w c #6B3224",
"e c #733627",
"r c #753A27",
"t c #773B28",
"y c #7A3C29",
"u c #5E401E",
"i c #60411F",
"p c #5E4121",
"a c #644423",
"s c #684725",
"d c #664A25",
"f c #6B4B26",
"g c #6E4D28",
"h c #704F29",
"j c #6F5029",
"k c #705027",
"l c #73532A",
"z c #78572C",
"x c #79592D",
"c c None",
/* pixels */
"ccccccccccccccccccccccccccccccccccccc>355555585555>>cccccccccccccccccccccccccccc",
"cccccccccccccccccccccccc##:33>>>cccc38888aqa8p8aqp8p5ccccc>>cccccccccccccccccccc",
"cccccccccccccccccccc##:5888p8551>cc=>>1>>-,1><>-:>>,-Occ>588885>cccccccccccccccc",
"ccccccccccccccccc#:388888>>8-<11>cc>1221;112611;;--:==cc->>>>35885>ccccccccccccc",
"cccccccccccccccO:883888883122221>cc-12211112121;----OOccO--->-=:>588>ccccccccccc",
"ccccccccccccccO58388pqaap1112121>cc-221112122111-----=cc----------:,85cccccccccc",
"ccccccccccccco8p88aapsas82262211-cc12121121121;1;=--=Occ-----=;----=>p8ccccccccc",
"cccccccccccccOp88aaasaas62651221<cc>122111;1121;;---=OccO----------->8pccccccccc",
"ccccccccccccco8888paaaaau6621222<cc<11112211211;----:OccuO------;--:-p5ccccccccc",
"ccccccccccccc .8q358paaaa6u62222<cc<211221;1221;---->:ccOu-=----:::1885ccccccccc",
"ccccccccccccc .O38888888a6p62122<cc211,211;111-3;---:=cc------=-,565,adccccccccc",
"ccccccccccccc oO++>3888>aaa61<<--c+111-111;111;1---=-=OO-----Oup85u1pggccccccccc",
"ccccccccccccc OO++++>5@>8ia6858868>33>><11-11->>--58,,85uuu===-uusfuagfccccccccc",
"ccccccccccccc O#X+++O++=8a8>368888pppap81;-;18papp8pppp8uuuu=OOuafkuakfccccccccc",
"ccccccccccccc XO++++O=+#8a3>-<-->>2135881-=->a851,>>,upppdluOOOuqjk6aggccccccccc",
"ccccccccccccc O#+OO++===8p>-11,-<22>-->=:=O-,a61:-15uppddjxu-O-uahk6addccccccccc",
"ccccccccccccc OOOO++O==@8a--11,-;u-uOu=O-OOOui11--;16aaaszzpO=-5ihh6ifdccccccccc",
"ccccccccccccc X+OO+++===ui>;12;;;;u-uuuu-OOOui11;-;16asaazz8OO=6igh2ifdccccccccc",
"ccccccccccccc X+OO+O+==+i2-<221122=uuuuO-OoOuu21;-;52asaszz5X+-2iskiifsccccccccc",
"ccccccccccccc OOoO+++==+21-2211;;uuuuu-uuO.Ouu11;-;12aasszz8o+-2iags6sdccccccccc",
"cccccccccccc  XOXO+++=++<<-222;;22u2uuu=OOo-iuuu,--;1uaafzxpXO-26ashassccccccccc",
"cccccccccccc  OOoX+O+==+-<-212112uuuuuuu-O -i22u5-;;11iagxxfOO-16aagfadccccccccc",
"cccccccccccc  oX.O+++=-+---12111uiiiuuuuuO ui12iu-,;;1iafzxfOO-26aadfiaccccccccc",
"cccccccccccc    .O+++==+---11u112iiiuuOu-O -i22ip-1,;1uafzxdO+<2iasdfdaccccccccc",
"cccccccccccc    oO+++=-++=-11u112uiiiu22-=Opu,1ip;;1126agzxdOO12issaffaccccccccc",
"cccccccccccc    oOO+=-=+OO-111112uiifi22;-Ouu11ua5;1-16dgkxfOO15isssffaccccccccc",
"cccccccccccc   .X++++==+OO-2u;222uuii222;==pu21uau;1111aggzdO+36afkfafaccccccccc",
"cccccccccccc   o+O++=--=O=-11212uuuui212;=-a512upa51;16addzfOO<6akfiisaccccccccc",
"cccccccccccc  .XO+++=-=+OO-2221;2uuii222;=-u6122ada1112asszgO+16dksi6sdccccccccc",
"cccccccccccc  oOO+++=-==O+-2221;222ii2u2;-,d2226psf5125asszk:O36diii6as5cccccccc",
"cccccccccccc .oX++O+--==O+-222;;-22iu2u1;=ua2222idku122asall>+16diup1pdacccccccc",
"cccccccccccc . o++++=+==+=-222;;;2ui22u2;-ud2222idlu225aaskz>O16dupp1uspcccccccc",
"cccccccccccc   oOOOO=O==O===uu=u;22i2u22;-5au12uidku112iiagzuO16auiu;uspcccccccc",
"cccccccccccc  .o=OOuOO==OO-u=u--;2uu2uu2;=5a112uikk1112iiafzp=-6d6iu;6succcccccc",
"cccccccccccc  oXO=OOOu-=O=-uu=O=1uuu2u22;-5a111iafa,112uiaalf=>6a6u8-6ddcccccccc",
"cccccccccccc .OX=O=OOo-=ou=OuuuO11uu2u22;-5au12iaku,112uuiskk>>6a665=1adcccccccc",
"cccccccccccc oOOOO=+O=u=O=u=-==u12u2ui22-=5s222assp,111u2aagzu=5u2u1>2aacccccccc",
"cccccccccccc oO+O==OO===O=OuuuuO1221uu1;-=6d622aas5,1,1u26adxf=2i126+2afuccccccc",
"cccccccccccc .O++O++=O--O=-u-==-121ui21;-=5g6228as5;111226agxl23u11a65ahpccccccc",
"cccccccccccc..OO++++OO--O==-u==-121ui11;-#8ga622ps5;,,1166sgzzu-u66aguafpccccccc",
"cccccccccccc .OOO+O++=-===---O-u212ia<---@3s5362ui5;;;1666ahhgd2662ilfagpccccccc",
"cccccccccccc .XoO+++++-=O=-u-=Ou12ui6>+$@&%&&&&312,;-12u66ahsshi6616flshsccccccc",
"cccccccccccc .OoO+++++-=-----=--21ui3+$&%*ww*9w%3<;=-16i66ssssfuui26ahfhdccccccc",
"ccccccccccc  .OoO+O+++-+O--u==-u22iu+&97%7et70eq%3;--12i66aaasi1ui26adghfccccccc",
"ccccccccccc  .O.o++++====---+--12ua3$0r9%9et90ew94<--15a66aassu1ii226sgzkccccccc",
"ccccccccccc. .O.O++++===-=-O+--12ia>&wy9&9et70ew9w---,6a62asau61ia626sfzjccccccc",
"ccccccccccc   o.o++++=;=-=-=---2uau@&wy0%9er70ew9w3--1pp66aau662iai16adllccccccc",
"ccccccccccc   ..O+==+=====-O--;1uap=&wy0%9ee70ew9w<--1i826aa66u5usa62iallccccccc",
"ccccccccccc  . oO+==O=-==-==--11pa8#7wtw&9et*9ew*03>-;u51usi2662uiiuuuilzicccccc",
"ccccccccccc .OoX+=-@=;;=====--2uaq8O&wy9%7et7wew7e4=-,u,1uau2a62uuiuuuikzicccccc",
"ccccccccccc oOoO+==O=;=;====--21aa>O&0y0%9et*wew9e4--;u5;6a66a66uui1uuukxdcccccc",
"cccccccccc .XOX++=;===;==O=---2uaa8o7wyq%9et%7ww*w4-;;u516a16s62uuu;1uuizkcccccc",
"cccccccccc .OXO+==;=-;==O=---;2usa>O&0r9%7er*qew7w4--16516u2ap121uu-uiudzjuccccc",
"cccccccccc .OXX+O-==;-=-=O=-;;uiaa>O7wy0%7et*7ew7w4--16u;6u6ap52;uuuui6akzpccccc",
"cccccccccc.oOOO+O;-=;-=-+==--1uusa>X&0t977et79eq7w9=-1u5=162ap1211iiui2adzdccccc",
"cccccccccc.OOXOOO--;;===+=;-;1uuaa$X7wy9%9et%9ew*04=-1u6;112ia12uuudii1udzdccccc",
"ccccccccc oOOX+O+-;1--==O=--226asq>.&0y0%7et79ew%wq--1u5-;1uud11616idf1usljccccc",
"ccccccccc X+XXO++-1;-=-=O--;126aaa>X&0t0%7ee79ww*ww--,uu=;11ui;u611uffu1ajlccccc",
"ccccccccc.OOXOOO=-1;==-==---226sap:o7wy0%9et79ew*0w--;1;-;11ud;12u1udk51udlpcccc",
"cccccccccoOOX+O+=-1;===O=-->116as8#X&wr0%9et77ee*0q;-1u;-;1uiu;12515ilu16slacccc",
"cccccccc oOOXOX==-1;=====--;22uaa8+O&0y0%9er%9rr*0w--;u;-;11ad;12611ifd;2ahgcccc",
"cccccccc O+XOOoO--1-===O=-;,116aa8+c70y9&9er*9er*9w--;1--;21id,,1651udd,;6gluccc",
"cccccccc.XOOXoO=--1;=+=O=-;;12pqa8+c7wyw%7et*9er%9w--;u--;1uuku-12616af5;2akpccc",
"ccccccc oOOoOoX=-;1-=+=O=-;;15uas3Oc7wy9%9et*9rt*9w--;1--1;uuiu-11u55ad5;5agkccc",
"cccccc .o=oOOo===;1;=+=+=---u;uis>Oc7wy0&7er77er79w3>16,-;51udu-11uu;ufu;1uilucc",
"ccccc  oOO.ooOO=;;1;-=++----;uiia3#c7wy977er79er79w3-,8,-1116dd;;u1u1uki;;1ukkpc",
"cccc .oO=ooOOOO;;11;=+++----uuiia>Oc70t079et77er77w3-1u5-;112sd5-111pukju;1ukzjc",
"cc ..X++Ooo=OO==-11=-=++=--u1uiia3+c70y0%9et79er77w3-2p6;;112ifu=;u1uudzi11upkzp",
"c .XO++=o.O=OOO--11-=OO+--;11uuia>Oc*wtw%7et79er%704-1u6--112ada-;216idkju,2psks",
"  oO++-O.oO=oO=--1u;=+++=-;122iip-Oc*wt977et79er*9w3-5u5--1126dd;;111uadlp,16agd",
" .O=O=-O.O==OO--;11;=+++--11uiiiq:+c*wtw&70r77er*7w3;1u6--1226dh,;111uaagd;12psp",
" .OO--= .OOOOO--;11;=O++=-122iiia++c*wtw77ey77er%7w3;1u5--1226dku-111uqssg11165c",
" oO=--O .O=O.+--1211+++=--222uuiq:cc*wy9%9et*9rr7704-1u6-;1126sf;-u;12uasku-1>cc",
"cXO=--. oO-Oo=-;121-=+O+--;u2uiia#cc%wtw%9er*9er%70q-1u5-;1126afuO;u226aaka--ccc",
"cc+=-O. OO=oX=-;121-+++=--u;iiik8Occ%wt9%7er*9er770q-1p5;;1116sfu-;u212asfpccccc",
"ccccccc.OO=oo=--121-++O=--u;iiii5+cc%9yc%7ey*9et&70q-5u--;1166dg-=-1116aascccccc",
"ccccccccc=ccX=-121-=cc++-111uiik6#ccccccc7ccc9cccc03=25;-;222ida=O-;,15u6ccccccc",
"ccccccccccccc===->ccccc=-;112isi5ccccccccccccccccccc=>>--;212p8ccccccc-ccccccccc",
"cccccccccccccccccccccccc==;2qai2cccccccccccccccccccccc=+==-<->cccccccccccccccccc",
"cccccccccccccccccccccccccc-155cccccccccccccccccccccccccccccccccccccccccccccccccc"
};
