/* XPM */
static char *result[] = {
/* columns rows colors chars-per-pixel */
"80 80 107 2 ",
"   c #0C5E00",
".  c #0F6303",
"X  c #146403",
"o  c #196602",
"O  c #166903",
"+  c #1A6C07",
"@  c #17650A",
"#  c #196509",
"$  c #166A0A",
"%  c #1D6D0B",
"&  c #1E710C",
"*  c #1F6F12",
"=  c #1E7112",
"-  c #226F0C",
";  c #22740D",
":  c #25780E",
">  c #226D13",
",  c #256F1A",
"<  c #247413",
"1  c #297515",
"2  c #267A13",
"3  c #2A7C16",
"4  c #277419",
"5  c #2A751B",
"6  c #25791A",
"7  c #2C7D1B",
"8  c #307E17",
"9  c #317D1D",
"0  c #2D7722",
"q  c #2F7D21",
"w  c #327D22",
"e  c #327B29",
"r  c #2D8115",
"t  c #2E811B",
"y  c #32841D",
"u  c #38851F",
"i  c #358A1E",
"p  c #398A1E",
"a  c #38901F",
"s  c #2F8021",
"d  c #348422",
"f  c #398525",
"g  c #368923",
"h  c #3A8C25",
"j  c #368529",
"k  c #3A852A",
"l  c #378A29",
"z  c #3C8D2A",
"x  c #3C9225",
"c  c #3E912A",
"v  c #3E8C31",
"b  c #3F9332",
"n  c #41872F",
"m  c #418E2C",
"M  c #419427",
"N  c #419827",
"B  c #42942D",
"V  c #489629",
"C  c #44992D",
"Z  c #499D2E",
"A  c #428E32",
"S  c #449532",
"D  c #499534",
"F  c #469932",
"G  c #4A9C35",
"H  c #469439",
"J  c #499639",
"K  c #479A3A",
"L  c #4C9D3A",
"P  c #519D3C",
"I  c #49A02F",
"U  c #47A034",
"Y  c #4CA235",
"T  c #4EA23A",
"R  c #4FA83E",
"E  c #51A537",
"W  c #50A837",
"Q  c #52A43D",
"!  c #58A73A",
"~  c #54A93D",
"^  c #59AB3F",
"/  c #58B03F",
"(  c #4E9D41",
")  c #529E41",
"_  c #4DA340",
"`  c #54A542",
"'  c #59A545",
"]  c #56AA42",
"[  c #5AAC45",
"{  c #55A448",
"}  c #5AA54A",
"|  c #57A849",
" . c #5CAD4A",
".. c #57B044",
"X. c #5CB244",
"o. c #5DB24A",
"O. c #62B446",
"+. c #61B44D",
"@. c #64BA4E",
"#. c #63B652",
"$. c #65BA52",
"%. c #69BB54",
"&. c #64B558",
"*. c #6ABC58",
"=. c #6AC053",
"-. c #6DC159",
";. c #70C55E",
/* pixels */
"F ` G h x G G B  .h u o.` 3 u g ^ E M E ! E ! f Q Q p B S x T F c t g g S S t y h y h Q Q z B  .S G G B B P G n m m y m h f ! J 9 9 m A f f j < 7 g z c b b c l ",
"B S c g y z B h c z z L F c F t h E G E ! ^ [ V m  .[ B 2 3 S U g G T h h F g y y C L S h h S Q m f f f 9 9 f B m V m G D f P m n D A D ' ' ) [ T S s 2 = r i l ",
" .S M h t z T T F B z Q G B F c u E V h V E X.@.c Q +.E F P F B S S T G G z y G M L G g 3 y h B f f 9 f 9 : u G D G D D m f D B D P f f ! D f ` T K b x r t y x ",
"Q t y z 7 g F B Q G B G F B F G h Z Z E  .z 3 M G y x G ] ` g g F B S B S G C  .z h z c h y t y y m B h f k B D Q D m f 3 f D G P P m f D f 3 m d b U [ R C b b ",
"g + 3 F z g z u h F S y z ` ` C M h p h E M 7 C [ g h h M m y J F Q S ; y o.[ G ; 3 z G C g 7 y f m m h f B S S S h h 8 1 f S S m u p V m g z Z z c G ] T c S ~ ",
"z 2 7 B B M F S y g h g Q +.Q ~ F M : . 3 U T ..G B C z z G G ` ] Q z ; g [ G h 3 B T z 1 3 g B D y 3 g z g z L 9 7 z g h D z u u 8 m Z p f C B T F G T S g c T ",
"g 3 2 g m M S F L y 7 c  .Q m  .Y U U t y G x y y g 7 h B S K J o.B u g L G d z J Q L h 2 7 B ` D u 3 h m f z L g 8 z h z Q M d G G G Z M z x B E F G E F i g F ",
"3 y u F ] L z h +.F h 3 B G y C R C T F x F x c M h 3 S S 1 G +.G z z M L ~ g z C i z Q ] S F [ g g z z z M M B G f z 3 u Q F z M E p : M M y V U M c G C y g F ",
"S M z S T Q S h [ ' Q g S z z 3 b b i b l U b F C y m D m 9 f G S g G L u S ] g y F z u G [ Q Q t g c z z B F G G S x 2 c ` z G r i a r V V ; x ^ Q z } S 3 G 7 ",
"G G G G S B G Q 3 h L B T B C B U U U _ b C b F y u m m f n D n y ; h Q B F Q c 3 B G T  .~ B m t t h C S F G Q ~ ] [ x c T B G C x I a h N y u g M E [ M y m h ",
"Q L T Q L z t 7 3 y z g c y g S _ R ..U x s x c m H f m f 9 A 8 B y z L S h g y g S G L Q S z C c h x F G S G R B h S b c B c C / x I W C C C Z y f ` B f f f S ",
"] F h h h g y g G S M B L B B T ......N b a R R L B 1 B n - A n h d u c S S M F h B B z m C F P T F b c C F U R F 2 g ] [ T U T W i a / ^ x M ] G C z - 9 z z n ",
"3 y z c h f B G 3 7 t B L S x L ..U b t F S ` L d 7 - A D w ' P 7 h g g D Q L T t h S S G ~ ] F b G G b U ] ] R F g b ..] U F x x b x U [ g 3 S  .` d # w k ) n ",
"+ 7 C G G C y ; c G G ] T F S ..R U l i b G S t 7 j 9 D D n P f z G G M G G m y y h G Q Q [  .K x U R ~ ~ / R S t U Y F x h c 2 r / U C T c y B [ P A > f w ) A ",
"B C z y g F g & G Q S G h h y c _ _ U b Y ..S d z z m D n f w - B B B S G G B g B g S ` G C G G c b Y ..] b x c i ~ U F c c U x i ~ T R T x D Q J g P 5 w 0 H A ",
"7 B F g z T T h h B h L G L t r g c g c c _ K m A 1 w A n w 9 n Q z z S B z z g B 7 S +.K 7 9 h c t x ~ Y g i Y U R a C / c b U T C U o.G 2 L  .K * ) 5 , 0 f k ",
"+ 2 F G o.F Q G G Q T 3 i E h y h h c 2 t S z q 0 > 0 J ' A 9 f u M m m m z f y B y A z A ( f 5 Y x g g g g x ] R g c c ] ] c R P 8 G Q Q V Q P m 9 J J f z v e ",
"; u B p Z M M i h E E : : G S M i g G F g < < v H A A j n L m 1 m m V B V D M f 9 5 A f 7 z v S g t y x x x l U U g c F ..] g c ! M P P P B m f ' S ' P n w , - ",
"M G G c ^ Q G G ~ F x y c C h C 2 ; z B l 7 4 v A H A A D S k y u m B D P G m f 9 9 D f 1 d m P b g g x b b F ] Y U _ R R b 2 t  .G L h D m 9 u 9 9 D J S z d m ",
"F Y S C ` G S ] L c g F Q B g B ; t B t s b v k k k H J n 9 9 n 1 u G P P L m d J m S B n S S m [ U g b Y b Y Y c T ] U c g g T  .Q f - f B h P 3 f ` L m f w L ",
"b T F B B z y h + S R c z S L F t F ` g 7 L ( H A A n w > , 9 f ; g J L J S S B C f u c L Q P z Y b y U R b x & 2 x c x c S ~ $.J S 7 + g S z ' S Q +.Q D B f S ",
"d L L c y S g < ; S S d g b L S F B F z v L ( H k 5 5 w f 9 1 9 1 f m z l h B J 7 1 : g M D ] Q Y U r b Y c c & g b g x U U T F d l 1 7 z G g ` G D G c D  .! G ",
"7 6 j K d b z 2 b b 6 j S z S c G i g c ( { k s 9 > 5 A D 9 1 w 7 q j 7 d d h m y 8 3 h h h E Y U G 2 l F x T c b ..c c U C c 2 z d 5 g z J g { ] P P u y ^ ~ g ",
"L & t &.T S v z t L z l z b L c S M L Q L S 6 4 , m J e 9 w f w q w d g f z f y G G h F M u N y r c 2 x b x R F g ] G S U b U g L z 6 w y H c $.[ ' X.p - Z ! p ",
"S l l ` ` 7 7 ( K l & l ` S L z g F z F L l j v 6 H z 0 d w 9 m d q d s l L R S F b Y C Y O.Y N x x g F c ] U g g x b W U x x b b z s l t < T #.G -.c p h ~ Y t ",
"b T ` _ K z d z ` l $ g K z ( ] z B f C S 7 q k e 5 > 5 5 f m D d 7 l S S c c y I b R C V C x Y _ b c c T R U y b U T Y S x g t b b g l g c [ T F %.C c M W U x ",
"L T ` ` L g y S F y 3 K ` B Q +.L M h F z 6 s j J > > w w n D f l t c R G c c x b x F Y T C g c ] b F x S g c g g b U b c U U b t x j g l U ..c U Q x T U B x F ",
"S S S T L g h ] z d h Q ` F L +.] C B ` b 4 k v ) w j A A A k 1 c g z c g t c c x g c U F C x b ] U [ R U g F R U U F c x c b F r x c h g F ` S F F x C G C x g ",
"7 B Y F F F G L B B F B B C G [ G z S ] z < j b v J A v A A 9 8 i g x x r r g t g c R c = r g T T U T  .c c F R U b b b b c b Y I C Y U C U R Y c U T h c [ T = ",
"g B G Q ~ C M G L G Q F B L F Y g g z Q z % q k A } ( k A n 9 m r x U U b U I x c F ..b l l g c U x t b z T c y x x c ] ..Y Y R / C U Y ~ X.[ W R c T U _ R F x ",
"T x z ~ [ p p ^ T C T Z Y ] G G u M z G S 7 d v A H A k f f k B x x U W U Y Y Y U x b Y ....x g R x t x U ..T y R R [ o...] U C Y a Y T ~ o./ R ] 7 T ..[ l c [ ",
"~ C h h B z C  .[ p h y B E G +.x L S T { B k H q # 5 z w k L D ^ x g x t t c U R t g b b U b [ U s g r U ~ ] g T [ ..]  .o.o.~ C C X.^ U ~ c b g t o.T c g K ` ",
"Q z B F z h C F G C z ` L : h T l d s s g l z b z 7 z S d z J g C R x x x b _ b b s b o.U l U _ F r g L S M S C S +.$.G M G L B ] M g ] [ F C z g J ] C Q ] #.[ ",
"G h h c y 8 g 3 z ` ] G g g h 7 2 t j j d d S _ S h B S f C ] Q F R F b c b K s l . = l U _ [ U F l h c B C B h J Q Q S z h g 7 T S h L G S ` [ ~ ] Q m S Q ~ S ",
"T S G G G ` [ P F Q [ B y g t 7 b b K b z b S K { B z i 2 y G S C Q T g $ 6 _ b k = 6 l l c b x S c t 2 y z g 7 M B B F F S z g M z 7 y g g D F y z u 7 3 B z g ",
"S F F S G [ +.] G c G y 3 y 3 z L v s s z S S l $.L z g y g M h t C G z 0 6 v K v b L ( g t x g S F d 2 z F S Q h z S Q ] ] Q G B B 7 d C S B y ; h z B 7 B B S ",
"F Q Q B M S z y D L ] g y Q T ` b 7 % < z ` ` S ] z t g C F D g z B 7 9 K b q b H A v v S S S z y g 7 u F G L +.z G ` Q Q Q G m y S g h L G B t g T G G g S c B ",
"G [ ] L Q K g 7 B B G S F T L Q l d 6 2 d F T K S y 7 h Q G B h B d < < b b 6 ( ( A d d z H m z 3 t g B F z g B h L ` T F B h u 2 G M h z y y y c B u g g G F B ",
"B S h f G G h y 7 3 3 M S y g h z l d 6 7 g h d L G G E ~ F z C < > z J H k 4 j J H A k k w 9 l B S G L F M z y i z G Q G c h h t ` L B B g g m F z g y B L ` G ",
"L M ; + y g 3 2 2 F z B B G Q g S F b c S ` Q G B L ~ Q F y t B J < H ) j k j 4 A z k A L z d z S B F c g S G t g u z Q T z d c 3 G B B Q B B S G F G g M g B f ",
"g S h S c 3 B ` B ` S G C 2 y G c 7 z K F F S T z  .Q G E h 2 c L J z A ) w % f D f d 7 z J J S h y y z S G P ` T B z h y g g 3 < T G u S [ Q G G G z y +.g z y ",
"y C g g h h S C F P z F L g y y j S T c h S z c G Y N z Y V u M f ) H 9 f h 9 z m J P w 5 A z k z B B B G ~ L C z y y g y y t % h G S 2 & c ` Q [ G 7 ;  .G M   ",
"; z y 3 z G G t M G z F Q D z u h F L c G T x S P M g M G C N Z l ` z > 8 B M z h F [ G z S q < 7 y g d S ] ~ z B g z B S M g 2 y y B i ; c %.+.] B f y ` S F + ",
"% g g u M G B 7 g F G S B z c z t r j c G y & T F h Z ~ G B C F L z 1 2 g h u a B z D G Q ( z 7 L G B h M L L B G c M S h g g 2 z B G D g B ` ~ Q t C Q T t z y ",
": g c z B c z B S G Q B y y y g y g B T C O   ~ Q M G  .Z C Y C S d 2 t x r r x E V h r h [ ` _ ` G c z z c S G [ L G B g g f y c T F c F S B L Q 2 z E Q h g 1 ",
"g h B z z h h ] Q B F B g z h g G S G S G h 3 S [ Z F E Z G E B y h b c i t a N Z E W t g ..$...B g y g h h F T [ L G S f h B c 3 F B z ` Q c B S 7 G T G ] Q h ",
"h h S M B B g P L y B F B G B z G c h y x Q B g Y Z C Z V G G x t c G b a x I I N Y X.W G [ R R [ Q S c M S S B B h g h h c z g h G G S G L z 3 7 y ` L z Q ] ] ",
"d g J C L L y h B 3 S L M z g h B S Q B u B F Y r B P F x N c z c g g c x x x a W x I X.[ c g T Q P M y g L Q S h 7 g C L Q G g z g z y 3 C [ M y 3 B B 8 f f L ",
"1 J w 9 m m B m 9 h Q Q h y c c j c h b c x F E G Y h Z z r c t f h C c p a Z V I I / X.U U ....O.! G M 9 B D 7 d y F .._ F F U b s r r U R l b F t S z f d 9 - ",
"D P D D V n m 1 < 7 z F c S U b < 7 r z S c Q ~ z h p B S z k 2 8 h G Z p p N a N / =.R I ..@.U ! Z V p 8 f S f t d b U R [ o.R U ..R s l ..T b  .t 7 z B n 9 m ",
"f - f n w P P m z m z z S S b U l l d g c g C C y i M z b F z t d y z V V F Z x N W ..N x ..@.b V p m p y f H _ v g v K U R T b C x b b l U U _ Q 9 # f k D 1 n ",
"9 : n n 9 D G ] f G S B F x 2 2 z z 7 y g h Y ~ B C T u 7 g 7 z f g m Z Z G E I I I U N N U .._ m 8 8 m y < l ( { l l ` ] l i i r $ a U b C b | d f y u m m 1 9 ",
"8 w D u 9 u 8 ' G ] L z c d j F z z 7 t h h T E [ ~ T 3 2 y < g 9 f G ^ Z x I E I N x N c g g U ! D S J m 7 q ( _ l z _ _ x x b j g F b g L L l 3 z ] S P f 3 m ",
"- 9 n u f 8 - G P { L z t t l T l l t h h g C V ^ Q c t c S l S 7 : p Q ^ ~ E Z a N U U T U b C ' D A L L l j ( H z l z g b U b T c b c g z g g y 7 ` L P 1 3 P ",
"V P D G V u f D y g S H z 7 < X < d y B S S Q ^ E Q h h Q S K [ h ; 2 Z X.X.W I x / R / o.#.` _ 9 < $ w H v j ( H z g s t x U c S s d l z s < S m 7 F Q M 3 3 M ",
"' V m P D m [ P ' S S A g g l 7 z S c F F B Q ~ Y +.V B F 2 g { m g M G C x Y ..U U x c ] T l b 5 * # d { ( H | K s t l l c b S 7 l b d l c 7 c ` S L ` z G f y ",
"M Q u M G g m m S D J D k A S 7 l { F L [ F x Z E o.F h g K T 7 g B R ..R Y I c Y B B E L 7 6 H _ = j q v d  .| l K J 7 z L 7 z S H A l K { z g z `  .Q h U X.i ",
"B G g u L  .` h D P D z J J 7 > 7 _ ` [ +.B z Z h C h y S F d g g c U / W C U W G C U o. .H s j q q K l b + k | z S l < j v q q z v v 7 k S d 1 c F F C g x / b ",
"z M F z m E G z 1 P H k ) A w A d S c T +.Q x g p x 3 y  .L s b G g t b U x x x h x S z d l k j = s l g L & 2 B z z 7 < w k k < 0 k ) A S | K y d g c ~ [ R @.=.",
"G u Q Q M M g c f Q P z k w 5 A v S d B ] G B h C B 2 l ] F K K R c i x Y U x x Y B t < < b b * g g h l ] F C F z c 7 d w e A < # 5 H A v  .Q 7 z c g G R x c U ",
"Y r x F B F y t m f k f w 0 w w z L S K S g V Y C G 3 B t = #.U i b W N a x I U ~ +. .J z H v 6 6 t U U N C [ E f B h z w 5 v , 5 0 k 0 5 ) J < G G d i x t x C ",
"p i C x h B c u d 1 w k 0 w A n k b c F B h F G C Q M C O . #.] x R ..b x x c x B  . .Q H l e d = i R W a x ^ Z M G D A j 0 e 0 H n f # % S L B S S x c b U W U ",
"x ~ ~ U D V Q [ A m n f 9 > , k S z t z B B E C G F G S t s _ _ @.../ R / ..R C Q B % 6 { K 4 6 c I W / W W Q ! P G A w e k 0 e k e w # < A S S F c c T C x x r ",
"] ~ p C Y f B Q J D - # e 9 > f z z h M g h ! [ ] h C x Y ..g b ..U F W R ] ~ W T Q f b | j $ b W W I W ! N p O.~ C w # k ( 0 v 5 v A j A K z B K s d U c i C y ",
"~ [ ' V f M J F y d & $ c S b o.S K S x g B F C z y C B g G T F E $.E Y E o.c h 3 c Q G l b ` ` T Y @.X.x c / F G y 7 7 f w j 5 z s b j b b 2 L G 7 z ` S c G Q ",
"f D ! P G G C z & ` [ g g T U x T T F c B G Q Q F M T F B G C F Q [ ~  . .T u c & h G c l F L G ..Y U x p C ..[ z 3 z S J 1 7 j 2 b U = r U K T h 2 y S z y z m ",
"B M m M G G B h G x G $...s & r T Y S c B G T T G G E F S C h F 3 C C u x B G F < c S z S F z h o.Y x x x C Y ~ m P +.S z 7 5 O s G T c ] $.L 7 F 3 ; y B z u u ",
"1 - - - 3 9 y h g s c  .o.o.] ] G F F F C C F T L F c u M z y Z C E ~ i z x Y F y B z g L S r g F C x I G x g F h L ( 7 w w d > F g 2 c T c y 3 h D P V g 1 u Q ",
"- u V G m p S  .S ....c t Y ..b c B G G C B C Q Y B g 3 z B y B ~ z G ] +.h c G c h 6 g L g < l x p g I ~ c i i G m z d z % < z g y g G c 2 t x Z Z m M P P V V ",
"9 u m m h m z V ] L z t t g b R x h B G C h c T Y B c u B G h x B t x G T S G G G h 7 d z 2 # t R C x U T F g t P ~ ` z A > 5 S z R +.~ S R T h y m P G V D P D ",
"[ G h 9 f G G C $.-._ b Y T c l G M z B M y y x g h L F F ~ G h G Y G z 3 G Q g T S l l g 7 7 t ..U ~ ^ F B C h 3 P { d H D J L +.G G r y  .[ C m u 9 f m ! ! u ",
"V G F f 8 z Q [ z ....o.=._ b | +.U M S B y t y & 3 ~ ~ G [ T i r y y z 2 M c t S c z z l S K S t a X.@.C x U F g z g < J A k B [ ; i z x G C  .9 8 u 8 o 8 V n ",
"9 m ! 1 ; g 2 L y h [ Q [ ;.o.U Q Q c F z T Q  .x 2 g g F +.V + 7 3 2 7 h B d = K ` s j K s l [ t i Y / C ..g 2 z 7 y z L P J k B 3 h G Q Q M m 1 u 8 u 8 - u V ",
"m m m - : u h V #. .[ c x ..o.-.T E G T G Q Y Q h z L M g C r O F G G B z g d 2 t F j c ( z v K ..C X.W ~ B x c M g A +.} k z ' B h T T P ~ S h u V m B n u V u ",
"u M 8 u z z G G r S ` ] #.#._ ..c B F c V B S x r h G Y T Q F Q z z z d 7 7 t t s l j b b v b b %.x Y X.=.G c x z G { ` ) k j ` f h G z d z f 9 n V f m P P V - ",
"8 u m Q Q D G L S K g r g g g ..Y G E g F B ~ G x h g G [ G M [ [ T c g y y 7 6 h s z H l l b l [ x x =...~ g c M L A z J S k ) S z S g 3 f f d 9 9 5 u D D n 1 ",
"9 - V P [ Q u M g c t t c t 2 b Q T T i B x U C F F g x T F C ` ' ` L K F c h s 6 < S | b j j q T Y C @.U C c C L z 7 v | A w ' H y k d 7 k f f 1 9 k n f f n n ",
"m 1 u u Q ` - u r g 2 g b c Y ..B c z y y 3 t 3 u T C y h T +.] g c L T G l j l 6 = b ( v l j s U U R Y o.^ [ y B F S S J j 1 d z 5 q w d k w 9 k 9 w 9 n n n n ",
"V m 1 - P G 2 B z S c U U x _ ] C c p c i y 3 i h G c i 3 h E c T T _ T b d 7 s s q S l k ( S z c C U Y @.] ..; y P ' m d f w > S j v e w H k e A e e > w ) n 5 ",
"m ! u 3 ` F h  .G T c F g s _ ] F c y C g g y B T B u G F B [ G  .K z g l z z b s v _ v H &.L 7 r ~ ~ ^ r r x g 8 g S G z n S H A v v * * j k e 5 D } 9 , D n w "
};
