/* XPM */
static char *_7341_1ba82e622f12d9ba7e18e059016a3f18c9377800946bc80b7e97d67f3c72e56d[] = {
/* columns rows colors chars-per-pixel */
"80 80 147 2 ",
"   c #000006",
".  c #080A13",
"X  c #2D1702",
"o  c #331800",
"O  c #081020",
"+  c #171F2C",
"@  c #1B1D22",
"#  c #1F2025",
"$  c #1D2739",
"%  c #292627",
"&  c #312E2E",
"*  c #292E3A",
"=  c #353232",
"-  c #393636",
";  c #3C3939",
":  c #423E3E",
">  c #0F2F53",
",  c #2C3443",
"<  c #2C4563",
"1  c #454242",
"2  c #4A4646",
"3  c #4B4748",
"4  c #4D4A4A",
"5  c #4B4847",
"6  c #524E4E",
"7  c #464A55",
"8  c #555151",
"9  c #5B5757",
"0  c #5E5A5A",
"q  c #625E5E",
"w  c #656262",
"e  c #6A6564",
"r  c #64666F",
"t  c #6D6968",
"y  c #706867",
"u  c #726D6D",
"i  c #73706F",
"p  c #6A6D75",
"a  c #746F70",
"s  c #767373",
"d  c #7A7575",
"f  c #7D7877",
"g  c #767A7F",
"h  c #7E7979",
"j  c #9C592E",
"k  c #B44534",
"l  c #AC4757",
"z  c #886C5D",
"x  c #A56B5B",
"c  c #837D7D",
"v  c #847A72",
"b  c #BC786B",
"n  c #978176",
"m  c #9A8375",
"M  c #A28270",
"N  c #A38778",
"B  c #B4927C",
"V  c #C29376",
"C  c #C5977B",
"Z  c #C5987C",
"A  c #868282",
"S  c #898584",
"D  c #85868A",
"F  c #8F8B8B",
"G  c #918581",
"H  c #928D8C",
"J  c #9B8B81",
"K  c #94908F",
"L  c #8F9299",
"P  c #959292",
"I  c #9A9594",
"U  c #9C9897",
"Y  c #95979D",
"T  c #9E9A99",
"R  c #A88E81",
"E  c #A09288",
"W  c #B79987",
"Q  c #B49D8F",
"!  c #A29D9C",
"~  c #A5A19F",
"^  c #9198A1",
"/  c #A6A2A1",
"(  c #AAA5A4",
")  c #ACA8A7",
"_  c #ADA9AA",
"`  c #B2ADAC",
"'  c #B4B0AF",
"]  c #B9B0AC",
"[  c #A2AEBC",
"{  c #B0AFB1",
"}  c #B6B3B2",
"|  c #BAB6B5",
" . c #BCB8B7",
".. c #BFBAB9",
"X. c #C49A80",
"o. c #C6A692",
"O. c #CDA995",
"+. c #D4AD94",
"@. c #D5AF9B",
"#. c #D6B39D",
"$. c #DAB69F",
"%. c #CAB3A4",
"&. c #D5B6A3",
"*. c #D6B8A5",
"=. c #DBB9A4",
"-. c #DABCAA",
";. c #C1BAB6",
":. c #C1BDBC",
">. c #C5C1BF",
",. c #D7C3B7",
"<. c #DDC1B0",
"1. c #E0C8BA",
"2. c #A4B8CF",
"3. c #A3B2C4",
"4. c #B2C2D5",
"5. c #B5CCE4",
"6. c #C6C2C1",
"7. c #CAC6C4",
"8. c #CCC8C7",
"9. c #CECACA",
"0. c #D0C8C3",
"q. c #D2CECC",
"w. c #D5D0CE",
"e. c #D7D3D1",
"r. c #D9D5D3",
"t. c #DDD9D7",
"y. c #DFDBD8",
"u. c #E4D2C7",
"i. c #E3D2C8",
"p. c #E4D8D1",
"a. c #E2DDDB",
"s. c #EADFD8",
"d. c #EBDCD4",
"f. c #E6E1DF",
"g. c #EBE1DC",
"h. c #F0E3DB",
"j. c #D3DBE4",
"k. c #D9E4F0",
"l. c #E7E2E0",
"z. c #EAE4E3",
"x. c #EFE9E7",
"c. c #EFEAE8",
"v. c #F1EBE9",
"b. c #F7F1EF",
"n. c #F9F5F4",
"m. c #FFFDFC",
"M. c None",
/* pixels */
"M.M.M.M.M.M.M.M.M.M.M.M.M.M.M.M.M.M.M.M.M.M.M.M.M.M.M.M.M.M.M.M.M.M.M.M.M.M.M.M.M.M.M.M.M.M.M.M.M.M.M.M.M.M.M.M.M.M.M.M.M.M.M.M.M.M.M.M.M.M.M.M.M.M.M.M.M.M.M.M.",
"M.M.M.M.M.M.M.M.M.M.M.M.M.M.M.M.M.M.M.M.M.M.M.M.M.M.M.M.M.M.M.M.M.M.M.M.M.M.M.M.M.M.M.M.M.M.M.M.M.M.M.M.M.M.M.M.M.M.M.M.M.M.M.M.M.M.M.M.M.M.M.M.M.M.M.M.M.M.M.M.",
"M.M.M.M.M.M.M.M.M.M.M.M.M.M.M.M.M.M.M.M.M.M.M.M.M.M.M.M.M.M.M.M.M.M.M.M.M.M.M.M.M.M.M.M.M.M.M.M.M.M.M.M.M.M.M.M.M.M.M.M.M.M.M.M.M.M.M.M.M.M.M.M.M.M.M.M.M.M.M.M.",
"M.M.M.M.M.M.M.M.M.M.M.M.M.M.M.M.M.M.M.M.M.M.M.; 4 4 4 M.M.M.M.M.M.M.M.M.M.M.M.M.M.M.M.M.M.M.M.M.M.M.M.M.M.4 4 4 ; M.M.M.M.M.M.M.M.M.M.M.M.M.M.M.M.M.M.M.M.M.M.M.",
"M.M.M.M.M.M.M.M.M.M.M.M.M.M.M.M.M.M.M.M.M.- - 4 T ' A ; ; M.M.M.M.M.M.M.M.M.M.M.M.M.M.M.M.M.M.M.M.M.M.; ; S ` T 3 - - M.M.M.M.M.M.M.M.M.M.M.M.M.M.M.M.M.M.M.M.M.",
"M.M.M.M.M.M.M.M.M.M.M.M.M.M.M.M.M.M.M.M.M.- 1 d q.l.e.) u 5 M.M.M.M.M.M.M.M.M.M.M.M.M.M.M.M.M.M.M.M.5 u ) e.l.q.d 1 - M.M.M.M.M.M.M.M.M.M.M.M.M.M.M.M.M.M.M.M.M.",
"M.M.M.M.M.M.M.M.M.M.M.M.M.M.M.M.M.M.M.M.M.= 9 / f.u.1.i. .H t M.M.M.M.M.M.M.M.M.M.M.M.M.M.M.M.M.M.e H | i.,.u.l.( 9 = M.M.M.M.M.M.M.M.M.M.M.M.M.M.M.M.M.M.M.M.M.",
"M.M.M.M.M.M.M.M.M.M.M.M.M.M.M.M.M.M.M.M.M.= w ..a.O.V =.g.f./ 8 M.M.M.M.M.M.M.M.M.M.M.M.M.M.M.M.8 / l.g.=.V @.a.;.w = M.M.M.M.M.M.M.M.M.M.M.M.M.M.M.M.M.M.M.M.M.",
"M.M.M.M.M.M.M.M.M.M.M.M.M.M.M.M.M.M.M.M.M.= w } w.o.Z *.w.r.8.~ 6 ; ; M.M.M.M.M.M.M.M.M.M.: - 6 / 0.r.q.=.C O.q.} w = M.M.M.M.M.M.M.M.M.M.M.M.M.M.M.M.M.M.M.M.M.",
"M.M.M.M.M.M.M.M.M.M.M.M.M.M.M.M.M.M.M.M.M.M.5 e ' %.+.$.;.t.z.r.! f 9 - M.M.M.M.M.M.M.M.- 9 f ! r.z.r.;.&.+.%.` w 2 M.M.M.M.M.M.M.M.M.M.M.M.M.M.M.M.M.M.M.M.M.M.",
"M.M.M.M.M.M.M.M.M.M.M.M.M.M.M.M.M.M.M.M.M.M.M.: u Q $.#.%.,.d.g.:.P u 9 : M.M.M.M.M.M.; 9 u K :.z.d.,.%.#.$.X.s : M.M.M.M.M.M.M.M.M.M.M.M.M.M.M.M.M.M.M.M.M.M.M.",
"M.M.M.M.M.M.M.M.M.M.M.M.M.M.M.M.M.M.M.M.M.M.M.M.= m $.#.#.#.<.r.7.! S f 6 1 M.M.M.M.1 8 f S ! 7.p.<.@.#.#.=.v = M.M.M.M.M.M.M.M.M.M.M.M.M.M.M.M.M.M.M.M.M.M.M.M.",
"M.M.M.M.M.M.M.M.M.M.M.M.M.M.M.M.M.M.M.M.M.M.M.M.; m #.#.#.#.#.<.s.8.! c f 6 = M.M.= 6 c c T 8.g.-.#.#.#.#.$.v : M.M.M.M.M.M.M.M.M.M.M.M.M.M.M.M.M.M.M.M.M.M.M.M.",
"M.M.M.M.M.M.M.M.M.M.M.M.M.M.M.M.M.M.M.M.M.M.M.M.- t N C @.#.@.*.g.q.! c c 6 = - - = 6 c c ! q.g.=.#.#.@.C R y : M.M.M.M.M.M.M.M.M.M.M.M.M.M.M.M.M.M.M.M.M.M.M.M.",
"M.M.M.M.M.M.M.M.M.M.M.M.M.M.M.M.M.M.M.M.M.M.M.M.M.4 y N W +.$.=.0.:.) U c c c F F A h c I ) :.0.*.$.+.X.N e 4 M.M.M.M.M.M.M.M.M.M.M.M.M.M.M.M.M.M.M.M.M.M.M.M.M.",
"M.M.M.M.M.M.M.M.M.M.M.M.M.M.M.M.M.M.M.M.M.M.M.M.M.M.4 y b W o.O.] } | ` P ' e.a.a.e.' P ` | } ] O.o.W M u 3 M.M.M.M.M.M.M.M.M.M.M.M.M.M.M.M.M.M.M.M.M.M.M.M.M.M.",
"M.M.M.M.M.M.M.M.M.M.M.M.M.M.M.M.M.M.M.M.M.M.M.M.M.M.M.1 u c n B ] } | | ;.r.v.x.c.c.t. .| | | ` B n c u 1 M.M.M.M.M.M.M.M.M.M.M.M.M.M.M.M.M.M.M.M.M.M.M.M.M.M.M.",
"M.M.M.M.M.M.M.M.M.M.M.M.M.M.M.M.M.M.M.M.M.M.M.M.M.M.M.; 1 e c G _ } :.w.a.x.c.x.c.c.z.a.w.;.} ` n c t 1 ; M.M.M.M.M.M.M.M.M.M.M.M.M.M.M.M.M.M.M.M.M.M.M.M.M.M.M.",
"M.M.M.M.M.M.M.M.M.M.M.M.M.M.M.M.M.M.M.M.M.M.M.M.M.M.M.M.- 5 w S ` :.w.l.x.x.x.x.c.c.c.c.l.w.>._ S w 1 - M.M.M.M.M.M.M.M.M.M.M.M.M.M.M.M.M.M.M.M.M.M.M.M.M.M.M.M.",
"M.M.M.M.M.M.M.M.M.M.M.M.M.M.M.M.M.M.M.M.M.M.M.M.M.M.M.M.- = 1 u ) q.l.x.x.x.x.x.x.c.x.x.v.l.q.) a 1 = ; M.M.M.M.M.M.M.M.M.M.M.M.M.M.M.M.M.M.M.M.M.M.M.M.M.M.M.M.",
"M.M.M.M.M.M.M.M.M.M.M.M.M.M.M.M.M.M.M.M.M.M.M.M.M.M.M.M.M.- = 5 ) a.v.x.x.x.x.x.x.x.x.x.c.v.a._ 2 - ; M.M.M.M.M.M.M.M.M.M.M.M.M.M.M.M.M.M.M.M.M.M.M.M.M.M.M.M.M.",
"M.M.M.M.M.M.M.M.M.M.M.M.M.M.M.M.M.M.M.M.M.M.M.M.M.M.M.M.M.M.M.6 9.v.x.x.x.c.x.x.x.x.x.x.x.x.c.9.6 M.M.M.M.M.M.M.M.M.M.M.M.M.M.M.M.M.M.M.M.M.M.M.M.M.M.M.M.M.M.M.",
"M.M.M.M.M.M.M.M.M.M.M.M.M.M.M.M.M.M.M.M.M.M.M.M.M.M.M.M.M.M.3 c a.P 7 r q.f.f.v.v.f.s.q.r 7 L a.h 2 M.M.M.M.M.M.M.M.M.M.M.M.M.M.M.M.M.M.M.M.M.M.M.M.M.M.M.M.M.M.",
"M.M.M.M.M.M.M.M.M.M.M.M.M.M.M.M.M.M.M.M.M.M.M.M.M.M.M.M.M.& 6 c D *   O p { 9.e.e.9.{ p .   * D c 6 = M.M.M.M.M.M.M.M.M.M.M.M.M.M.M.M.M.M.M.M.M.M.M.M.M.M.M.M.M.",
"M.M.M.M.M.M.M.M.M.M.M.M.M.M.M.M.M.M.M.M.M.M.M.M.M.M.M.M.M.3 e g , * + . . g  . . ...s . . + * , g w 3 M.M.M.M.M.M.M.M.M.M.M.M.M.M.M.M.M.M.M.M.M.M.M.M.M.M.M.M.M.",
"M.M.M.M.M.M.M.M.M.M.M.M.M.M.M.M.M.M.M.M.M.M.M.M.M.M.M.M.; c ` { 3.2.g o X v 7.w.w.7.v X X g 2.3.{ { n ; M.M.M.M.M.M.M.M.M.M.M.M.M.M.M.M.M.M.M.M.M.M.M.M.M.M.M.M.",
"M.M.M.M.M.M.M.M.M.M.M.M.M.M.M.M.M.M.M.M.M.M.M.M.M.M.M.M.; A  .| 2.5.D o o E z.z.l.z.E o o D 5.4.}  .A ; M.M.M.M.M.M.M.M.M.M.M.M.M.M.M.M.M.M.M.M.M.M.M.M.M.M.M.M.",
"M.M.M.M.M.M.M.M.M.M.M.M.M.M.M.M.M.M.M.M.M.M.M.M.M.M.M.M.; P e.q.j.k.^ # @ ! n.v.v.n./ @ + ^ k.j.q.e.P ; M.M.M.M.M.M.M.M.M.M.M.M.M.M.M.M.M.M.M.M.M.M.M.M.M.M.M.M.",
"M.M.M.M.M.M.M.M.M.M.M.M.M.M.M.M.M.M.M.M.M.M.M.M.M.M.M.M.; ( b.v.n.m.3.> < _ h.s.s.g._ < > [ m.n.c.b.) ; M.M.M.M.M.M.M.M.M.M.M.M.M.M.M.M.M.M.M.M.M.M.M.M.M.M.M.M.",
"M.M.M.M.M.M.M.M.M.M.M.M.M.M.M.M.M.M.M.M.M.M.M.M.M.M.M.M.; / v.x.v.n.[ < ^ %.&.@.@.#.%.^ < [ m.x.c.c./ ; M.M.M.M.M.M.M.M.M.M.M.M.M.M.M.M.M.M.M.M.M.M.M.M.M.M.M.M.",
"M.M.M.M.M.M.M.M.M.M.M.M.M.M.M.M.M.M.M.M.M.M.M.M.M.M.M.M.; u ;.v.c.b.9.L H R b l l b W F L q.b.x.x...a - M.M.M.M.M.M.M.M.M.M.M.M.M.M.M.M.M.M.M.M.M.M.M.M.M.M.M.M.",
"M.M.M.M.M.M.M.M.M.M.M.M.M.M.M.M.M.M.M.M.M.M.M.M.M.M.M.M.M.5 H v.v.v.p.} ! J x k k x J T } r.v.b.v.F 2 M.M.M.M.M.M.M.M.M.M.M.M.M.M.M.M.M.M.M.M.M.M.M.M.M.M.M.M.M.",
"M.M.M.M.M.M.M.M.M.M.M.M.M.M.M.M.M.M.M.M.M.M.M.M.M.M.M.M.M.M.u  .9.l.t.;.| L z j j z P | ..t.a.q. .u M.M.M.M.M.M.M.M.M.M.M.M.M.M.M.M.M.M.M.M.M.M.M.M.M.M.M.M.M.M.",
"M.M.M.M.M.M.M.M.M.M.M.M.M.M.M.M.M.M.M.M.M.M.M.M.M.M.M.M.M.M.M.5 s ` q.8.| I e : : e I | 8.q.` d 2 M.M.M.M.M.M.M.M.M.M.M.M.M.M.M.M.M.M.M.M.M.M.M.M.M.M.M.M.M.M.M.",
"M.M.M.M.M.M.M.M.M.M.M.M.M.M.M.M.M.M.M.M.M.M.M.M.M.M.M.M.M.M.M.M.1 6 t I ` } I u s I ' ' K t 6 1 M.M.M.M.M.M.M.M.M.M.M.M.M.M.M.M.M.M.M.M.M.M.M.M.M.M.M.M.M.M.M.M.",
"M.M.M.M.M.M.M.M.M.M.M.M.M.M.M.M.M.M.M.M.M.M.M.M.M.M.M.M.M.M.M.M.M.M.: 6 e y w 8 8 w t w 8 : M.M.M.M.M.M.M.M.M.M.M.M.M.M.M.M.M.M.M.M.M.M.M.M.M.M.M.M.M.M.M.M.M.M.",
"M.M.M.M.M.M.M.M.M.M.M.M.M.M.M.M.M.M.M.M.M.M.M.M.M.M.M.M.M.M.M.M.M.M.4 q 0 0 q 0 0 0 0 0 0 4 M.M.M.M.M.M.M.M.M.M.M.M.M.M.M.M.M.M.M.M.M.M.M.M.M.M.M.M.M.M.M.M.M.M.",
"M.M.M.M.M.M.M.M.M.M.M.M.M.M.M.M.M.M.M.M.M.M.M.M.M.M.M.M.M.M.M.M.M.: u } | } } | | } | | | i : M.M.M.M.M.M.M.M.M.M.M.M.M.M.M.M.M.M.M.M.M.M.M.M.M.M.M.M.M.M.M.M.M.",
"M.M.M.M.M.M.M.M.M.M.M.M.M.M.M.M.M.M.M.M.M.M.M.M.M.M.M.M.M.M.M.; ; h | q.w.q.q.q.w.w.w.w.w.} h ; - M.M.M.M.M.M.M.M.M.M.M.M.M.M.M.M.M.M.M.M.M.M.M.M.M.M.M.M.M.M.M.",
"M.M.M.M.M.M.M.M.M.M.M.M.M.M.M.M.M.M.M.M.M.M.M.M.M.M.M.M.M.M.q I I  .w.e.r.a.l.l.l.l.y.e.e.w. .I I q M.M.M.M.M.M.M.M.M.M.M.M.M.M.M.M.M.M.M.M.M.M.M.M.M.M.M.M.M.M.",
"M.M.M.M.M.M.M.M.M.M.M.M.M.M.M.M.M.M.M.M.M.M.M.M.M.M.M.M.M.q I r.y.r.r.e.r.f.v.v.c.v.g.e.w.r.r.y.y.I q M.M.M.M.M.M.M.M.M.M.M.M.M.M.M.M.M.M.M.M.M.M.M.M.M.M.M.M.M.",
"M.M.M.M.M.M.M.M.M.M.M.M.M.M.M.M.M.M.M.M.M.M.M.M.M.M.M.M.6 ~ r.q.q.w.e.e.r.f.v.x.x.c.l.r.r.w.w.w.w.r.~ 6 M.M.M.M.M.M.M.M.M.M.M.M.M.M.M.M.M.M.M.M.M.M.M.M.M.M.M.M.",
"M.M.M.M.M.M.M.M.M.M.M.M.M.M.M.M.M.M.M.M.M.M.M.M.M.M.M.4 ' w.8. . .8.e.r.z.x.x.x.x.x.x.z.r.r.8.| | 8.w.' 4 M.M.M.M.M.M.M.M.M.M.M.M.M.M.M.M.M.M.M.M.M.M.M.M.M.M.M.",
"M.M.M.M.M.M.M.M.M.M.M.M.M.M.M.M.M.M.M.M.M.M.M.M.M.M.M.5 >.y.8.| } 8.r.r.z.v.x.x.x.x.v.z.r.e.8.| } 8.t.>.4 M.M.M.M.M.M.M.M.M.M.M.M.M.M.M.M.M.M.M.M.M.M.M.M.M.M.M.",
"M.M.M.M.M.M.M.M.M.M.M.M.M.M.M.M.M.M.M.M.M.M.M.M.M.M.0 S 8.w.| / ' 8.e.r.x.x.x.x.x.x.c.x.r.w.8.' /  .w.8.S 0 M.M.M.M.M.M.M.M.M.M.M.M.M.M.M.M.M.M.M.M.M.M.M.M.M.M.",
"M.M.M.M.M.M.M.M.M.M.M.M.M.M.M.M.M.M.M.M.M.M.M.M.M.& u e.q. .P h ) 8.r.r.f.x.x.x.x.x.x.l.r.r.8._ f K  .q.e.u & M.M.M.M.M.M.M.M.M.M.M.M.M.M.M.M.M.M.M.M.M.M.M.M.M.",
"M.M.M.M.M.M.M.M.M.M.M.M.M.M.M.M.M.M.M.M.M.M.M.M.M.- s q...I w 6 / 9.e.e.r.f.v.x.x.v.l.r.e.e.8./ 6 w I  .w.s - M.M.M.M.M.M.M.M.M.M.M.M.M.M.M.M.M.M.M.M.M.M.M.M.M.",
"M.M.M.M.M.M.M.M.M.M.M.M.M.M.M.M.M.M.M.M.M.M.M.M.; A :.w.| u ; 2 / :.7.e.e.f.c.x.x.v.f.e.e.7.:./ 5 q I  .w...A ; M.M.M.M.M.M.M.M.M.M.M.M.M.M.M.M.M.M.M.M.M.M.M.M.",
"M.M.M.M.M.M.M.M.M.M.M.M.M.M.M.M.M.M.M.M.M.M.M.M.; T t.6.| w & 3 / } >.e.e.y.z.x.x.l.y.e.e...} / 5 3 i ! >.t.T ; M.M.M.M.M.M.M.M.M.M.M.M.M.M.M.M.M.M.M.M.M.M.M.M.",
"M.M.M.M.M.M.M.M.M.M.M.M.M.M.M.M.M.M.M.M.M.M.M.M.; I q.} ) e = 2 /  .7.e.e.w.y.x.x.y.e.e.e.7.../ 5 & 8 S _ q.T ; M.M.M.M.M.M.M.M.M.M.M.M.M.M.M.M.M.M.M.M.M.M.M.M.",
"M.M.M.M.M.M.M.M.M.M.M.M.M.M.M.M.M.M.M.M.M.M.M.M.; T q.) S M.M.4 / 9.e.e.e.e.y.x.x.y.e.e.e.e.9.( 4 M.M.S ` q.I ; M.M.M.M.M.M.M.M.M.M.M.M.M.M.M.M.M.M.M.M.M.M.M.M.",
"M.M.M.M.M.M.M.M.M.M.M.M.M.M.M.M.M.M.M.M.M.M.M.M.- I q.` S M.M.4  .r.e.e.e.e.a.x.x.a.e.e.e.r.e. .4 M.M.S _ w.I - M.M.M.M.M.M.M.M.M.M.M.M.M.M.M.M.M.M.M.M.M.M.M.M.",
"M.M.M.M.M.M.M.M.M.M.M.M.M.M.M.M.M.M.M.M.M.M.M.4 A ..9._ S M.M.4 >.r.e.e.e.e.a.c.c.a.w.e.e.e.r.:.6 M.M.S ` 8...A 4 M.M.M.M.M.M.M.M.M.M.M.M.M.M.M.M.M.M.M.M.M.M.M.",
"M.M.M.M.M.M.M.M.M.M.M.M.M.M.M.M.M.M.M.M.M.M.M.6 >.y.8.` P s % 5 7.r.e.e.e.e.t.l.l.t.e.e.e.e.y.7.4 % s P ` 8.y.6.4 M.M.M.M.M.M.M.M.M.M.M.M.M.M.M.M.M.M.M.M.M.M.M.",
"M.M.M.M.M.M.M.M.M.M.M.M.M.M.M.M.M.M.M.M.M.M.M.4 ..r.7.} ` w = q w.f.e.e.e.e.e.e.r.e.e.e.e.e.f.e.q = w ` } 7.r.;.4 M.M.M.M.M.M.M.M.M.M.M.M.M.M.M.M.M.M.M.M.M.M.M.",
"M.M.M.M.M.M.M.M.M.M.M.M.M.M.M.M.M.M.M.M.M.M.M.3 ) :. .` H 6 t q.r.r.e.e.e.e.e.e.e.e.e.e.e.e.e.r.8.t 6 H `  .:.) 4 M.M.M.M.M.M.M.M.M.M.M.M.M.M.M.M.M.M.M.M.M.M.M.",
"M.M.M.M.M.M.M.M.M.M.M.M.M.M.M.M.M.M.M.M.M.M.M.5 S I I I A 4 d x.r.e.e.e.e.r.e.r.r.e.r.e.e.e.e.r.c.h 6 c P I T S 2 M.M.M.M.M.M.M.M.M.M.M.M.M.M.M.M.M.M.M.M.M.M.M.",
"M.M.M.M.M.M.M.M.M.M.M.M.M.M.M.M.M.M.M.M.M.M.M.: w e w w w 1 d f.r.e.e.e.r.9.9.9.9.9.9.r.e.e.e.r.a.s 1 e e w e q : M.M.M.M.M.M.M.M.M.M.M.M.M.M.M.M.M.M.M.M.M.M.M.",
"M.M.M.M.M.M.M.M.M.M.M.M.M.M.M.M.M.M.M.M.M.M.M.M.; - ; ; ; = s w.r.e.e.e.w.>.' / ( _ ..e.e.e.e.r.e.u = ; - ; ; ; M.M.M.M.M.M.M.M.M.M.M.M.M.M.M.M.M.M.M.M.M.M.M.M.",
"M.M.M.M.M.M.M.M.M.M.M.M.M.M.M.M.M.M.M.M.M.M.M.M.M.M.M.M.M.& u w.r.e.e.w. . .F 5 3 F  ...w.e.e.r.e.u & M.M.M.M.M.M.M.M.M.M.M.M.M.M.M.M.M.M.M.M.M.M.M.M.M.M.M.M.M.",
"M.M.M.M.M.M.M.M.M.M.M.M.M.M.M.M.M.M.M.M.M.M.M.M.M.M.M.M.M.& u e.r.e.e.q. .A 4 - - 6 A | q.r.e.e.e.u & M.M.M.M.M.M.M.M.M.M.M.M.M.M.M.M.M.M.M.M.M.M.M.M.M.M.M.M.M.",
"M.M.M.M.M.M.M.M.M.M.M.M.M.M.M.M.M.M.M.M.M.M.M.M.M.M.M.M.M.& i r.e.e.e.w.| w & - - & q | q.r.e.r.r.i & M.M.M.M.M.M.M.M.M.M.M.M.M.M.M.M.M.M.M.M.M.M.M.M.M.M.M.M.M.",
"M.M.M.M.M.M.M.M.M.M.M.M.M.M.M.M.M.M.M.M.M.M.M.M.M.M.M.M.M.= t ..e.e.e.w.| w = M.M.= w  .q.r.r.w.:.t & M.M.M.M.M.M.M.M.M.M.M.M.M.M.M.M.M.M.M.M.M.M.M.M.M.M.M.M.M.",
"M.M.M.M.M.M.M.M.M.M.M.M.M.M.M.M.M.M.M.M.M.M.M.M.M.M.M.M.M.M.M.0 6.r.e.w.| w = M.M.= w | w.e.r.>.0 M.M.M.M.M.M.M.M.M.M.M.M.M.M.M.M.M.M.M.M.M.M.M.M.M.M.M.M.M.M.M.",
"M.M.M.M.M.M.M.M.M.M.M.M.M.M.M.M.M.M.M.M.M.M.M.M.M.M.M.M.M.M.M.4 :.r.r.q. .w & M.M.& w | q.e.r.:.4 M.M.M.M.M.M.M.M.M.M.M.M.M.M.M.M.M.M.M.M.M.M.M.M.M.M.M.M.M.M.M.",
"M.M.M.M.M.M.M.M.M.M.M.M.M.M.M.M.M.M.M.M.M.M.M.M.M.M.M.M.M.M.M.4 :.t.r.w.| w = M.M.= w  .w.e.t.:.4 M.M.M.M.M.M.M.M.M.M.M.M.M.M.M.M.M.M.M.M.M.M.M.M.M.M.M.M.M.M.M.",
"M.M.M.M.M.M.M.M.M.M.M.M.M.M.M.M.M.M.M.M.M.M.M.M.M.M.M.M.M.M.M.4 :.r.r.w. .w = M.M.= w | q.r.r.:.6 M.M.M.M.M.M.M.M.M.M.M.M.M.M.M.M.M.M.M.M.M.M.M.M.M.M.M.M.M.M.M.",
"M.M.M.M.M.M.M.M.M.M.M.M.M.M.M.M.M.M.M.M.M.M.M.M.M.M.M.M.M.M.M.6 :.r.e.q.| w = M.M.= w  .q.r.t.:.4 M.M.M.M.M.M.M.M.M.M.M.M.M.M.M.M.M.M.M.M.M.M.M.M.M.M.M.M.M.M.M.",
"M.M.M.M.M.M.M.M.M.M.M.M.M.M.M.M.M.M.M.M.M.M.M.M.M.M.M.M.M.M.M.4 :.r.r.w.| w = M.M.= w | q.r.t.:.4 M.M.M.M.M.M.M.M.M.M.M.M.M.M.M.M.M.M.M.M.M.M.M.M.M.M.M.M.M.M.M.",
"M.M.M.M.M.M.M.M.M.M.M.M.M.M.M.M.M.M.M.M.M.M.M.M.M.M.M.M.M.M.M.6 :.t.q.6.| w & M.M.& w | 6.q.t.:.6 M.M.M.M.M.M.M.M.M.M.M.M.M.M.M.M.M.M.M.M.M.M.M.M.M.M.M.M.M.M.M.",
"M.M.M.M.M.M.M.M.M.M.M.M.M.M.M.M.M.M.M.M.M.M.M.M.M.M.M.M.M.M.M.4 :.t.7.} } w & M.M.& w | } 7.y.:.4 M.M.M.M.M.M.M.M.M.M.M.M.M.M.M.M.M.M.M.M.M.M.M.M.M.M.M.M.M.M.M.",
"M.M.M.M.M.M.M.M.M.M.M.M.M.M.M.M.M.M.M.M.M.M.M.M.M.M.M.M.M.M.M.6 :.r.7.| ` w = M.M.= w ` } 7.r...6 M.M.M.M.M.M.M.M.M.M.M.M.M.M.M.M.M.M.M.M.M.M.M.M.M.M.M.M.M.M.M.",
"M.M.M.M.M.M.M.M.M.M.M.M.M.M.M.M.M.M.M.M.M.M.M.M.M.M.M.M.M.M.M.4 ( :. .` H 8 - M.M.= 8 F ` ..:.) 4 M.M.M.M.M.M.M.M.M.M.M.M.M.M.M.M.M.M.M.M.M.M.M.M.M.M.M.M.M.M.M.",
"M.M.M.M.M.M.M.M.M.M.M.M.M.M.M.M.M.M.M.M.M.M.M.M.M.M.M.M.M.M.M.3 ( :.` I S 6 = M.M.= 6 n I _ ..( 3 M.M.M.M.M.M.M.M.M.M.M.M.M.M.M.M.M.M.M.M.M.M.M.M.M.M.M.M.M.M.M.",
"M.M.M.M.M.M.M.M.M.M.M.M.M.M.M.M.M.M.M.M.M.M.M.M.M.M.M.M.M.M.M.5 S H S y e 6 M.M.M.M.6 t e c P S 3 M.M.M.M.M.M.M.M.M.M.M.M.M.M.M.M.M.M.M.M.M.M.M.M.M.M.M.M.M.M.M.",
"M.M.M.M.M.M.M.M.M.M.M.M.M.M.M.M.M.M.M.M.M.M.M.M.M.M.M.M.M.M.M.M.; : ; , ; M.M.M.M.M.M.; ; ; ; ; M.M.M.M.M.M.M.M.M.M.M.M.M.M.M.M.M.M.M.M.M.M.M.M.M.M.M.M.M.M.M.M.",
"M.M.M.M.M.M.M.M.M.M.M.M.M.M.M.M.M.M.M.M.M.M.M.M.M.M.M.M.M.M.M.M.M.M.M.M.M.M.M.M.M.M.M.M.M.M.M.M.M.M.M.M.M.M.M.M.M.M.M.M.M.M.M.M.M.M.M.M.M.M.M.M.M.M.M.M.M.M.M.M.",
"M.M.M.M.M.M.M.M.M.M.M.M.M.M.M.M.M.M.M.M.M.M.M.M.M.M.M.M.M.M.M.M.M.M.M.M.M.M.M.M.M.M.M.M.M.M.M.M.M.M.M.M.M.M.M.M.M.M.M.M.M.M.M.M.M.M.M.M.M.M.M.M.M.M.M.M.M.M.M.M.",
"M.M.M.M.M.M.M.M.M.M.M.M.M.M.M.M.M.M.M.M.M.M.M.M.M.M.M.M.M.M.M.M.M.M.M.M.M.M.M.M.M.M.M.M.M.M.M.M.M.M.M.M.M.M.M.M.M.M.M.M.M.M.M.M.M.M.M.M.M.M.M.M.M.M.M.M.M.M.M.M.",
"M.M.M.M.M.M.M.M.M.M.M.M.M.M.M.M.M.M.M.M.M.M.M.M.M.M.M.M.M.M.M.M.M.M.M.M.M.M.M.M.M.M.M.M.M.M.M.M.M.M.M.M.M.M.M.M.M.M.M.M.M.M.M.M.M.M.M.M.M.M.M.M.M.M.M.M.M.M.M.M."
};
