/* XPM */
static char *YnVubnktRislMjgxJTI5[] = {
/* columns rows colors chars-per-pixel */
"80 80 150 2 ",
"   c #0F0500",
".  c #00000D",
"X  c #1C120D",
"o  c #020A1A",
"O  c #2C0F00",
"+  c #201003",
"@  c #371D03",
"#  c #2E2014",
"$  c #111826",
"%  c #2E2B2B",
"&  c #312E2E",
"*  c #222A38",
"=  c #353232",
"-  c #393636",
";  c #3C3837",
":  c #3D3A3A",
">  c #413D3D",
",  c #614C39",
"<  c #0A2647",
"1  c #153050",
"2  c #1E3B5B",
"3  c #2F3441",
"4  c #454242",
"5  c #4A4647",
"6  c #4D4949",
"7  c #42464E",
"8  c #524E4E",
"9  c #54504F",
"0  c #454954",
"q  c #575353",
"w  c #5B5756",
"e  c #5E5A5A",
"r  c #655950",
"t  c #615D5D",
"y  c #605F65",
"u  c #59687C",
"i  c #666262",
"p  c #696565",
"a  c #6B6867",
"s  c #64676F",
"d  c #6D6768",
"f  c #6E6A6A",
"g  c #726D6C",
"h  c #7A6E68",
"j  c #757171",
"k  c #7A7575",
"l  c #7E7B7A",
"z  c #98572C",
"x  c #B34133",
"c  c #AA5D4E",
"v  c #B0515E",
"b  c #8B654E",
"n  c #907B6E",
"m  c #837D7D",
"M  c #957E72",
"N  c #BB706A",
"B  c #83807F",
"V  c #8C807D",
"C  c #9A857A",
"Z  c #9F8274",
"A  c #A0816F",
"S  c #BE8D6F",
"D  c #B88E75",
"F  c #B68C73",
"G  c #BE967E",
"H  c #C3967C",
"J  c #5E6C80",
"K  c #687586",
"L  c #777D88",
"P  c #7E8085",
"I  c #858180",
"U  c #8A8584",
"Y  c #8E8B8A",
"T  c #918D8C",
"R  c #9A8F8A",
"E  c #94908F",
"W  c #848A94",
"Q  c #969191",
"!  c #999594",
"~  c #9E9999",
"^  c #A59389",
"/  c #B89E8F",
"(  c #A29D9C",
")  c #A5A19F",
"_  c #BBA396",
"`  c #8F9DAE",
"'  c #919EAD",
"]  c #A09FA2",
"[  c #A6A2A1",
"{  c #AAA6A5",
"}  c #ACA8A7",
"|  c #AEA9A8",
" . c #B2AEAD",
".. c #B3AAA7",
"X. c #B4B0AF",
"o. c #B6B2B1",
"O. c #BAB5B4",
"+. c #BCB8B7",
"@. c #BEBAB9",
"#. c #C8A189",
"$. c #CFA88F",
"%. c #C6A28C",
"&. c #CDAD9B",
"*. c #D1AA92",
"=. c #D2AE98",
"-. c #D6B39D",
";. c #D9B59F",
":. c #C4B1A7",
">. c #C9B3A6",
",. c #D9B7A2",
"<. c #D7B9A6",
"1. c #DBBEAC",
"2. c #D3B7A5",
"3. c #C0B9B7",
"4. c #C2BDBC",
"5. c #D4BFB2",
"6. c #C5C1BF",
"7. c #DEC5B5",
"8. c #E2CBBE",
"9. c #B6BFCB",
"0. c #BFC6CF",
"q. c #B6CAE1",
"w. c #BFCFE1",
"e. c #C6C2C1",
"r. c #C9C5C4",
"t. c #CDC8C6",
"y. c #CECAC9",
"u. c #DBCBC1",
"i. c #D2CECC",
"p. c #D4D0CE",
"a. c #DFD2CA",
"s. c #D7D3D1",
"d. c #D9D5D3",
"f. c #DDD9D7",
"g. c #DFDAD8",
"h. c #E5CFC1",
"j. c #E4D1C7",
"k. c #E8D5CA",
"l. c #E4DEDC",
"z. c #E6E1DF",
"x. c #E7E2E0",
"c. c #EBE5E3",
"v. c #EFE9E7",
"b. c #EFEAE8",
"n. c #F2EAE7",
"m. c #F1EBE9",
"M. c #F6F1EF",
"N. c #FAF9F9",
"B. c #F9F3F1",
"V. c None",
/* pixels */
"V.V.V.V.V.V.V.V.V.V.V.V.V.V.V.V.V.V.V.V.V.V.V.V.V.V.V.V.V.V.V.V.V.V.V.V.V.V.V.V.V.V.V.V.V.V.V.V.V.V.V.V.V.V.V.V.V.V.V.V.V.V.V.V.V.V.V.V.V.V.V.V.V.V.V.V.V.V.V.V.",
"V.V.V.V.V.V.V.V.V.V.V.V.V.V.V.V.V.V.V.V.V.V.V.V.V.V.V.V.V.V.V.V.V.V.V.V.V.V.V.V.V.V.V.V.V.V.V.V.V.V.V.V.V.V.V.V.V.V.V.V.V.V.V.V.V.V.V.V.V.V.V.V.V.V.V.V.V.V.V.V.",
"V.V.V.V.V.V.V.V.V.V.V.V.V.V.V.V.V.V.V.V.V.V.V.V.V.V.V.V.V.V.V.V.V.V.V.V.V.V.V.V.V.V.V.V.V.V.V.V.V.V.V.V.V.V.V.V.V.V.V.V.V.V.V.V.V.V.V.V.V.V.V.V.V.V.V.V.V.V.V.V.",
"V.V.V.V.V.V.V.V.V.V.V.V.V.V.V.V.V.V.V.V.V.V.V.V.V.V.V.V.V.V.V.V.V.V.V.V.V.V.V.V.V.V.V.V.V.V.V.V.V.V.V.V.V.V.V.V.V.V.V.V.V.V.V.V.V.V.V.V.V.V.V.V.V.V.V.V.V.V.V.V.",
"V.V.V.V.V.V.V.V.V.V.V.V.V.V.V.V.V.V.V.V.V.V.V.V.V.V.V.V.V.V.V.V.V.V.V.V.V.V.V.V.V.V.V.V.V.V.V.V.V.V.V.V.V.V.V.V.V.V.V.V.V.V.V.V.V.V.V.V.V.V.V.V.V.V.V.V.V.V.V.V.",
"V.V.V.V.V.V.V.V.V.V.V.V.V.V.V.V.V.V.V.- : > 4 4 V.V.V.V.V.V.V.V.V.V.V.V.V.V.V.V.V.V.V.V.V.V.V.V.V.V.V.V.V.V.V.V.4 4 4 : ; V.V.V.V.V.V.V.V.V.V.V.V.V.V.V.V.V.V.V.",
"V.V.V.V.V.V.V.V.V.V.V.V.V.V.V.V.V.V.- = w ~ } T 8 = - V.V.V.V.V.V.V.V.V.V.V.V.V.V.V.V.V.V.V.V.V.V.V.V.V.V.- = 8 T } ! w = ; V.V.V.V.V.V.V.V.V.V.V.V.V.V.V.V.V.V.",
"V.V.V.V.V.V.V.V.V.V.V.V.V.V.V.V.V.V.: q Y s.c.d.@.Q p 4 V.V.V.V.V.V.V.V.V.V.V.V.V.V.V.V.V.V.V.V.V.V.V.V.4 i Q 4.d.x.p.T q : V.V.V.V.V.V.V.V.V.V.V.V.V.V.V.V.V.V.",
"V.V.V.V.V.V.V.V.V.V.V.V.V.V.V.V.V.V.4 l O.x.j.1.h.u.o.! j > V.V.V.V.V.V.V.V.V.V.V.V.V.V.V.V.V.V.V.V.: j ! O.u.h.7.h.x.+.k 4 V.V.V.V.V.V.V.V.V.V.V.V.V.V.V.V.V.V.",
"V.V.V.V.V.V.V.V.V.V.V.V.V.V.V.V.V.V.4 T i.l.&.S $.8.c.x.o.a 6 V.V.V.V.V.V.V.V.V.V.V.V.V.V.V.V.V.V.6 a o.x.c.7.$.D &.l.i.T 4 V.V.V.V.V.V.V.V.V.V.V.V.V.V.V.V.V.V.",
"V.V.V.V.V.V.V.V.V.V.V.V.V.V.V.V.V.V.4 B  .t.&.H *.5.i.d.s.@.l 6 4 4 V.V.V.V.V.V.V.V.V.V.V.V.4 4 6 l 3.s.d.y.5.*.H &.t. .B 4 V.V.V.V.V.V.V.V.V.V.V.V.V.V.V.V.V.V.",
"V.V.V.V.V.V.V.V.V.V.V.V.V.V.V.V.V.V.V.: i [ >.-.-.>.3.d.v.c.t.[ I e > V.V.V.V.V.V.V.V.V.V.> t m [ t.c.v.f.@.>.-.-.>.[ i : V.V.V.V.V.V.V.V.V.V.V.V.V.V.V.V.V.V.V.",
"V.V.V.V.V.V.V.V.V.V.V.V.V.V.V.V.V.V.V.V.V.8 C ;.-.-.>.<.h.x.i.| U l f 6 = V.V.V.V.V.V.= 6 g l U | s.c.8.<.2.-.-.;.C 9 V.V.V.V.V.V.V.V.V.V.V.V.V.V.V.V.V.V.V.V.V.",
"V.V.V.V.V.V.V.V.V.V.V.V.V.V.V.V.V.V.V.V.V.; n ;.,.-.-.-.,.7.j.y.| Q m g t > V.V.V.V.: w g B Q ..y.a.7.,.=.;.-.,.;.n ; V.V.V.V.V.V.V.V.V.V.V.V.V.V.V.V.V.V.V.V.V.",
"V.V.V.V.V.V.V.V.V.V.V.V.V.V.V.V.V.V.V.V.V.: h / #.$.;.;.-.-.k.c.4.( m m p : % V.V.& : d m m ~ 6.c.k.-.-.-.-.*.#./ h : V.V.V.V.V.V.V.V.V.V.V.V.V.V.V.V.V.V.V.V.V.",
"V.V.V.V.V.V.V.V.V.V.V.V.V.V.V.V.V.V.V.V.V.: q h A G $.-.-.,.u.d.4.] T m h t e i i e e j m T ] 4.s.u.-.-.-.*.G A h q : V.V.V.V.V.V.V.V.V.V.V.V.V.V.V.V.V.V.V.V.V.",
"V.V.V.V.V.V.V.V.V.V.V.V.V.V.V.V.V.V.V.V.V.V.V.4 f M F %.=.=.:.o.o.O. .T Q o.i.s.s.i.O.Q Q  .o.o.o.:.=.&.%.F M f 4 V.V.V.V.V.V.V.V.V.V.V.V.V.V.V.V.V.V.V.V.V.V.V.",
"V.V.V.V.V.V.V.V.V.V.V.V.V.V.V.V.V.V.V.V.V.V.V.V.> w m m C D _ o.O.O.o. .4.l.v.v.v.v.l.4. .o.O.O.O._ F C V m w > V.V.V.V.V.V.V.V.V.V.V.V.V.V.V.V.V.V.V.V.V.V.V.V.",
"V.V.V.V.V.V.V.V.V.V.V.V.V.V.V.V.V.V.V.V.V.V.V.V.- : 6 g m M ( o.o.3.i.f.x.v.v.v.v.v.v.z.f.i.3.O.o.( V m f 6 : ; V.V.V.V.V.V.V.V.V.V.V.V.V.V.V.V.V.V.V.V.V.V.V.V.",
"V.V.V.V.V.V.V.V.V.V.V.V.V.V.V.V.V.V.V.V.V.V.V.V.V.= : 6 i m ( +.e.s.x.v.v.v.v.v.v.v.v.m.v.l.s.e.+.( m i 6 : = V.V.V.V.V.V.V.V.V.V.V.V.V.V.V.V.V.V.V.V.V.V.V.V.V.",
"V.V.V.V.V.V.V.V.V.V.V.V.V.V.V.V.V.V.V.V.V.V.V.V.V.V.; = > y T @.d.v.v.v.v.v.v.v.v.v.v.v.v.v.c.s.3.T t 4 = - V.V.V.V.V.V.V.V.V.V.V.V.V.V.V.V.V.V.V.V.V.V.V.V.V.V.",
"V.V.V.V.V.V.V.V.V.V.V.V.V.V.V.V.V.V.V.V.V.V.V.V.V.V.V.; = : I t.c.m.m.m.v.v.v.v.v.v.v.v.m.m.m.v.y.V : = - V.V.V.V.V.V.V.V.V.V.V.V.V.V.V.V.V.V.V.V.V.V.V.V.V.V.V.",
"V.V.V.V.V.V.V.V.V.V.V.V.V.V.V.V.V.V.V.V.V.V.V.V.V.V.V.V.V.4 ( c.l.d.f.x.v.v.v.v.v.v.v.v.x.f.s.l.v.( 4 V.V.V.V.V.V.V.V.V.V.V.V.V.V.V.V.V.V.V.V.V.V.V.V.V.V.V.V.V.",
"V.V.V.V.V.V.V.V.V.V.V.V.V.V.V.V.V.V.V.V.V.V.V.V.V.V.V.- 5 k 4.r.0 $ 3 ] f.f.l.v.v.l.d.f.] 3 $ 0 r.4.j 5 ; V.V.V.V.V.V.V.V.V.V.V.V.V.V.V.V.V.V.V.V.V.V.V.V.V.V.V.",
"V.V.V.V.V.V.V.V.V.V.V.V.V.V.V.V.V.V.V.V.V.V.V.V.V.V.V.= 6 k y 3 o . o * s  .e.e.e.r. .s * o . o 3 i k 6 = V.V.V.V.V.V.V.V.V.V.V.V.V.V.V.V.V.V.V.V.V.V.V.V.V.V.V.",
"V.V.V.V.V.V.V.V.V.V.V.V.V.V.V.V.V.V.V.V.V.V.V.V.V.V.4 f U ! L u J 7 X   > ( 4.e.e.6.] >   X 7 J u L ! U f 4 V.V.V.V.V.V.V.V.V.V.V.V.V.V.V.V.V.V.V.V.V.V.V.V.V.V.",
"V.V.V.V.V.V.V.V.V.V.V.V.V.V.V.V.V.V.V.V.V.V.V.V.V.V.4 T +.O.0.q.q.m @ O , O.l.l.g.g.3., O @ l q.q.9.O.+.T 4 V.V.V.V.V.V.V.V.V.V.V.V.V.V.V.V.V.V.V.V.V.V.V.V.V.V.",
"V.V.V.V.V.V.V.V.V.V.V.V.V.V.V.V.V.V.V.V.V.V.V.V.V.V.4 ! e.@.0.w.w.L # + r l.m.v.b.M.k.r + # L w.w.0.4.6.! 4 V.V.V.V.V.V.V.V.V.V.V.V.V.V.V.V.V.V.V.V.V.V.V.V.V.V.",
"V.V.V.V.V.V.V.V.V.V.V.V.V.V.V.V.V.V.V.V.V.V.V.V.V.V.5  .m.v.m.N.N.' 1 < u s.n.c.c.n.d.u < 1 ` N.N.M.c.b. .6 V.V.V.V.V.V.V.V.V.V.V.V.V.V.V.V.V.V.V.V.V.V.V.V.V.V.",
"V.V.V.V.V.V.V.V.V.V.V.V.V.V.V.V.V.V.V.V.V.V.V.V.V.V.5 o.m.n.m.M.N.` 2 K ..<.1.1.1.1.<...K 2 ` N.M.v.v.M.o.6 V.V.V.V.V.V.V.V.V.V.V.V.V.V.V.V.V.V.V.V.V.V.V.V.V.V.",
"V.V.V.V.V.V.V.V.V.V.V.V.V.V.V.V.V.V.V.V.V.V.V.V.V.V.4 m 4.x.m.m.m.e.W Y ^ H N v v N H ^ W W e.M.m.m.x.4.m 4 V.V.V.V.V.V.V.V.V.V.V.V.V.V.V.V.V.V.V.V.V.V.V.V.V.V.",
"V.V.V.V.V.V.V.V.V.V.V.V.V.V.V.V.V.V.V.V.V.V.V.V.V.V.: 8 U z.B.m.m.f.+.( R A c x x c Z R ( O.d.m.m.B.x.I 6 > V.V.V.V.V.V.V.V.V.V.V.V.V.V.V.V.V.V.V.V.V.V.V.V.V.V.",
"V.V.V.V.V.V.V.V.V.V.V.V.V.V.V.V.V.V.V.V.V.V.V.V.V.V.V.V.i | e.p.z.d.4.3.{ B b z z b m { +.4.d.x.p.e...i V.V.V.V.V.V.V.V.V.V.V.V.V.V.V.V.V.V.V.V.V.V.V.V.V.V.V.V.",
"V.V.V.V.V.V.V.V.V.V.V.V.V.V.V.V.V.V.V.V.V.V.V.V.V.V.V.V.V.: w I  .r.r.3.{ U t 4 4 t U } +.t.e. .I w : V.V.V.V.V.V.V.V.V.V.V.V.V.V.V.V.V.V.V.V.V.V.V.V.V.V.V.V.V.",
"V.V.V.V.V.V.V.V.V.V.V.V.V.V.V.V.V.V.V.V.V.V.V.V.V.V.V.V.V.V.: > 4 y I ] X...T k k Y } X.[ U t 4 > : V.V.V.V.V.V.V.V.V.V.V.V.V.V.V.V.V.V.V.V.V.V.V.V.V.V.V.V.V.V.",
"V.V.V.V.V.V.V.V.V.V.V.V.V.V.V.V.V.V.V.V.V.V.V.V.V.V.V.V.V.V.V.V.V.> 4 8 8 9 5 4 4 6 9 9 6 4 > V.V.V.V.V.V.V.V.V.V.V.V.V.V.V.V.V.V.V.V.V.V.V.V.V.V.V.V.V.V.V.V.V.",
"V.V.V.V.V.V.V.V.V.V.V.V.V.V.V.V.V.V.V.V.V.V.V.V.V.V.V.V.V.V.V.V.V.t B B B B B m B I B B I I e V.V.V.V.V.V.V.V.V.V.V.V.V.V.V.V.V.V.V.V.V.V.V.V.V.V.V.V.V.V.V.V.V.",
"V.V.V.V.V.V.V.V.V.V.V.V.V.V.V.V.V.V.V.V.V.V.V.V.V.V.V.V.V.V.V.4 p T e.t.t.e.r.t.r.r.e.t.t.e.Q i 4 V.V.V.V.V.V.V.V.V.V.V.V.V.V.V.V.V.V.V.V.V.V.V.V.V.V.V.V.V.V.V.",
"V.V.V.V.V.V.V.V.V.V.V.V.V.V.V.V.V.V.V.V.V.V.V.V.V.V.V.V.V.e e g | y.s.d.d.f.f.f.f.g.g.d.s.s.y. .g e e V.V.V.V.V.V.V.V.V.V.V.V.V.V.V.V.V.V.V.V.V.V.V.V.V.V.V.V.V.",
"V.V.V.V.V.V.V.V.V.V.V.V.V.V.V.V.V.V.V.V.V.V.V.V.V.V.V.4 j r.s.s.s.d.s.s.f.v.v.v.b.b.c.f.s.s.s.p.s.s.t.j 4 V.V.V.V.V.V.V.V.V.V.V.V.V.V.V.V.V.V.V.V.V.V.V.V.V.V.V.",
"V.V.V.V.V.V.V.V.V.V.V.V.V.V.V.V.V.V.V.V.V.V.V.V.V.V.6 ~ y.p.s.s.d.s.s.s.f.v.v.v.v.m.v.f.p.s.s.s.s.s.p.y.~ 6 V.V.V.V.V.V.V.V.V.V.V.V.V.V.V.V.V.V.V.V.V.V.V.V.V.V.",
"V.V.V.V.V.V.V.V.V.V.V.V.V.V.V.V.V.V.V.V.V.V.V.V.- g | y.p.6.+.6.i.s.d.l.c.v.v.v.v.v.v.c.z.d.s.p.6.+.4.p.y.| j = V.V.V.V.V.V.V.V.V.V.V.V.V.V.V.V.V.V.V.V.V.V.V.V.",
"V.V.V.V.V.V.V.V.V.V.V.V.V.V.V.V.V.V.V.V.V.V.V.V.= k s.g.t.+.o.+.y.s.d.x.m.v.v.v.v.v.v.v.x.d.s.i.+.o.+.y.g.s.k = V.V.V.V.V.V.V.V.V.V.V.V.V.V.V.V.V.V.V.V.V.V.V.V.",
"V.V.V.V.V.V.V.V.V.V.V.V.V.V.V.V.V.V.V.V.V.V.V.V.g ~ p.p.@.[ } @.i.d.d.x.m.v.v.v.v.v.v.m.x.d.s.i.+.} [ @.p.p.~ f V.V.V.V.V.V.V.V.V.V.V.V.V.V.V.V.V.V.V.V.V.V.V.V.",
"V.V.V.V.V.V.V.V.V.V.V.V.V.V.V.V.V.V.V.V.V.V.% q +.f.t.o.! k Q @.i.d.d.l.c.v.v.v.v.v.v.c.z.d.d.i.@.Q k Q O.t.f.O.q % V.V.V.V.V.V.V.V.V.V.V.V.V.V.V.V.V.V.V.V.V.V.",
"V.V.V.V.V.V.V.V.V.V.V.V.V.V.V.V.V.V.V.V.V.V.: t +.y.o.Y i 4 l @.y.s.s.s.f.v.m.v.v.m.v.f.s.s.s.y.@.l 4 a E X.i.+.e : V.V.V.V.V.V.V.V.V.V.V.V.V.V.V.V.V.V.V.V.V.V.",
"V.V.V.V.V.V.V.V.V.V.V.V.V.V.V.V.V.V.V.V.V.: U 6.s.y.| i : : l O.+.e.s.s.f.v.m.v.v.v.v.f.s.s.e.+.O.l 4 i T X.t.p.e.U > V.V.V.V.V.V.V.V.V.V.V.V.V.V.V.V.V.V.V.V.V.",
"V.V.V.V.V.V.V.V.V.V.V.V.V.V.V.V.V.V.V.V.V.: T s.e.@.| e & : m O.o.e.s.s.d.f.x.v.v.c.f.d.s.s.6.o.O.m : 4 i U | e.s.E : V.V.V.V.V.V.V.V.V.V.V.V.V.V.V.V.V.V.V.V.V.",
"V.V.V.V.V.V.V.V.V.V.V.V.V.V.V.V.V.V.V.V.V.: T p.@.{ Q p & : m O.e.y.s.s.p.s.z.b.b.l.s.s.s.s.y.e.O.l : & q m ! @.i.T : V.V.V.V.V.V.V.V.V.V.V.V.V.V.V.V.V.V.V.V.V.",
"V.V.V.V.V.V.V.V.V.V.V.V.V.V.V.V.V.V.V.V.V.: T i.@.~ m V.V.: B e.p.d.s.s.s.p.z.c.c.z.d.s.s.s.s.p.e.I : V.V.m ( @.i.T : V.V.V.V.V.V.V.V.V.V.V.V.V.V.V.V.V.V.V.V.V.",
"V.V.V.V.V.V.V.V.V.V.V.V.V.V.V.V.V.V.V.V.V.q ~ p.3.~ m V.V.: T d.d.s.s.s.s.d.z.b.b.z.s.s.s.s.s.d.f.Y : V.V.m ~ @.i.( q V.V.V.V.V.V.V.V.V.V.V.V.V.V.V.V.V.V.V.V.V.",
"V.V.V.V.V.V.V.V.V.V.V.V.V.V.V.V.V.V.V.& i 4.d.i.@.~ I V.V.> T d.d.s.s.s.s.d.z.v.c.z.d.s.d.s.s.d.f.E : V.V.I ~ @.i.d.4.i = V.V.V.V.V.V.V.V.V.V.V.V.V.V.V.V.V.V.V.",
"V.V.V.V.V.V.V.V.V.V.V.V.V.V.V.V.V.V.V.= p r.f.i.@.o.( y & > ! c.f.p.d.s.s.s.d.f.f.d.s.s.s.s.s.f.x.~ : & i ) o.+.i.f.r.p & V.V.V.V.V.V.V.V.V.V.V.V.V.V.V.V.V.V.V.",
"V.V.V.V.V.V.V.V.V.V.V.V.V.V.V.V.V.V.V.= t o.t.4.O.} Y 8 q ) t.l.d.s.s.s.s.s.s.s.s.s.s.s.s.s.s.d.g.t.[ q 6 Y | O.4.r.o.i = V.V.V.V.V.V.V.V.V.V.V.V.V.V.V.V.V.V.V.",
"V.V.V.V.V.V.V.V.V.V.V.V.V.V.V.V.V.V.V.= q Q ( ( ( Q k 5 g l.c.s.s.s.s.s.s.d.d.d.d.d.d.s.s.s.s.s.s.c.l.g 5 k Q ( ( ( Q q = V.V.V.V.V.V.V.V.V.V.V.V.V.V.V.V.V.V.V.",
"V.V.V.V.V.V.V.V.V.V.V.V.V.V.V.V.V.V.V.V.6 p f a d f i 4 f s.l.s.s.s.s.d.p.y.y.y.i.y.y.p.d.s.s.s.s.z.s.a 4 i f d p f i 6 V.V.V.V.V.V.V.V.V.V.V.V.V.V.V.V.V.V.V.V.",
"V.V.V.V.V.V.V.V.V.V.V.V.V.V.V.V.V.V.V.V.V.; ; ; ; ; - = p r.f.s.s.s.p.p.t.O.| [ [ | +.t.p.s.s.s.p.f.e.p = ; ; : : ; : V.V.V.V.V.V.V.V.V.V.V.V.V.V.V.V.V.V.V.V.V.",
"V.V.V.V.V.V.V.V.V.V.V.V.V.V.V.V.V.V.V.V.V.V.V.V.V.V.V.= p r.f.s.s.d.p.6.o. .j 4 4 j | +.4.p.d.s.s.f.t.p & V.V.V.V.V.V.V.V.V.V.V.V.V.V.V.V.V.V.V.V.V.V.V.V.V.V.V.",
"V.V.V.V.V.V.V.V.V.V.V.V.V.V.V.V.V.V.V.V.V.V.V.V.V.V.V.= p r.f.s.s.d.p.6.! t > - - > e ! 6.i.s.s.s.f.e.p = V.V.V.V.V.V.V.V.V.V.V.V.V.V.V.V.V.V.V.V.V.V.V.V.V.V.V.",
"V.V.V.V.V.V.V.V.V.V.V.V.V.V.V.V.V.V.V.V.V.V.V.V.V.V.V.& p t.g.s.s.d.p.6.Y > & V.V.& 4 Y 6.p.d.s.s.g.t.p = V.V.V.V.V.V.V.V.V.V.V.V.V.V.V.V.V.V.V.V.V.V.V.V.V.V.V.",
"V.V.V.V.V.V.V.V.V.V.V.V.V.V.V.V.V.V.V.V.V.V.V.V.V.V.V.V.e E @.d.d.d.p.6.Y 5 V.V.V.V.5 Y 6.p.s.d.s.@.E e V.V.V.V.V.V.V.V.V.V.V.V.V.V.V.V.V.V.V.V.V.V.V.V.V.V.V.V.",
"V.V.V.V.V.V.V.V.V.V.V.V.V.V.V.V.V.V.V.V.V.V.V.V.V.V.V.V.V.; Y d.s.s.p.6.Y 4 V.V.V.V.4 Y 6.p.d.d.d.Y : V.V.V.V.V.V.V.V.V.V.V.V.V.V.V.V.V.V.V.V.V.V.V.V.V.V.V.V.V.",
"V.V.V.V.V.V.V.V.V.V.V.V.V.V.V.V.V.V.V.V.V.V.V.V.V.V.V.V.V.> T d.d.d.p.6.T 4 V.V.V.V.4 Y 6.p.d.s.d.Y : V.V.V.V.V.V.V.V.V.V.V.V.V.V.V.V.V.V.V.V.V.V.V.V.V.V.V.V.V.",
"V.V.V.V.V.V.V.V.V.V.V.V.V.V.V.V.V.V.V.V.V.V.V.V.V.V.V.V.V.: T d.d.s.p.6.Y 4 V.V.V.V.4 Y 6.p.s.d.d.E : V.V.V.V.V.V.V.V.V.V.V.V.V.V.V.V.V.V.V.V.V.V.V.V.V.V.V.V.V.",
"V.V.V.V.V.V.V.V.V.V.V.V.V.V.V.V.V.V.V.V.V.V.V.V.V.V.V.V.V.> E s.d.s.p.6.Y 4 V.V.V.V.4 T 6.p.d.d.d.Y > V.V.V.V.V.V.V.V.V.V.V.V.V.V.V.V.V.V.V.V.V.V.V.V.V.V.V.V.V.",
"V.V.V.V.V.V.V.V.V.V.V.V.V.V.V.V.V.V.V.V.V.V.V.V.V.V.V.V.V.: Y d.d.s.s.6.Y 4 V.V.V.V.4 Y e.p.s.d.d.Y 4 V.V.V.V.V.V.V.V.V.V.V.V.V.V.V.V.V.V.V.V.V.V.V.V.V.V.V.V.V.",
"V.V.V.V.V.V.V.V.V.V.V.V.V.V.V.V.V.V.V.V.V.V.V.V.V.V.V.V.V.: E d.d.i.t.4.Y 4 V.V.V.V.4 T 4.t.i.d.d.Y 3 V.V.V.V.V.V.V.V.V.V.V.V.V.V.V.V.V.V.V.V.V.V.V.V.V.V.V.V.V.",
"V.V.V.V.V.V.V.V.V.V.V.V.V.V.V.V.V.V.V.V.V.V.V.V.V.V.V.V.V.> Y d.d.t.o.O.Y 4 V.V.V.V.4 T O.o.r.d.d.T 4 V.V.V.V.V.V.V.V.V.V.V.V.V.V.V.V.V.V.V.V.V.V.V.V.V.V.V.V.V.",
"V.V.V.V.V.V.V.V.V.V.V.V.V.V.V.V.V.V.V.V.V.V.V.V.V.V.V.V.V.> Y d.s.t.o.O.Y 4 V.V.V.V.4 Y o.O.t.s.s.Y > V.V.V.V.V.V.V.V.V.V.V.V.V.V.V.V.V.V.V.V.V.V.V.V.V.V.V.V.V.",
"V.V.V.V.V.V.V.V.V.V.V.V.V.V.V.V.V.V.V.V.V.V.V.V.V.V.V.V.V.: B @.@.O. .! g > V.V.V.V.> g ! X.O.@.@.m : V.V.V.V.V.V.V.V.V.V.V.V.V.V.V.V.V.V.V.V.V.V.V.V.V.V.V.V.V.",
"V.V.V.V.V.V.V.V.V.V.V.V.V.V.V.V.V.V.V.V.V.V.V.V.V.V.V.V.V.: l +.+.{ Q U p > V.V.V.V.> a U Q } +.@.l : V.V.V.V.V.V.V.V.V.V.V.V.V.V.V.V.V.V.V.V.V.V.V.V.V.V.V.V.V.",
"V.V.V.V.V.V.V.V.V.V.V.V.V.V.V.V.V.V.V.V.V.V.V.V.V.V.V.V.V.V.p k k f w w q > V.V.V.V.> q w w f k k i V.V.V.V.V.V.V.V.V.V.V.V.V.V.V.V.V.V.V.V.V.V.V.V.V.V.V.V.V.V.",
"V.V.V.V.V.V.V.V.V.V.V.V.V.V.V.V.V.V.V.V.V.V.V.V.V.V.V.V.V.V.V.= = = = ; V.V.V.V.V.V.V.V.; = = = = V.V.V.V.V.V.V.V.V.V.V.V.V.V.V.V.V.V.V.V.V.V.V.V.V.V.V.V.V.V.V.",
"V.V.V.V.V.V.V.V.V.V.V.V.V.V.V.V.V.V.V.V.V.V.V.V.V.V.V.V.V.V.V.V.V.V.V.V.V.V.V.V.V.V.V.V.V.V.V.V.V.V.V.V.V.V.V.V.V.V.V.V.V.V.V.V.V.V.V.V.V.V.V.V.V.V.V.V.V.V.V.V.",
"V.V.V.V.V.V.V.V.V.V.V.V.V.V.V.V.V.V.V.V.V.V.V.V.V.V.V.V.V.V.V.V.V.V.V.V.V.V.V.V.V.V.V.V.V.V.V.V.V.V.V.V.V.V.V.V.V.V.V.V.V.V.V.V.V.V.V.V.V.V.V.V.V.V.V.V.V.V.V.V.",
"V.V.V.V.V.V.V.V.V.V.V.V.V.V.V.V.V.V.V.V.V.V.V.V.V.V.V.V.V.V.V.V.V.V.V.V.V.V.V.V.V.V.V.V.V.V.V.V.V.V.V.V.V.V.V.V.V.V.V.V.V.V.V.V.V.V.V.V.V.V.V.V.V.V.V.V.V.V.V.V.",
"V.V.V.V.V.V.V.V.V.V.V.V.V.V.V.V.V.V.V.V.V.V.V.V.V.V.V.V.V.V.V.V.V.V.V.V.V.V.V.V.V.V.V.V.V.V.V.V.V.V.V.V.V.V.V.V.V.V.V.V.V.V.V.V.V.V.V.V.V.V.V.V.V.V.V.V.V.V.V.V.",
"V.V.V.V.V.V.V.V.V.V.V.V.V.V.V.V.V.V.V.V.V.V.V.V.V.V.V.V.V.V.V.V.V.V.V.V.V.V.V.V.V.V.V.V.V.V.V.V.V.V.V.V.V.V.V.V.V.V.V.V.V.V.V.V.V.V.V.V.V.V.V.V.V.V.V.V.V.V.V.V.",
"V.V.V.V.V.V.V.V.V.V.V.V.V.V.V.V.V.V.V.V.V.V.V.V.V.V.V.V.V.V.V.V.V.V.V.V.V.V.V.V.V.V.V.V.V.V.V.V.V.V.V.V.V.V.V.V.V.V.V.V.V.V.V.V.V.V.V.V.V.V.V.V.V.V.V.V.V.V.V.V.",
"V.V.V.V.V.V.V.V.V.V.V.V.V.V.V.V.V.V.V.V.V.V.V.V.V.V.V.V.V.V.V.V.V.V.V.V.V.V.V.V.V.V.V.V.V.V.V.V.V.V.V.V.V.V.V.V.V.V.V.V.V.V.V.V.V.V.V.V.V.V.V.V.V.V.V.V.V.V.V.V."
};
