/* XPM */
static char *_3800_e8440d39af49ca60219da30baf2ce391cd329dbec4c3d20c87bf659e4927b456[] = {
/* columns rows colors chars-per-pixel */
"240 80 2 1 ",
"  c #FA0D0D",
". c None",
/* pixels */
"          ...............         ..............................................................................................................................................................................................................",
"          ...............          .............................................................................................................................................................................................................",
"          ...............          .............................................................................................................................................................................................................",
"          ...............          .............................................................................................................................................................................................................",
"          ...............          ..........                      .............       ...............        ......................              .....................................              ...     .....            ........          ",
"          ...............          ..........                      ............         ..............        ......................               ....................................              ..      .....            ........          ",
"          ...............          ..........                      ............         ..............        ......................               ....................................              ..      .....            ........          ",
"          ...............          ..........                      ............         ..............        ......................               ....................................              ..      .....            ........          ",
"..          ...........          ..........                          ..........         ..............        ......................                .................................                ..      .....              ......          ",
"..          ...........          ..........                          ..........         ..............        ......................                 ................................                ..      .....              ......          ",
"..          ...........          ..........                          ..........         ..............        ......................                 ................................                ..      .....              ......          ",
"..          ...........          ..........                           .........         ..............        ......................                 ................................                ..      .....              ......          ",
"..          ...........          ........                              ........         ..............        ......................                 ................................                ..      .....              ......          ",
"..          ...........          ........                              ........         ..............        ......................                 ................................                ..      .....              ......          ",
"..          ...........          ........                              ........         ..............        ......................                 ................................                ..      .....              ......          ",
"...          .........          ........                                .......         ..............        .......................                ...............................                 ..      .....              ......          ",
"....          .......          ........                                  ......         ..............        ........................                 ............................                ....      .....                ....          ",
"....          .......          ........                                  ......         ..............        ........................                 ............................                ....      .....                ....          ",
"....          .......          ........                                  ......         ..............        ........................                 ............................                ....      .....                ....          ",
"....          .......          ........                                  ......         ..............        ........................                 ............................                ....      .....                ....          ",
"....          .......          ........                                  ......         ..............        ........................                 ............................                ....      .....                ....          ",
"....          .......          ........                                  ......         ..............        ........................                 ............................                ....      .....                ....          ",
"....          ......           ........                                  ......         ..............        ........................                 ............................                ....      .....                ....          ",
"......          ...          ........                                      ....         ..............        ..........................                .........................                ......      .....                  ..          ",
"......          ..           ........                                      ....         ..............        ..........................                 ........................                ......      .....                  ..          ",
"......          ..           ........                                      ....         ..............        ..........................                 ........................                ......      .....                  ..          ",
"......           .           ........                                      ....         ..............        ..........................                 ........................                ......      .....                  ..          ",
"......                     ..........              ..........              ....         ..............        ..........................                 ........................                ......      .....                              ",
"......                     ..........              ..........              ....         ..............        ..........................                 ........................                ......      .....                              ",
"......                     ..........              ..........              ....         ..............        ..........................                 ........................                ......      .....                              ",
".......                    ..........              ..........              ....         ..............        ...........................                ........................                ......      .....                              ",
"........                   ..........            ..............            ....         ..............        ............................                 ....................                ........      .....                              ",
"........                   ..........            ..............            ....         ..............        ............................                 ....................                ........      .....                              ",
"........                   ..........            ..............            ....         ..............        ............................                 ....................                ........      .....                              ",
".........                 ...........           ................           ....         ..............        ............................                 .......... .........                ........      .....                              ",
"..........               ............          ..................          ....         ..............        ............................                 ........    ........                ........      .....                              ",
"..........               ............          ..................          ....         ..............        ............................                 ........    ........                ........      .....                              ",
"..........               ............          ..................          ....         ..............        ............................                 ........    ........                ........      .....                              ",
"............           ..............          ..................          ....         ..............        ..............................                .....        ....                ..........      .....                              ",
"............           ..............          ..................          ....         ..............        ..............................                 ....        ....                ..........      .....                              ",
"............           ..............          ..................          ....         ..............        ..............................                 ....        ....                ..........      .....                              ",
"............           ..............          ..................          ....         ..............        ..............................                 ....        ....                ..........      .....                              ",
"..............       ................          ..................          ....         ..............        ..............................                                                 ..........      .....                              ",
"..............       ................          ..................          ....         ..............        ..............................                                                 ..........      .....                              ",
"..............       ................          ..................          ....         ..............        ..............................                                                 ..........      .....                              ",
"..............       ................          ..................          ....         ..............        ...............................                                                ..........      .....                              ",
"..............       ................            ..............            ....         ..............        ................................                                             ............      .....            ..                ",
"..............       ................            ..............            ....         ..............        ................................                                             ............      .....            ..                ",
"..............       ................            ..............            ....         ..............        ................................                                             ............      .....            ..                ",
"..............       ................            ..............            ....         ..............        ................................                                             ............      .....            ..                ",
"..............       ................              ..........              ....         ..............        ................................                                             ............      .....            ....              ",
"..............       ................              ..........              ....         ..............        ................................                                             ............      .....            ....              ",
"..............       ................              ..........              ....         ..............        ................................                                             ............      .....            ....              ",
"..............       .................                                    .....          ...........          ..................................                                          .............      .....            ....              ",
"..............       ..................                                  ......           ..........          ..................................                                         ..............      .....            ....              ",
"..............       ..................                                  ......           ..........          ..................................                                         ..............      .....            ....              ",
"..............       ..................                                  ......           ..........          ..................................                                         ..............      .....            ....              ",
"..............       ..................                                  ........          .......            ..................................                   ....                  ..............      .....            ......            ",
"..............       ..................                                  ........           ......            ..................................                   ....                  ..............      .....            ......            ",
"..............       ..................                                  ........           ......            ..................................                   ....                  ..............      .....            ......            ",
"..............       ..................                                  .........          ......            ...................................                  ....                  ..............      .....            ......            ",
"..............       ....................                              ............                         ......................................               ........              ................      .....            ......            ",
"..............       ....................                              .............                        .......................................              ........              ................      .....            ......            ",
"..............       ....................                              .............                        .......................................              ........              ................      .....            ......            ",
"..............       ....................                              .............                        .......................................              ........              ................      .....            ......            ",
"..............       ......................                          .................                  .............................................          ............          ..................      .....            ........          ",
"..............       ......................                          .................                  .............................................          ............          ..................      .....            ........          ",
"..............       ......................                          .................                  .............................................          ............          ..................      .....            ........          ",
"..............       ......................                          .................                 ..............................................         .............          ...................     .....           .........          ",
"..............       ..........................                  .......................            ............................................................................................................................................",
"..............       ..........................                  .......................            ............................................................................................................................................",
"..............       ..........................                  .......................            ............................................................................................................................................",
".............         ..........................................................................................................................................................................................................................",
"............           .........................................................................................................................................................................................................................",
"............           .........................................................................................................................................................................................................................",
"............           .........................................................................................................................................................................................................................",
"...........             ........................................................................................................................................................................................................................",
"..........               .......................................................................................................................................................................................................................",
"..........               .......................................................................................................................................................................................................................",
"..........               ......................................................................................................................................................................................................................."
};
