/* XPM */
static char *_692_e151a147a6913f79e5b4da3c6e3fe4414410146081841b4ad58849bf304e94f2[] = {
/* columns rows colors chars-per-pixel */
"80 80 76 1 ",
"  c #020100",
". c #0C0402",
"X c #0E0905",
"o c #0F0E0E",
"O c #110603",
"+ c #190603",
"@ c #140A06",
"# c #1C0D06",
"$ c #150D0A",
"% c #1A0E09",
"& c #1F1007",
"* c #1E120B",
"= c #1B1511",
"- c #1C1C1D",
"; c #210F07",
": c #240E0B",
"> c #290F0C",
", c #231007",
"< c #23140C",
"1 c #2B140C",
"2 c #26180F",
"3 c #2C190E",
"4 c #31160D",
"5 c #341B0E",
"6 c #3D1F0E",
"7 c #2D1410",
"8 c #271910",
"9 c #291A10",
"0 c #221D1A",
"q c #341612",
"w c #331D11",
"e c #3C1E12",
"r c #042018",
"t c #0B241B",
"y c #3F200E",
"u c #242525",
"i c #2C2B2B",
"p c #3A2E25",
"a c #323333",
"s c #3D3837",
"d c #3E3C3A",
"f c #431E14",
"g c #401F18",
"h c #4A1F1A",
"j c #41200E",
"k c #442112",
"l c #4B2315",
"z c #422219",
"x c #4C221A",
"c c #53251B",
"v c #59271E",
"b c #5B291E",
"n c #5E2A21",
"m c #4B3326",
"M c #4C3029",
"N c #453F3B",
"B c #642B23",
"V c #682C25",
"C c #6F332A",
"Z c #763A2B",
"A c #154332",
"S c #184433",
"D c #2E432E",
"F c #1A5E46",
"G c #2E6B4E",
"H c #555556",
"J c #6B605B",
"K c #666767",
"L c gray42",
"P c #73716F",
"I c #767575",
"U c #874233",
"Y c #884133",
"T c #807B77",
"R c #31B385",
"E c None",
/* pixels */
"EEEEEEEEEEEEEEEEEEEEEEEEEEEEEEEEEEEEEEEEEEEEEEEEEEEEEEEEEEEEEEEEEEEEEEEEEEEEEEEE",
"EEEEEEEEEEEEEEEEEEEEEEEEEEEEEEEEEEEEEEEEEEEEEEEEEEEEEEEEEEEEEEEEEEEEEEEEEEEEEEEE",
"EEEEEEEEEEEEEEEEEEEEEEEEEEEEEEEEEEEEEEEEEEEEEEEEEEEEEEEEEEEEEEEEEEEEEEEEEEEEEEEE",
"EEEEEEEEEEEEEEEEEEEEEEEEEEEEEEEEEEEE  EE   EEEEEEEEEEEEEEEEEEEEEEEEEEEEEEEEEEEEE",
"EEEEEEEEEEEEEEEEEEEEEEEEEEEEEEEEEEE    E%%O.EEEEEEEEEEEEEEEEEEEEEEEEEEEEEEEEEEEE",
"EEEEEEEEEEEEEEEEEEEEEEEEEEEEEEEEEEE    @hc6O EEEEEEEEEEEEEEEEEEEEEEEEEEEEEEEEEEE",
"EEEEEEEEEEEEEEEEEEEEEEEEEEEEEEEEEE      :gc4@ EEEEEEEEEEEEEEEEEEEEEEEEEEEEEEEEEE",
"EEEEEEEEEEEEEEEEEEEEEEEEEEEEEEEEEE       <cvz@.EEEEEEEEEEEEEEEEEEEEEEEEEEEEEEEEE",
"EEEEEEEEEEEEEEEEEEEEEEEEEEEEEEEEEE       .1ZYn% EEEEEEEEEEEEEEEEEEEEEEEEEEEEEEEE",
"EEEEEEEEEEEEEEEEEEEEEEEEEEEEEEEEE         +xCB> EEEEEEEEEEEEEEEEEEEEEEEEEEEEEEEE",
"EEEEEEEEEEEEEEEEEEEEEEEEEEEEEEEE        ....>n7 EEEEEEEEEEEEEEEEEEEEEEEEEEEEEEEE",
"EEEEEEEEEEEEEEEEEEEEEEEEEEEEEEE         ... #kw$.EEEEEEEEEEEEEEEEEEEEEEEEEEEEEEE",
"EEEEEEEEEEEEEEEEEEEEEEEEEEEEEE     ..   .O..+6w<X.EEEEEEEEEEEEEEEEEEEEEEEEEEEEEE",
"EEEEEEEEEEEEEEEEEEEEEEEEEEEEE    ..O.   .O..#5w88$ EEEEEEEEEEEEEEEEEEEEEEEEEEEEE",
"EEEEEEEEEEEEEEEEEEEEEEEEEEEEE    ..;,.@@O...O;,99<$ EEEEEEEEEEEEEEEEEEEEEEEEEEEE",
"EEEEEEEEEEEEEEEEEEEEEEEEEEEEE   OOO>1#<3#OOOO#,9<29$ EEEEEEEEEEEEEEEEEEEEEEEEEEE",
"EEEEEEEEEEEEEEEEEEEEEEEEEE     O11*O#56e2#O.#49<$,63$ EEEEEEEEEEEEEEEEEEEEEEEEEE",
"EEEEEEEEEEEEEEEEEEEEEEEEE     .O,DGt &,,2<*$<6w<*<yw< EEEEEEEEEEEEEEEEEEEEEEEEEE",
"EEEEEEEEEEEEEEEEEEEEE        OO. FRA ..@<88856w984yy<.EEEEEEEEEEEEEEEEEEEEEEEEEE",
"EEEEEEEEEEEEEEEEEEEE        .O.. rApf1<=288836649w6j1.EEEEEEEEEEEEEEEEEEEEEEEEEE",
"EEEEEEEEEEEEEEEEEEE   .$79#OXX....+xBle8888346lf33yy< EEEEEEEEEEEEEEEEEEEEEEEEEE",
"EEEEEEEEEEEEEEEEEE    #lUZ6#OOO@<36vVne8889w6jcc##y7* EEEEEEEEEEEEEEEEEEEEEEEEEE",
"EEEEEEEEEEEEEEEEEE .O,5knnc6,<%<46jlvVz8895xvch>O#3<X EEEEEEEEEEEEEEEEEEEEEEEEEE",
"EEEEEEEEEEEEEEEEEE .<mz5pMvf1<<25556kvz9wykcnc1..@<@. EEEEEEEEEEEEEEEEEEEEEEEEEE",
"EEEEEEEEEEEEEEEEEEE iTN-PJw%+@OO@##<wk6yvnvq%+@O..@O. EEEEEEEEEEEEEEEEEEEEEEEEEE",
"EEEEEEEEEEEEEEEEEEEEiHs-Hs=dso:>O .X<6ykccq# ..O.O.O. EEEEEEEEEEEEEEEEEEEEEEEEEE",
"EEEEEEEEEEEEEEEEEEEEE EE  oLKoqhO   @5666,. ..O@OO@.. EEEEEEEEEEEEEEEEEEEEEEEEEE",
"EEEEEEEEEEEEEEEEEEEEEEEEEEEau O%    O#%##O ..O%%OO.. EEEEEEEEEEEEEEEEEEEEEEEEEEE",
"EEEEEEEEEEEEEEEEEEEEEEEEEEE     %@  ...... .@#**@..  EEEEEEEEEEEEEEEEEEEEEEEEEEE",
"EEEEEEEEEEEEEEEEEEEEEEEE       $hq    .OOOOO@<%@O.   EEEEEEEEEEEEEEEEEEEEEEEEEEE",
"EEEEEEEEEEEEEEEEEEEEEEEE %qO-Ha >%     ..@***%@..     EEEEEEEEEEEEEEEEEEEEEEEEEE",
"EEEEEEEEEEEEEEEEEEEEEEEE <h+iId        O@*88*@.... ..  EEEEEEEEEEEEEEEEEEEEEEEEE",
"EEEEEEEEEEEEEEEEEEEEEEEE .@X$-$        @*888*..  @**%.  EEEEEEEEEEEEEEEEEEEEEEEE",
"EEEEEEEEEEEEEEEEEEEEEEEEE         . .X$*2988<%@$#1zzeq+  EEEEEEEEEEEEEEEEEEEEEEE",
"EEEEEEEEEEEEEEEEEEEEEEEEEE     ....O%<22882983336lBVBBq.  EEEEEEEEEEEEEEEEEEEEEE",
"EEEEEEEEEEEEEEEEEEEEEEEEEEEE  .O.OO%<89998889wwy6xVVVBe%  EEEEEEEEEEEEEEEEEEEEEE",
"EEEEEEEEEEEEEEEEEEEEEEEEEEEEE .@$@%<888888895666ylvBVBx<. EEEEEEEEEEEEEEEEEEEEEE",
"EEEEEEEEEEEEEEEEEEEEEEEEEEEEE $222898998999wy6yyyykvBBl5@  EEEEEEEEEEEEEEEEEEEEE",
"EEEEEEEEEEEEEEEEEEEEEEEEEEEEE *55ww555ww55w66yyyyyylxll5@  EEEEEEEEEEEEEEEEEEEEE",
"EEEEEEEEEEEEEEEEEEEEEEEEEEEEE ,yjj6yy66y66y666yy5666yyy5;X EEEEEEEEEEEEEEEEEEEEE",
"EEEEEEEEEEEEEEEEEEEEEEEEEEEEE &y666j6y6y666y6y579936j6666# EEEEEEEEEEEEEEEEEEEEE",
"EEEEEEEEEEEEEEEEEEEEEEEEEEEEE *y6j666y666y666j53*%*366j6j; EEEEEEEEEEEEEEEEEEEEE",
"EEEEEEEEEEEEEEEEEEEEEEEEEEEEE $966j666yyjkjj66j5#OO<16jj6< EEEEEEEEEEEEEEEEEEEEE",
"EEEEEEEEEEEEEEEEEEEEEEEEEEEEE $36jj6yyykcbcl6jj6<@.O*66jj; EEEEEEEEEEEEEEEEEEEEE",
"EEEEEEEEEEEEEEEEEEEEEEEEEEEEE @<5j66jllxBBvk66w59%. %fk66, EEEEEEEEEEEEEEEEEEEEE",
"EEEEEEEEEEEEEEEEEEEEEEEEEEEEE  @56y6lbBBBcj659989*  >nc66< EEEEEEEEEEEEEEEEEEEEE",
"EEEEEEEEEEEEEEEEEEEEEEEEEEEEE  .1666ekzeq1:199*%%X .>ncy5* EEEEEEEEEEEEEEEEEEEEE",
"EEEEEEEEEEEEEEEEEEEEEEEEEEEEE   *wfke373#@#<99%OO.  ,vl6<@ EEEEEEEEEEEEEEEEEEEEE",
"EEEEEEEEEEEEEEEEEEEEEEEEEEE ..  @qvBcyy553<822*OO.  ;jj5#. EEEEEEEEEEEEEEEEEEEEE",
"EEEEEEEEEEEEEEEEEEEEEEEEEEE  O. .1ccccxljw8832*..  .;5j5O. EEEEEEEEEEEEEEEEEEEEE",
"EEEEEEEEEEEEEEEEEEEEEEEEEEE  O. .;yykbBvk5888<$...@O:6j5+  EEEEEEEEEEEEEEEEEEEEE",
"EEEEEEEEEEEEEEEEEEEEEEEEEEE  O  .;yyjllkk698<$..$,544jj5O  EEEEEEEEEEEEEEEEEEEEE",
"EEEEEEEEEEEEEEEEEEEEEEEEEEE  .   #56yyyy5588<X .*3jjjlj,   EEEEEEEEEEEEEEEEEEEEE",
"EEEEEEEEEEEEEEEEEEEEEEEEEEE  .. .#96yyy53888*@  .,66lbq.  EEEEEEEEEEEEEEEEEEEEEE",
"EEEEEEEEEEEEEEEEEEEEEEEEEEEE    .%27y9ww98882*X .;66kl4.  EEEEEEEEEEEEEEEEEEEEEE",
"EEEEEEEEEEEEEEEEEEEEEEEEEEEEE   X*28<<=<<88888X .>6j65;. EEEEEEEEEEEEEEEEEEEEEEE",
"EEEEEEEEEEEEEEEEEEEEEEEEEEEEEE .*2<%@XOO@%8898X.16jj5#. EEEEEEEEEEEEEEEEEEEEEEEE",
"EEEEEEEEEEEEEEEEEEEEEEEEEEEEEE  <98@... .%97y3@.&,,,#. EEEEEEEEEEEEEEEEEEEEEEEEE",
"EEEEEEEEEEEEEEEEEEEEEEEEEEEEEE .*8<*OO. .@35y5,..     EEEEEEEEEEEEEEEEEEEEEEEEEE",
"EEEEEEEEEEEEEEEEEEEEEEEEEEEEEE  @*8<#O.  @95yy3**@   EEEEEEEEEEEEEEEEEEEEEEEEEEE",
"EEEEEEEEEEEEEEEEEEEEEEEEEEEEEEE .%89<$O. X<6yy538%.  EEEEEEEEEEEEEEEEEEEEEEEEEEE",
"EEEEEEEEEEEEEEEEEEEEEEEEEEEEEEEE.@2988@.  O16yye9*.  EEEEEEEEEEEEEEEEEEEEEEEEEEE",
"EEEEEEEEEEEEEEEEEEEEEEEEEEEEEEEE X%<98#.   #16y66,.  EEEEEEEEEEEEEEEEEEEEEEEEEEE",
"EEEEEEEEEEEEEEEEEEEEEEEEEEEEEEEE  X<82%.   .#56661O  EEEEEEEEEEEEEEEEEEEEEEEEEEE",
"EEEEEEEEEEEEEEEEEEEEEEEEEEEEEEEE  .*92%X    @1e63<O  EEEEEEEEEEEEEEEEEEEEEEEEEEE",
"EEEEEEEEEEEEEEEEEEEEEEEEEEEEEEEE  .<98<$    .%338<$  EEEEEEEEEEEEEEEEEEEEEEEEEEE",
"EEEEEEEEEEEEEEEEEEEEEEEEEEEEEEEE  O<928*  E  X%889<X EEEEEEEEEEEEEEEEEEEEEEEEEEE",
"EEEEEEEEEEEEEEEEEEEEEEEEEEEEE   .O<3w99*. E   $8888@  EEEEEEEEEEEEEEEEEEEEEEEEEE",
"EEEEEEEEEEEEEEEEEEEEEEEEEEEE.XXX@<3yw99*  E   @<888@. EEEEEEEEEEEEEEEEEEEEEEEEEE",
"EEEEEEEEEEEEEEEEEEEEEEEEEEE .*8=23yy698*.    .@$<98@. EEEEEEEEEEEEEEEEEEEEEEEEEE",
"EEEEEEEEEEEEEEEEEEEEEEEEEEE O56w5yjjw9*@    X%,1w98<$ EEEEEEEEEEEEEEEEEEEEEEEEEE",
"EEEEEEEEEEEEEEEEEEEEEEEEEEE X35454553<$. .XX#36yj5<<* EEEEEEEEEEEEEEEEEEEEEEEEEE",
"EEEEEEEEEEEEEEEEEEEEEEEEEEE  ..X..X..   .&555yyyy1@@X EEEEEEEEEEEEEEEEEEEEEEEEEE",
"EEEEEEEEEEEEEEEEEEEEEEEEEEEE           .@15yky651,O.  EEEEEEEEEEEEEEEEEEEEEEEEEE",
"EEEEEEEEEEEEEEEEEEEEEEEEEEEEEEEEEEEEEE  *<25563*@..  EEEEEEEEEEEEEEEEEEEEEEEEEEE",
"EEEEEEEEEEEEEEEEEEEEEEEEEEEEEEEEEEEEEEEEXXXOOXX.. . EEEEEEEEEEEEEEEEEEEEEEEEEEEE",
"EEEEEEEEEEEEEEEEEEEEEEEEEEEEEEEEEEEEEEEE           EEEEEEEEEEEEEEEEEEEEEEEEEEEEE",
"EEEEEEEEEEEEEEEEEEEEEEEEEEEEEEEEEEEEEEEEEEEEEEEEEEEEEEEEEEEEEEEEEEEEEEEEEEEEEEEE",
"EEEEEEEEEEEEEEEEEEEEEEEEEEEEEEEEEEEEEEEEEEEEEEEEEEEEEEEEEEEEEEEEEEEEEEEEEEEEEEEE",
"EEEEEEEEEEEEEEEEEEEEEEEEEEEEEEEEEEEEEEEEEEEEEEEEEEEEEEEEEEEEEEEEEEEEEEEEEEEEEEEE"
};
