/* XPM */
static char *_759_f8e3781863c045d9804cc42c855529c919d68ac6912ed42dfdd19a6b24d46a8f[] = {
/* columns rows colors chars-per-pixel */
"78 80 81 1 ",
"  c #020100",
". c #0C0402",
"X c #0E0905",
"o c #0C0B09",
"O c #110603",
"+ c #190706",
"@ c #140A06",
"# c #1B0C06",
"$ c #150D09",
"% c #1B0E09",
"& c #1D110B",
"* c #0B1610",
"= c #151414",
"- c #171818",
"; c #1E1F1F",
": c #220E06",
"> c #220E0A",
", c #221007",
"< c #23140C",
"1 c #2B150B",
"2 c #26180F",
"3 c #2B190E",
"4 c #32170C",
"5 c #341C0E",
"6 c #3D1F0E",
"7 c #271910",
"8 c #2A1A10",
"9 c #201F1F",
"0 c #341612",
"q c #391712",
"w c #331D11",
"e c #3C1C12",
"r c #3F200E",
"t c #272317",
"y c #352012",
"u c #3D2115",
"i c #3D221C",
"p c #0D392B",
"a c #222323",
"s c #2B2B2B",
"d c #332922",
"f c #3B3939",
"g c #401F0F",
"h c #431E15",
"j c #421E18",
"k c #4A1F1A",
"l c #40200E",
"z c #442112",
"x c #4B2315",
"c c #44221A",
"v c #4D231A",
"b c #53251A",
"n c #59271E",
"m c #542819",
"M c #5B291E",
"N c #4E2D26",
"B c #5D2921",
"V c #433B35",
"C c #632A23",
"Z c #692C26",
"A c #723828",
"S c #7D3D30",
"D c #124231",
"F c #23422F",
"G c #244C39",
"H c #51443D",
"J c #454444",
"K c #5F4E44",
"L c #5F534E",
"P c gray33",
"I c #5A5A5A",
"U c gray38",
"Y c #6A6A6A",
"T c #706E6D",
"R c #707171",
"E c #787573",
"W c #844131",
"Q c #8A4134",
"! c #33976F",
"~ c #279770",
"^ c None",
/* pixels */
"^^^^^^^^^^^^^^^^^^^^^^^^^^^^^^^^^^^^^^^^^^^^^^^^^^^^^^^^^^^^^^^^^^^^^^^^^^^^^^",
"^^^^^^^^^^^^^^^^^^^^^^^^^^^^^^^^^^^^^^^^^^^^^^^^^^^^^^^^^^^^^^^^^^^^^^^^^^^^^^",
"^^^^^^^^^^^^^^^^^^^^^^^^^^^^^^^^^^^^^^^^^^^^^^^^^^^^^^^^^^^^^^^^^^^^^^^^^^^^^^",
"^^^^^^^^^^^^^^^^^^^^^^^^^^^^^^^^^^^^   ^^  ^^^^^^^^^^^^^^^^^^^^^^^^^^^^^^^^^^^",
"^^^^^^^^^^^^^^^^^^^^^^^^^^^^^^^^^^^.@#<^    ^^^^^^^^^^^^^^^^^^^^^^^^^^^^^^^^^^",
"^^^^^^^^^^^^^^^^^^^^^^^^^^^^^^^^^^ @5bvO    ^^^^^^^^^^^^^^^^^^^^^^^^^^^^^^^^^^",
"^^^^^^^^^^^^^^^^^^^^^^^^^^^^^^^^^ @4bj%.     ^^^^^^^^^^^^^^^^^^^^^^^^^^^^^^^^^",
"^^^^^^^^^^^^^^^^^^^^^^^^^^^^^^^^X#cBb>       ^^^^^^^^^^^^^^^^^^^^^^^^^^^^^^^^^",
"^^^^^^^^^^^^^^^^^^^^^^^^^^^^^^^ %BQS1        ^^^^^^^^^^^^^^^^^^^^^^^^^^^^^^^^^",
"^^^^^^^^^^^^^^^^^^^^^^^^^^^^^^^ >CCe+         ^^^^^^^^^^^^^^^^^^^^^^^^^^^^^^^^",
"^^^^^^^^^^^^^^^^^^^^^^^^^^^^^^^ >b1....        ^^^^^^^^^^^^^^^^^^^^^^^^^^^^^^^",
"^^^^^^^^^^^^^^^^^^^^^^^^^^^^^^ $8h%..O.   ..    ^^^^^^^^^^^^^^^^^^^^^^^^^^^^^^",
"^^^^^^^^^^^^^^^^^^^^^^^^^^^^^.$&w6:....   ..     ^^^^^^^^^^^^^^^^^^^^^^^^^^^^^",
"^^^^^^^^^^^^^^^^^^^^^^^^^^^^ $77w4#..OX.  OO...   ^^^^^^^^^^^^^^^^^^^^^^^^^^^^",
"^^^^^^^^^^^^^^^^^^^^^^^^^^^ %<77<#O.OOO#$O11..    ^^^^^^^^^^^^^^^^^^^^^^^^^^^^",
"^^^^^^^^^^^^^^^^^^^^^^^^^^o$28&22#+OOO#33,1#+#+   ^^^^^^^^^^^^^^^^^^^^^^^^^^^^",
"^^^^^^^^^^^^^^^^^^^^^^^^^ @261@<36,@O&2565@oty1.     ^^^^^^^^^^^^^^^^^^^^^^^^^",
"^^^^^^^^^^^^^^^^^^^^^^^^^ $665&23r2&&22#@O D!sOO.        ^^^^^^^^^^^^^^^^^^^^^",
"^^^^^^^^^^^^^^^^^^^^^^^^^ #6r5885r57282$XO$G~D .O.        ^^^^^^^^^^^^^^^^^^^^",
"^^^^^^^^^^^^^^^^^^^^^^^^^ ,6r585rr3778723rmi*  ..OO...     ^^^^^^^^^^^^^^^^^^^",
"^^^^^^^^^^^^^^^^^^^^^^^^^ $564#hbr558777umZv:#@.OOO#4Mv&    ^^^^^^^^^^^^^^^^^^",
"^^^^^^^^^^^^^^^^^^^^^^^^^ X25>Ohbzxu8377cCCbz4<$@@+4mWAr#.   ^^^^^^^^^^^^^^^^^",
"^^^^^^^^^^^^^^^^^^^^^^^^^ .$2,.@0BCmr377cCxg66w2<24xMcur51.  ^^^^^^^^^^^^^^^^^",
"^^^^^^^^^^^^^^^^^^^^^^^^^  O%@..+qehbvcwzxe411>%%&,qNLV3KHX ^^^^^^^^^^^^^^^^^^",
"^^^^^^^^^^^^^^^^^^^^^^^^^  OO...O..>bCnh662&.O@OX@2=dEP=YUo^^^^^^^^^^^^^^^^^^^",
"^^^^^^^^^^^^^^^^^^^^^^^^^ .OOO.O.. .%qxglq#   %k>;TJo;a^aa^^^^^^^^^^^^^^^^^^^^",
"^^^^^^^^^^^^^^^^^^^^^^^^^  .O.O$+O.  +1111X   @e+-IJ  ^^^^^^^^^^^^^^^^^^^^^^^^",
"^^^^^^^^^^^^^^^^^^^^^^^^^^  .OO&<OX. .OOOO.       o.^^^^^^^^^^^^^^^^^^^^^^^^^^",
"^^^^^^^^^^^^^^^^^^^^^^^^^^^  .O#&&#....O.    00       ^^^^^^^^^^^^^^^^^^^^^^^^",
"^^^^^^^^^^^^^^^^^^^^^^^^^^    ..@&%$#@O..   .00 ;s.X%  ^^^^^^^^^^^^^^^^^^^^^^^",
"^^^^^^^^^^^^^^^^^^^^^^^^^     ..OO&22%O.       oIR=1k@ ^^^^^^^^^^^^^^^^^^^^^^^",
"^^^^^^^^^^^^^^^^^^^^^^^^  .$$X ...&87<%O        sf$+<. ^^^^^^^^^^^^^^^^^^^^^^^",
"^^^^^^^^^^^^^^^^^^^^^^^ .+3ww2OO.@&778<%X.        .   ^^^^^^^^^^^^^^^^^^^^^^^^",
"^^^^^^^^^^^^^^^^^^^^^^  +kBMCv42<22877727&$.....     ^^^^^^^^^^^^^^^^^^^^^^^^^",
"^^^^^^^^^^^^^^^^^^^^^^ .7BZZZnl5ww27777777,$...O    ^^^^^^^^^^^^^^^^^^^^^^^^^^",
"^^^^^^^^^^^^^^^^^^^^^^ $eBZCCb6r66587777777&OO@O  ^^^^^^^^^^^^^^^^^^^^^^^^^^^^",
"^^^^^^^^^^^^^^^^^^^^^ .:hBZCxz666g65877777822&<<@ ^^^^^^^^^^^^^^^^^^^^^^^^^^^^",
"^^^^^^^^^^^^^^^^^^^^  .1zbbblrgg6666538535358w53@ ^^^^^^^^^^^^^^^^^^^^^^^^^^^^",
"^^^^^^^^^^^^^^^^^^^^  O1glh6rrrrr66r66rr666rrrg6$ ^^^^^^^^^^^^^^^^^^^^^^^^^^^^",
"^^^^^^^^^^^^^^^^^^^^ .16666658335666rr6r6r66rrl6+ ^^^^^^^^^^^^^^^^^^^^^^^^^^^^",
"^^^^^^^^^^^^^^^^^^^^ O66g6r5<<<25r66r6666g6666r5@ ^^^^^^^^^^^^^^^^^^^^^^^^^^^^",
"^^^^^^^^^^^^^^^^^^^^ X6l6g5<$O@4r66g6z6rl66lg662X ^^^^^^^^^^^^^^^^^^^^^^^^^^^^",
"^^^^^^^^^^^^^^^^^^^^ .4lg61@.O,5l6rzbbbl6r6lrr68X ^^^^^^^^^^^^^^^^^^^^^^^^^^^^",
"^^^^^^^^^^^^^^^^^^^^ X6llh1..@8w666zMCCvxzl6re42X ^^^^^^^^^^^^^^^^^^^^^^^^^^^^",
"^^^^^^^^^^^^^^^^^^^^ X5llMq. o232866zbCCMMz6gl1O  ^^^^^^^^^^^^^^^^^^^^^^^^^^^^",
"^^^^^^^^^^^^^^^^^^^^ X36xCh. .&%&78311ezvcg6662.  ^^^^^^^^^^^^^^^^^^^^^^^^^^^^",
"^^^^^^^^^^^^^^^^^^^^ .<5xne.  OO#28<@++<88uzgw%   ^^^^^^^^^^^^^^^^^^^^^^^^^^^^",
"^^^^^^^^^^^^^^^^^^^^ .O1gz1.  X.$27222565rmCb1.  . ^^^^^^^^^^^^^^^^^^^^^^^^^^^",
"^^^^^^^^^^^^^^^^^^^^  .1r6,O ...$28775zxxbmnb>  ..  ^^^^^^^^^^^^^^^^^^^^^^^^^^",
"^^^^^^^^^^^^^^^^^^^^  .1rr1@OX .$27775znCMxr6#. .. ^^^^^^^^^^^^^^^^^^^^^^^^^^^",
"^^^^^^^^^^^^^^^^^^^^   ,lg5441&..$<7756xxxlr6+. .X ^^^^^^^^^^^^^^^^^^^^^^^^^^^",
"^^^^^^^^^^^^^^^^^^^^^  +5zzll5&. .&7836666rl4+  .. ^^^^^^^^^^^^^^^^^^^^^^^^^^^",
"^^^^^^^^^^^^^^^^^^^^^^ .:nmgg1.  O<277866rr52$   . ^^^^^^^^^^^^^^^^^^^^^^^^^^^",
"^^^^^^^^^^^^^^^^^^^^^^  :hz6g1. .&22778855582$.   ^^^^^^^^^^^^^^^^^^^^^^^^^^^^",
"^^^^^^^^^^^^^^^^^^^^^^  +166g4+ X28772<<<<<22%X   ^^^^^^^^^^^^^^^^^^^^^^^^^^^^",
"^^^^^^^^^^^^^^^^^^^^^^^  @16664X.2877%O.X..&22& ^^^^^^^^^^^^^^^^^^^^^^^^^^^^^^",
"^^^^^^^^^^^^^^^^^^^^^^^^  @#%%%.@3588#.  .O%28& ^^^^^^^^^^^^^^^^^^^^^^^^^^^^^^",
"^^^^^^^^^^^^^^^^^^^^^^^^^     ..#6r68$. ..O#27& ^^^^^^^^^^^^^^^^^^^^^^^^^^^^^^",
"^^^^^^^^^^^^^^^^^^^^^^^^^^  .O&<26r67@ ..@&72#O ^^^^^^^^^^^^^^^^^^^^^^^^^^^^^^",
"^^^^^^^^^^^^^^^^^^^^^^^^^^^ .$2w6rr5&. .O%272@. ^^^^^^^^^^^^^^^^^^^^^^^^^^^^^^",
"^^^^^^^^^^^^^^^^^^^^^^^^^^^ .@25g6l1O  .%277<@.^^^^^^^^^^^^^^^^^^^^^^^^^^^^^^^",
"^^^^^^^^^^^^^^^^^^^^^^^^^^^ .,66l61@   .%77<@. ^^^^^^^^^^^^^^^^^^^^^^^^^^^^^^^",
"^^^^^^^^^^^^^^^^^^^^^^^^^^^ .,5r65#.   .%78,.  ^^^^^^^^^^^^^^^^^^^^^^^^^^^^^^^",
"^^^^^^^^^^^^^^^^^^^^^^^^^^^ .%2653+    O&77&.  ^^^^^^^^^^^^^^^^^^^^^^^^^^^^^^^",
"^^^^^^^^^^^^^^^^^^^^^^^^^^^ $<782+. ^  &777&.  ^^^^^^^^^^^^^^^^^^^^^^^^^^^^^^^",
"^^^^^^^^^^^^^^^^^^^^^^^^^^ .<878&.  ^^ &8787O. ^^^^^^^^^^^^^^^^^^^^^^^^^^^^^^^",
"^^^^^^^^^^^^^^^^^^^^^^^^^  O<778&   ^  &83w5<$.   ^^^^^^^^^^^^^^^^^^^^^^^^^^^^",
"^^^^^^^^^^^^^^^^^^^^^^^^^  O<77&@     .282yr52$$$X ^^^^^^^^^^^^^^^^^^^^^^^^^^^",
"^^^^^^^^^^^^^^^^^^^^^^^^^ .$778&+$.   .&785lr5233<.^^^^^^^^^^^^^^^^^^^^^^^^^^^",
"^^^^^^^^^^^^^^^^^^^^^^^^^ X<78643<@    .&86rru66r2.^^^^^^^^^^^^^^^^^^^^^^^^^^^",
"^^^^^^^^^^^^^^^^^^^^^^^^^ X&&3rlr31##X. .$&,,,,<<#  ^^^^^^^^^^^^^^^^^^^^^^^^^^",
"^^^^^^^^^^^^^^^^^^^^^^^^^ .O.#6666rrr,X            ^^^^^^^^^^^^^^^^^^^^^^^^^^^",
"^^^^^^^^^^^^^^^^^^^^^^^^^^  .@#25llrw2&  ^^^^^^^^^^^^^^^^^^^^^^^^^^^^^^^^^^^^^",
"^^^^^^^^^^^^^^^^^^^^^^^^^^^ ...$&<1,&&$.^^^^^^^^^^^^^^^^^^^^^^^^^^^^^^^^^^^^^^",
"^^^^^^^^^^^^^^^^^^^^^^^^^^^^     .     ^^^^^^^^^^^^^^^^^^^^^^^^^^^^^^^^^^^^^^^",
"^^^^^^^^^^^^^^^^^^^^^^^^^^^^^^^^^^^^^^^^^^^^^^^^^^^^^^^^^^^^^^^^^^^^^^^^^^^^^^",
"^^^^^^^^^^^^^^^^^^^^^^^^^^^^^^^^^^^^^^^^^^^^^^^^^^^^^^^^^^^^^^^^^^^^^^^^^^^^^^",
"^^^^^^^^^^^^^^^^^^^^^^^^^^^^^^^^^^^^^^^^^^^^^^^^^^^^^^^^^^^^^^^^^^^^^^^^^^^^^^",
"^^^^^^^^^^^^^^^^^^^^^^^^^^^^^^^^^^^^^^^^^^^^^^^^^^^^^^^^^^^^^^^^^^^^^^^^^^^^^^",
"^^^^^^^^^^^^^^^^^^^^^^^^^^^^^^^^^^^^^^^^^^^^^^^^^^^^^^^^^^^^^^^^^^^^^^^^^^^^^^"
};
